<?xml version="1.0" standalone="yes"?><svg version="1.1" xmlns = 'http://www.w3.org/2000/svg'><defs><font id='web' horiz-adv-x="1000">
<font-face font-family="web" descent="-410" cap-height="1516" units-per-em="2048" bbox="-150,-524,2447,2005" x-height="1085" ascent="1520" />
<missing-glyph horiz-adv-x="1024" d="M 0 1434 L 1024 1434 L 1024 0 L 0 0 L 0 1434 Z M 102 102 L 922 102 L 922 1331 L 102 1331 L 102 102 Z" /><glyph horiz-adv-x="1024" d="" unicode=" " />
<glyph horiz-adv-x="2048" d="" unicode=" " />
<glyph horiz-adv-x="1155" d="" unicode=" " />
<glyph horiz-adv-x="2314" d="" unicode=" " />
<glyph horiz-adv-x="410" d="" unicode=" " />
<glyph horiz-adv-x="1155" d="M 92 739 L 1063 739 L 1063 537 L 92 537 L 92 739 Z" unicode="‒" />
<glyph horiz-adv-x="1165" d="M 96 739 L 1067 739 L 1067 537 L 96 537 L 96 739 Z" unicode="–" />
<glyph horiz-adv-x="1573" d="M 94 739 L 1477 739 L 1477 537 L 94 537 L 94 739 Z" unicode="—" />
<glyph horiz-adv-x="2048" d="M 0 723 L 2048 723 L 2048 545 L 0 545 L 0 723 Z" unicode="―" />
<glyph horiz-adv-x="498" d="M 125 1268 L 244 1516 L 354 1516 L 283 1286 L 371 1286 L 371 1024 L 125 1024 L 125 1268 Z" unicode="‘" />
<glyph horiz-adv-x="498" d="M 215 1253 L 125 1253 L 125 1516 L 371 1516 L 371 1272 L 254 1024 L 143 1024 L 215 1253 Z" unicode="’" />
<glyph horiz-adv-x="498" d="M 215 0 L 125 0 L 125 262 L 371 262 L 371 18 L 254 -229 L 143 -229 L 215 0 Z" unicode="‚" />
<glyph horiz-adv-x="899" d="M 528 1268 L 645 1516 L 754 1516 L 684 1286 L 772 1286 L 772 1024 L 528 1024 L 528 1268 Z M 125 1268 L 244 1516 L 354 1516 L 283 1286 L 371 1286 L 371 1024 L 125 1024 L 125 1268 Z" unicode="“" />
<glyph horiz-adv-x="899" d="M 616 1253 L 528 1253 L 528 1516 L 772 1516 L 772 1272 L 655 1024 L 545 1024 L 616 1253 Z M 215 1253 L 125 1253 L 125 1516 L 371 1516 L 371 1272 L 254 1024 L 143 1024 L 215 1253 Z" unicode="”" />
<glyph horiz-adv-x="899" d="M 616 0 L 528 0 L 528 262 L 772 262 L 772 18 L 655 -229 L 545 -229 L 616 0 Z M 215 0 L 125 0 L 125 262 L 371 262 L 371 18 L 254 -229 L 143 -229 L 215 0 Z" unicode="„" />
<glyph horiz-adv-x="432" d="" unicode=" " />
<glyph horiz-adv-x="608" d="M 164 1516 L 449 1516 L 397 434 L 217 434 L 164 1516 Z M 176 248 L 438 248 L 438 0 L 176 0 L 176 248 Z" unicode="!" />
<glyph horiz-adv-x="793" d="M 467 1395 L 467 1516 L 674 1516 L 674 1395 L 645 983 L 496 983 L 467 1395 Z M 119 1395 L 119 1516 L 328 1516 L 328 1395 L 299 983 L 147 983 L 119 1395 Z" unicode="&#x22;" />
<glyph horiz-adv-x="1294" d="M 248 418 L 53 418 L 53 602 L 281 602 L 336 913 L 129 913 L 129 1098 L 371 1098 L 444 1516 L 655 1516 L 582 1098 L 821 1098 L 895 1516 L 1106 1516 L 1032 1098 L 1241 1098 L 1241 913 L 999 913 L 942 602 L 1165 602 L 1165 418 L 909 418 L 838 0 L 625 0 L 698 418 L 461 418 L 387 0 L 174 0 L 248 418 Z M 731 598 L 788 918 L 549 918 L 492 598 L 731 598 Z" unicode="#" />
<glyph horiz-adv-x="1165" d="M 494 2 C 434 10 382 25 337 47 C 292 69 253 96 220 129 C 186 162 158 200 135 242 C 111 284 92 329 76 377 L 281 440 C 306 377 336 325 371 283 C 405 241 449 213 502 199 L 502 690 C 455 709 409 730 364 754 C 318 777 278 805 242 838 C 206 871 178 911 156 958 C 134 1004 123 1061 123 1128 C 123 1180 131 1228 148 1273 C 165 1317 189 1356 221 1390 C 253 1424 292 1452 338 1474 C 384 1496 436 1510 494 1518 L 494 1677 L 666 1677 L 666 1516 C 716 1508 761 1494 800 1474 C 838 1454 872 1430 902 1401 C 931 1372 956 1339 978 1302 C 999 1265 1018 1226 1034 1184 L 836 1102 C 814 1155 789 1199 761 1234 C 732 1268 698 1293 659 1309 L 659 862 C 691 848 724 834 757 820 C 789 805 821 789 852 771 C 882 753 911 732 937 710 C 963 688 986 662 1006 633 C 1025 603 1040 570 1052 533 C 1063 495 1069 453 1069 406 C 1069 351 1060 300 1043 254 C 1025 208 1000 167 966 131 C 932 95 889 66 839 44 C 789 21 731 6 666 0 L 666 -190 L 494 -190 L 494 2 Z M 502 1319 C 452 1309 414 1289 388 1258 C 362 1226 350 1189 350 1145 C 350 1119 353 1095 361 1075 C 369 1055 379 1036 393 1019 C 406 1002 422 987 441 973 C 459 959 480 946 502 934 L 502 1319 Z M 659 193 C 685 197 709 205 731 215 C 753 225 773 237 789 253 C 805 269 817 288 826 310 C 835 332 840 357 840 385 C 840 414 835 440 826 463 C 816 486 804 507 788 526 C 772 544 753 561 731 576 C 709 591 685 605 659 618 L 659 193 Z" unicode="$" />
<glyph horiz-adv-x="1800" d="M 397 580 C 293 580 212 620 156 700 C 100 780 72 900 72 1059 C 72 1216 100 1335 157 1416 C 213 1497 293 1538 397 1538 C 501 1538 581 1497 637 1417 C 693 1337 721 1217 721 1059 C 721 900 693 780 637 700 C 581 620 501 580 397 580 Z M 1186 1516 L 1382 1516 L 612 0 L 416 0 L 1186 1516 Z M 1405 -18 C 1301 -18 1220 22 1164 102 C 1107 182 1079 302 1079 461 C 1079 618 1107 737 1164 817 C 1220 897 1301 938 1405 938 C 1508 938 1587 897 1643 817 C 1698 737 1726 618 1726 461 C 1726 302 1698 182 1643 102 C 1587 22 1508 -18 1405 -18 Z M 397 756 C 421 756 441 761 457 773 C 473 785 487 803 497 827 C 507 851 514 883 519 921 C 523 959 526 1005 526 1059 C 526 1112 523 1158 518 1196 C 513 1234 505 1265 495 1289 C 484 1313 471 1331 455 1343 C 439 1354 419 1360 397 1360 C 373 1360 353 1354 337 1343 C 321 1331 307 1314 297 1290 C 287 1266 279 1235 275 1197 C 270 1159 268 1113 268 1059 C 268 1005 270 959 275 921 C 280 883 288 851 298 827 C 308 802 322 784 338 773 C 354 761 374 756 397 756 Z M 1405 156 C 1451 156 1484 180 1504 228 C 1524 276 1534 353 1534 461 C 1534 566 1523 642 1503 689 C 1482 736 1449 760 1405 760 C 1381 760 1360 754 1344 743 C 1327 731 1313 714 1303 690 C 1293 666 1285 635 1281 597 C 1276 559 1274 514 1274 461 C 1274 353 1284 276 1305 228 C 1325 180 1359 156 1405 156 Z" unicode="%" />
<glyph horiz-adv-x="1300" d="M 518 -29 C 444 -29 377 -20 319 -2 C 260 15 210 40 170 73 C 129 106 98 146 77 194 C 55 242 45 296 45 356 C 45 413 53 465 69 511 C 85 557 106 598 134 636 C 162 673 194 707 230 737 C 266 767 304 795 344 821 C 316 879 294 937 278 997 C 262 1056 254 1117 254 1180 C 254 1233 261 1282 277 1327 C 293 1371 316 1410 346 1442 C 376 1474 414 1499 458 1517 C 502 1535 552 1544 608 1544 C 664 1544 713 1535 754 1519 C 794 1502 827 1480 853 1452 C 879 1424 898 1392 910 1356 C 922 1320 928 1282 928 1243 C 928 1189 919 1140 901 1096 C 883 1052 860 1013 831 977 C 801 941 767 907 729 877 C 691 847 651 818 610 791 C 624 765 640 741 656 717 C 672 693 688 668 705 643 C 735 601 765 560 795 520 C 825 480 855 444 887 410 C 911 460 931 515 947 577 C 962 638 973 703 979 772 L 1184 772 C 1173 683 1156 597 1133 513 C 1110 429 1079 353 1040 285 C 1119 221 1198 188 1276 184 L 1276 -20 C 1204 -18 1137 -6 1077 15 C 1016 37 957 69 901 111 C 853 67 797 32 734 8 C 671 -16 599 -29 518 -29 Z M 535 938 C 561 956 586 976 609 997 C 632 1017 652 1039 669 1062 C 686 1085 700 1110 710 1137 C 720 1163 725 1193 725 1225 C 725 1243 723 1261 719 1277 C 715 1293 708 1308 699 1320 C 689 1332 677 1341 663 1348 C 648 1354 630 1358 610 1358 C 566 1358 532 1343 508 1315 C 484 1286 473 1245 473 1192 C 473 1150 478 1108 489 1067 C 500 1026 515 983 535 938 Z M 526 158 C 570 158 610 164 648 176 C 686 188 720 208 750 236 C 714 274 679 317 644 363 C 609 409 573 458 535 512 C 517 536 500 561 483 586 C 465 610 448 636 432 664 C 386 626 348 583 319 537 C 290 491 276 439 276 381 C 276 349 281 320 291 293 C 301 266 316 243 336 223 C 356 203 382 187 414 175 C 445 163 482 158 526 158 Z" unicode="&#x26;" />
<glyph horiz-adv-x="451" d="M 119 1395 L 119 1516 L 330 1516 L 330 1395 L 301 983 L 147 983 L 119 1395 Z" unicode="'" />
<glyph horiz-adv-x="725" d="M 524 -420 C 456 -353 395 -283 341 -209 C 287 -135 241 -58 203 24 C 165 106 136 192 116 282 C 96 372 86 467 86 567 C 86 665 96 760 116 850 C 136 940 165 1025 203 1107 C 241 1189 287 1266 341 1340 C 395 1414 456 1484 524 1552 L 662 1446 C 612 1386 567 1323 527 1256 C 486 1188 451 1118 422 1044 C 392 970 370 893 354 813 C 338 733 330 651 330 567 C 330 481 338 398 354 316 C 370 234 392 156 422 82 C 451 7 486 -63 527 -130 C 568 -197 614 -259 664 -315 L 524 -420 L 524 -420 Z" unicode="(" />
<glyph horiz-adv-x="725" d="M 61 -315 C 111 -255 156 -192 197 -125 C 238 -58 273 12 303 86 C 332 160 355 237 371 317 C 387 397 395 479 395 565 C 395 649 387 732 371 814 C 355 895 332 973 303 1048 C 274 1122 239 1193 199 1260 C 158 1327 113 1389 63 1446 L 201 1552 C 269 1485 330 1415 384 1341 C 438 1267 484 1190 522 1108 C 560 1026 589 939 609 849 C 629 759 639 664 639 565 C 639 466 629 372 609 282 C 589 192 560 106 522 24 C 484 -57 438 -135 384 -209 C 330 -283 269 -353 201 -420 L 61 -315 Z" unicode=")" />
<glyph horiz-adv-x="967" d="M 205 797 L 395 1067 L 68 1040 L 68 1196 L 401 1167 C 400 1167 397 1172 391 1180 C 385 1188 377 1199 368 1212 C 358 1225 348 1240 336 1256 C 324 1272 313 1289 301 1307 C 273 1347 241 1392 205 1442 L 346 1526 L 483 1221 L 623 1526 L 762 1442 L 569 1167 L 899 1196 L 899 1040 L 569 1067 L 762 797 L 623 715 L 483 1016 L 346 715 L 205 797 Z" unicode="*" />
<glyph horiz-adv-x="1126" d="M 463 590 L 104 590 L 104 784 L 463 784 L 463 1204 L 664 1204 L 664 784 L 1022 784 L 1022 590 L 664 590 L 664 172 L 463 172 L 463 590 Z" unicode="+" />
<glyph horiz-adv-x="494" d="M 219 0 L 121 0 L 121 262 L 371 262 L 371 27 L 258 -219 L 147 -219 L 219 0 Z" unicode="," />
<glyph horiz-adv-x="639" d="M 90 729 L 549 729 L 549 549 L 90 549 L 90 729 Z" unicode="-" />
<glyph horiz-adv-x="494" d="M 121 262 L 371 262 L 371 0 L 121 0 L 121 262 Z" unicode="." />
<glyph horiz-adv-x="1049" d="M 778 1516 L 1018 1516 L 270 0 L 29 0 L 778 1516 Z" unicode="/" />
<glyph horiz-adv-x="1186" d="M 592 -29 C 508 -29 435 -12 371 21 C 307 55 254 105 210 171 C 166 237 133 320 111 418 C 89 516 78 629 78 758 C 78 886 89 1000 111 1098 C 133 1196 166 1278 210 1344 C 254 1410 307 1459 371 1493 C 435 1527 508 1544 592 1544 C 675 1544 749 1527 813 1493 C 877 1459 930 1410 974 1344 C 1017 1278 1050 1196 1072 1098 C 1094 1000 1106 886 1106 758 C 1106 629 1094 516 1072 418 C 1050 320 1017 237 974 171 C 930 105 877 55 813 21 C 749 -12 675 -29 592 -29 Z M 592 182 C 636 182 676 192 710 214 C 744 235 773 269 796 315 C 819 361 836 420 848 493 C 860 566 866 654 866 758 C 866 861 860 949 848 1021 C 836 1093 818 1152 795 1198 C 771 1244 743 1277 709 1298 C 675 1318 636 1329 592 1329 C 546 1329 507 1318 473 1298 C 439 1277 410 1244 387 1198 C 363 1152 346 1093 334 1021 C 322 949 317 861 317 758 C 317 654 323 566 335 493 C 347 420 364 361 388 315 C 412 269 441 235 475 214 C 509 192 548 182 592 182 Z" unicode="0" />
<glyph horiz-adv-x="807" d="M 74 207 L 313 207 L 313 1276 C 297 1266 279 1256 260 1248 C 240 1240 220 1232 200 1226 C 179 1220 158 1215 137 1211 C 116 1207 96 1206 78 1206 L 78 1417 C 128 1419 173 1428 214 1444 C 255 1460 290 1484 319 1516 L 547 1516 L 547 207 L 760 207 L 760 0 L 74 0 L 74 207 Z" unicode="1" />
<glyph horiz-adv-x="1059" d="M 59 33 C 59 118 68 193 88 258 C 107 323 133 381 165 432 C 197 483 233 528 273 568 C 313 608 355 645 398 679 C 440 713 482 745 522 777 C 562 808 599 841 631 876 C 663 910 688 948 708 989 C 727 1030 737 1077 737 1130 C 737 1195 720 1244 688 1278 C 655 1312 607 1329 545 1329 C 485 1329 432 1309 388 1269 C 343 1229 305 1172 274 1098 L 78 1184 C 100 1238 127 1288 158 1332 C 188 1376 223 1414 263 1446 C 302 1477 346 1501 395 1518 C 444 1535 499 1544 559 1544 C 625 1544 684 1534 735 1514 C 786 1494 829 1467 864 1431 C 899 1395 926 1353 944 1304 C 962 1254 971 1200 971 1141 C 971 1079 961 1024 943 974 C 925 924 901 879 871 838 C 841 796 808 758 770 724 C 732 689 693 656 653 624 C 613 592 573 560 535 530 C 497 499 462 467 432 434 C 402 401 377 366 359 329 C 340 292 330 251 330 207 L 971 207 L 971 0 L 59 0 L 59 33 Z" unicode="2" />
<glyph horiz-adv-x="1075" d="M 514 -27 C 446 -27 385 -18 333 -2 C 280 14 234 38 194 68 C 154 98 119 133 91 175 C 62 216 38 261 18 311 L 219 399 C 235 359 253 324 273 296 C 293 267 314 244 338 226 C 361 208 386 194 414 186 C 441 178 471 174 504 174 C 544 174 580 180 612 192 C 644 204 671 220 693 242 C 715 264 731 290 743 320 C 754 350 760 384 760 422 C 760 518 731 588 675 634 C 618 679 528 702 406 702 L 344 702 L 344 895 L 432 895 C 487 895 533 900 571 911 C 609 921 639 937 662 958 C 685 979 702 1005 712 1036 C 722 1067 727 1103 727 1143 C 727 1171 723 1196 716 1220 C 708 1243 696 1263 680 1280 C 664 1297 643 1310 617 1320 C 591 1330 559 1335 522 1335 C 463 1335 411 1320 367 1291 C 322 1262 282 1223 248 1174 L 80 1288 C 106 1326 135 1360 167 1392 C 199 1423 235 1450 274 1473 C 313 1495 355 1513 400 1525 C 445 1537 493 1544 545 1544 C 613 1544 672 1534 724 1515 C 776 1496 819 1470 854 1436 C 889 1402 916 1363 934 1317 C 952 1271 961 1221 961 1167 C 961 1120 954 1077 942 1039 C 930 1000 913 965 892 935 C 870 905 845 879 816 858 C 787 836 756 820 723 809 C 763 795 799 778 832 756 C 865 734 894 707 918 675 C 942 643 960 605 973 563 C 986 520 993 472 993 418 C 993 350 981 288 958 234 C 934 179 902 132 860 94 C 818 55 767 25 709 4 C 650 -16 585 -27 514 -27 Z" unicode="3" />
<glyph horiz-adv-x="1135" d="M 657 322 L 43 322 L 43 508 L 627 1516 L 889 1516 L 889 528 L 1100 528 L 1100 322 L 889 322 L 889 0 L 657 0 L 657 322 Z M 662 528 L 662 1192 L 659 1192 L 283 528 L 662 528 Z" unicode="4" />
<glyph horiz-adv-x="1061" d="M 524 -29 C 460 -29 404 -21 355 -6 C 305 9 261 31 222 59 C 183 87 149 120 119 160 C 89 199 63 243 41 291 L 238 383 C 270 317 307 265 351 228 C 395 190 449 172 514 172 C 558 172 597 179 629 195 C 661 211 687 233 708 262 C 729 290 745 325 755 365 C 765 405 770 449 770 498 C 770 550 764 596 753 636 C 742 675 726 708 706 734 C 685 760 660 780 631 793 C 601 806 568 813 532 813 C 478 813 431 800 391 776 C 351 751 315 715 285 668 L 113 707 L 162 1516 L 922 1516 L 909 1303 L 354 1303 L 324 874 C 350 913 386 945 432 970 C 478 995 535 1008 604 1008 C 666 1008 722 997 772 975 C 822 953 864 921 898 879 C 932 836 959 783 977 721 C 995 659 1004 587 1004 506 C 1004 422 993 347 971 281 C 949 215 918 159 877 113 C 835 67 785 31 726 7 C 666 -16 599 -29 524 -29 Z" unicode="5" />
<glyph horiz-adv-x="1106" d="M 580 -29 C 503 -29 434 -13 372 17 C 310 48 258 95 214 158 C 170 221 137 300 113 396 C 89 491 78 603 78 731 C 78 859 89 974 113 1075 C 137 1175 171 1260 216 1330 C 261 1399 317 1452 383 1489 C 449 1525 524 1544 610 1544 C 662 1544 709 1537 750 1524 C 791 1510 827 1493 858 1471 C 889 1449 916 1425 939 1398 C 962 1370 982 1343 999 1315 L 813 1202 C 801 1220 789 1237 776 1254 C 762 1270 747 1285 730 1298 C 713 1311 694 1321 673 1329 C 652 1337 628 1341 602 1341 C 554 1341 513 1329 477 1306 C 441 1282 411 1248 387 1203 C 363 1158 344 1103 331 1038 C 318 973 311 899 309 817 C 354 862 404 898 460 925 C 516 951 577 965 643 965 C 709 965 768 953 819 931 C 869 908 912 876 946 834 C 980 792 1006 741 1024 681 C 1042 621 1051 555 1051 481 C 1051 407 1040 338 1019 276 C 997 214 966 160 926 115 C 886 69 836 34 778 9 C 720 -16 654 -29 580 -29 Z M 592 170 C 668 170 725 196 764 248 C 803 300 823 375 823 473 C 823 515 819 554 811 590 C 803 625 791 655 774 681 C 756 706 733 726 704 740 C 674 754 638 762 596 762 C 539 762 487 751 440 729 C 392 707 349 673 309 627 C 314 546 324 477 339 419 C 353 361 372 314 396 277 C 420 240 448 213 481 196 C 513 178 550 170 592 170 Z" unicode="6" />
<glyph horiz-adv-x="963" d="M 674 1303 L 49 1303 L 49 1516 L 922 1516 L 922 1323 L 406 0 L 162 0 L 674 1303 Z" unicode="7" />
<glyph horiz-adv-x="1104" d="M 553 -33 C 469 -33 396 -22 334 -2 C 271 17 219 46 177 82 C 135 118 103 160 82 209 C 61 258 51 311 51 369 C 51 419 59 465 75 505 C 91 545 114 581 142 614 C 170 646 204 676 243 703 C 281 730 323 756 367 780 C 329 802 295 827 264 853 C 232 879 205 908 183 940 C 160 971 142 1006 130 1044 C 117 1082 111 1126 111 1174 C 111 1222 120 1269 138 1314 C 156 1359 184 1399 221 1434 C 257 1468 303 1496 359 1517 C 414 1537 479 1548 553 1548 C 629 1548 694 1537 750 1517 C 805 1496 851 1468 887 1434 C 923 1400 949 1360 967 1316 C 984 1271 993 1224 993 1176 C 993 1132 987 1093 975 1059 C 963 1024 946 992 924 963 C 902 934 875 907 844 883 C 812 859 777 835 739 813 C 783 788 825 762 863 734 C 901 706 935 675 963 640 C 991 605 1013 566 1029 522 C 1045 478 1053 429 1053 373 C 1053 314 1041 260 1019 210 C 996 160 963 118 920 82 C 877 46 825 17 763 -2 C 701 -22 631 -33 553 -33 Z M 567 897 C 599 915 627 934 651 952 C 675 970 696 990 713 1011 C 729 1031 742 1053 751 1077 C 759 1101 764 1127 764 1157 C 764 1181 760 1206 752 1230 C 744 1254 732 1275 716 1294 C 700 1312 678 1327 652 1339 C 625 1350 593 1356 555 1356 C 518 1356 486 1350 460 1340 C 433 1329 411 1315 393 1297 C 375 1279 362 1258 354 1235 C 346 1211 342 1187 342 1161 C 342 1130 347 1102 357 1078 C 367 1054 382 1031 402 1011 C 422 990 445 970 473 952 C 501 934 532 915 567 897 Z M 551 154 C 592 154 629 159 662 171 C 694 183 722 199 744 220 C 766 240 783 265 795 293 C 807 321 813 353 813 387 C 813 421 806 453 794 481 C 781 509 763 535 739 559 C 715 583 686 607 652 629 C 618 651 579 673 537 696 C 498 673 463 650 433 628 C 402 606 376 582 354 558 C 332 534 316 508 304 480 C 292 452 287 421 287 387 C 287 353 293 322 305 294 C 317 266 334 241 357 220 C 379 199 407 183 440 171 C 472 159 509 154 551 154 Z" unicode="8" />
<glyph horiz-adv-x="1106" d="M 500 -29 C 446 -29 397 -22 355 -8 C 313 5 275 23 243 45 C 211 67 183 93 159 121 C 135 149 115 179 98 209 L 283 322 C 295 303 309 285 323 267 C 337 249 354 232 372 218 C 390 204 409 192 431 183 C 453 174 478 170 506 170 C 552 170 593 181 629 205 C 665 229 695 263 719 309 C 743 354 762 409 775 475 C 788 540 795 614 797 698 C 753 652 702 616 646 590 C 590 564 529 551 463 551 C 397 551 338 562 288 585 C 237 607 194 640 160 682 C 125 724 99 774 81 834 C 63 893 55 960 55 1034 C 55 1108 66 1176 88 1238 C 110 1300 141 1354 182 1400 C 223 1445 273 1480 331 1506 C 389 1531 455 1544 528 1544 C 606 1544 675 1528 737 1497 C 799 1465 851 1418 894 1355 C 937 1292 970 1213 993 1118 C 1016 1023 1028 912 1028 784 C 1028 655 1016 540 994 440 C 971 339 937 254 893 184 C 848 114 793 61 727 25 C 661 -10 586 -29 500 -29 Z M 514 754 C 570 754 621 765 667 787 C 713 809 757 843 797 889 C 792 969 782 1037 768 1095 C 753 1152 734 1199 710 1235 C 686 1271 657 1298 625 1315 C 593 1332 556 1341 516 1341 C 438 1341 380 1315 341 1265 C 302 1214 283 1140 283 1042 C 283 999 286 960 294 925 C 302 889 315 859 333 834 C 351 808 374 789 404 775 C 434 761 470 754 514 754 Z" unicode="9" />
<glyph horiz-adv-x="506" d="M 127 1085 L 377 1085 L 377 823 L 127 823 L 127 1085 Z M 127 262 L 377 262 L 377 0 L 127 0 L 127 262 Z" unicode=":" />
<glyph horiz-adv-x="506" d="M 127 1085 L 377 1085 L 377 823 L 127 823 L 127 1085 Z M 223 0 L 127 0 L 127 262 L 377 262 L 377 31 L 262 -219 L 152 -219 L 223 0 Z" unicode=";" />
<glyph horiz-adv-x="1176" d="M 123 586 L 123 741 L 1044 1194 L 1044 989 L 358 664 L 1044 338 L 1044 133 L 123 586 Z" unicode="&#x3C;" />
<glyph horiz-adv-x="1126" d="M 125 985 L 1001 985 L 1001 803 L 125 803 L 125 985 Z M 125 532 L 1001 532 L 1001 350 L 125 350 L 125 532 Z" unicode="=" />
<glyph horiz-adv-x="1176" d="M 133 338 L 817 664 L 133 989 L 133 1194 L 1055 741 L 1055 586 L 133 133 L 133 338 Z" unicode="&#x3E;" />
<glyph horiz-adv-x="991" d="M 360 432 C 358 453 356 474 356 494 C 356 514 356 534 356 555 C 356 598 361 637 371 671 C 381 705 395 737 413 765 C 430 793 450 818 473 842 C 495 866 519 889 545 913 C 567 933 587 952 605 971 C 623 989 638 1009 651 1029 C 663 1049 673 1070 680 1093 C 686 1116 690 1142 690 1171 C 690 1225 674 1266 643 1296 C 612 1326 568 1341 510 1341 C 480 1341 453 1335 428 1324 C 403 1313 380 1298 359 1280 C 338 1261 319 1239 302 1215 C 285 1190 270 1164 258 1137 L 66 1217 C 86 1265 111 1310 141 1350 C 170 1390 203 1424 241 1453 C 279 1481 321 1504 368 1520 C 415 1536 467 1544 524 1544 C 588 1544 645 1534 694 1516 C 743 1498 784 1473 817 1441 C 850 1409 875 1372 892 1329 C 909 1286 918 1240 918 1190 C 918 1142 912 1099 901 1063 C 890 1027 875 994 857 966 C 838 938 817 912 793 888 C 769 864 745 841 721 819 C 687 787 659 758 638 734 C 617 709 601 683 589 655 C 577 627 569 596 565 562 C 561 527 559 484 559 432 L 360 432 Z M 326 250 L 590 250 L 590 0 L 326 0 L 326 250 Z" unicode="?" />
<glyph horiz-adv-x="1534" d="M 762 -29 C 656 -29 561 -11 477 23 C 392 57 320 108 260 175 C 200 241 154 323 122 421 C 90 519 74 630 74 756 C 74 876 91 985 125 1083 C 159 1180 206 1263 268 1331 C 329 1399 402 1452 488 1489 C 573 1525 667 1544 770 1544 C 872 1544 965 1525 1050 1489 C 1134 1453 1207 1401 1268 1335 C 1328 1268 1375 1187 1409 1093 C 1443 999 1460 894 1460 778 C 1460 628 1430 514 1372 435 C 1314 356 1232 317 1126 317 C 1091 317 1060 321 1034 329 C 1008 337 985 349 966 364 C 947 378 931 395 919 415 C 906 435 896 456 889 479 C 871 457 853 437 834 419 C 815 401 794 385 772 372 C 750 358 726 348 701 340 C 675 332 648 328 618 328 C 578 328 543 335 513 351 C 482 366 456 388 435 418 C 414 447 398 483 387 525 C 376 567 371 616 373 670 C 373 751 382 825 399 891 C 415 957 439 1013 469 1060 C 499 1107 536 1143 578 1169 C 620 1195 667 1208 719 1208 C 769 1208 810 1197 843 1177 C 875 1157 903 1130 926 1098 L 936 1190 L 1116 1190 L 1040 590 C 1032 534 1038 493 1058 468 C 1077 442 1109 430 1153 430 C 1179 430 1204 436 1227 449 C 1250 461 1270 482 1287 510 C 1303 538 1316 573 1326 617 C 1336 661 1341 714 1341 776 C 1341 878 1327 970 1299 1052 C 1271 1134 1232 1203 1182 1260 C 1131 1317 1070 1361 1000 1391 C 930 1421 852 1436 768 1436 C 682 1436 604 1420 534 1390 C 464 1360 403 1316 353 1258 C 303 1200 264 1129 236 1045 C 208 961 195 865 195 758 C 195 644 208 545 236 460 C 263 375 302 304 352 247 C 402 190 462 147 532 119 C 602 90 680 76 766 76 C 832 76 896 84 957 100 C 1018 116 1074 139 1124 170 L 1176 82 C 1149 64 1119 49 1087 35 C 1054 21 1020 9 984 0 C 948 -9 912 -16 874 -21 C 836 -26 799 -29 762 -29 Z M 684 479 C 716 479 745 486 773 502 C 800 518 828 541 856 571 L 907 967 C 885 995 862 1016 838 1030 C 814 1044 786 1051 754 1051 C 724 1051 698 1042 674 1024 C 650 1006 630 982 614 950 C 597 918 584 880 574 836 C 564 792 559 743 559 690 C 557 618 567 564 587 530 C 607 496 640 479 684 479 Z" unicode="@" />
<glyph horiz-adv-x="1194" d="M 264 0 L 39 0 L 481 1522 L 713 1522 L 1155 0 L 913 0 L 815 362 L 365 362 L 264 0 Z M 709 758 C 697 800 685 840 675 878 C 665 916 655 952 645 988 C 635 1023 626 1058 618 1092 C 610 1126 602 1162 594 1198 L 590 1198 C 582 1162 573 1126 564 1092 C 555 1057 546 1022 536 987 C 526 952 516 916 506 879 C 496 841 485 802 473 760 L 422 573 L 758 573 L 709 758 Z" unicode="A" />
<glyph horiz-adv-x="1212" d="M 141 1516 L 621 1516 C 687 1516 748 1509 805 1496 C 861 1482 911 1461 953 1431 C 995 1401 1027 1362 1051 1314 C 1075 1266 1087 1207 1087 1137 C 1087 1082 1080 1035 1066 995 C 1052 955 1035 921 1013 893 C 991 865 967 843 940 826 C 912 809 885 796 858 788 L 858 784 C 893 776 927 763 959 746 C 991 729 1019 706 1044 677 C 1068 648 1088 612 1102 569 C 1116 525 1124 474 1124 414 C 1124 342 1111 280 1086 228 C 1061 176 1027 133 984 99 C 940 65 890 40 832 24 C 774 8 712 0 647 0 L 141 0 L 141 1516 Z M 604 874 C 645 874 681 877 713 884 C 745 891 771 903 793 920 C 814 936 830 958 841 985 C 852 1011 858 1045 858 1085 C 858 1125 853 1158 843 1186 C 833 1214 819 1236 799 1254 C 779 1271 753 1283 721 1291 C 689 1299 652 1303 608 1303 L 379 1303 L 379 874 L 604 874 Z M 635 205 C 725 205 790 225 831 265 C 872 305 893 365 893 446 C 893 490 886 528 874 558 C 862 588 844 612 820 630 C 796 648 766 660 731 668 C 696 676 656 680 612 680 L 379 680 L 379 205 L 635 205 Z" unicode="B" />
<glyph horiz-adv-x="1221" d="M 641 -27 C 555 -27 478 -11 409 21 C 340 53 281 101 233 166 C 184 231 146 313 120 412 C 93 510 80 626 80 760 C 80 890 93 1005 121 1103 C 148 1201 186 1283 236 1348 C 286 1413 345 1462 415 1495 C 484 1527 561 1544 645 1544 C 721 1544 788 1532 844 1508 C 900 1484 948 1450 987 1406 C 1026 1362 1058 1309 1082 1248 C 1106 1186 1124 1118 1137 1044 L 911 1004 C 901 1058 888 1104 874 1144 C 859 1184 841 1217 819 1243 C 797 1269 772 1288 743 1300 C 713 1312 679 1319 639 1319 C 534 1319 455 1271 402 1176 C 348 1080 322 942 322 762 C 322 572 349 430 403 334 C 457 238 537 190 643 190 C 683 190 718 196 748 208 C 778 220 805 240 828 267 C 851 293 871 328 887 371 C 903 413 918 465 930 526 L 1153 489 C 1139 415 1118 346 1092 283 C 1066 220 1032 166 991 120 C 950 74 901 38 843 12 C 785 -14 718 -27 641 -27 Z" unicode="C" />
<glyph horiz-adv-x="1255" d="M 141 1516 L 506 1516 C 609 1516 702 1502 785 1476 C 867 1450 938 1407 996 1348 C 1054 1288 1098 1211 1129 1115 C 1160 1019 1176 901 1176 762 C 1176 621 1160 502 1128 405 C 1096 308 1051 230 993 170 C 935 110 864 66 782 40 C 700 13 608 0 506 0 L 141 0 L 141 1516 Z M 532 215 C 602 215 663 224 714 244 C 764 264 806 295 838 339 C 870 383 894 439 909 509 C 924 578 932 662 932 762 C 932 858 924 939 909 1007 C 894 1075 870 1130 838 1172 C 805 1214 763 1245 713 1265 C 662 1284 601 1294 530 1294 L 383 1294 L 383 215 L 532 215 Z" unicode="D" />
<glyph horiz-adv-x="1059" d="M 141 1516 L 963 1516 L 963 1292 L 383 1292 L 383 903 L 803 903 L 803 686 L 383 686 L 383 217 L 993 217 L 993 0 L 141 0 L 141 1516 Z" unicode="E" />
<glyph horiz-adv-x="995" d="M 141 1516 L 948 1516 L 948 1292 L 383 1292 L 383 883 L 793 883 L 793 666 L 383 666 L 383 0 L 141 0 L 141 1516 Z" unicode="F" />
<glyph horiz-adv-x="1276" d="M 618 -27 C 531 -27 454 -9 388 26 C 321 61 265 112 219 180 C 173 248 139 330 115 428 C 91 526 80 637 80 762 C 80 886 92 996 118 1093 C 143 1189 180 1271 228 1338 C 276 1405 336 1456 406 1491 C 476 1526 555 1544 645 1544 C 715 1544 777 1533 831 1512 C 885 1491 932 1460 972 1418 C 1012 1376 1045 1323 1072 1261 C 1098 1199 1119 1126 1135 1044 L 915 999 C 903 1057 889 1107 873 1148 C 857 1188 837 1221 815 1247 C 793 1273 767 1291 738 1303 C 709 1315 676 1321 639 1321 C 593 1321 551 1311 513 1291 C 474 1271 440 1239 412 1195 C 384 1151 362 1093 346 1023 C 330 953 322 867 322 766 C 322 661 329 572 345 499 C 360 426 382 367 410 321 C 438 275 473 241 513 221 C 553 200 599 190 649 190 C 733 190 800 219 850 277 C 900 335 928 425 936 549 L 682 549 L 682 750 L 1153 750 L 1153 0 L 971 0 L 971 201 L 967 201 C 957 173 942 146 922 119 C 902 92 877 68 848 46 C 818 24 784 7 746 -6 C 708 -20 665 -27 618 -27 Z" unicode="G" />
<glyph horiz-adv-x="1298" d="M 141 1516 L 383 1516 L 383 907 L 915 907 L 915 1516 L 1157 1516 L 1157 0 L 915 0 L 915 684 L 383 684 L 383 0 L 141 0 L 141 1516 Z" unicode="H" />
<glyph horiz-adv-x="547" d="M 152 1516 L 393 1516 L 393 0 L 152 0 L 152 1516 Z" unicode="I" />
<glyph horiz-adv-x="909" d="M 401 -23 C 333 -23 266 -12 202 7 C 138 27 80 56 29 94 L 131 270 C 168 244 208 224 252 208 C 296 192 337 184 377 184 C 427 184 467 199 497 229 C 527 259 543 307 543 375 L 543 1516 L 784 1516 L 784 360 C 784 238 751 143 686 77 C 620 10 525 -23 401 -23 Z" unicode="J" />
<glyph horiz-adv-x="1202" d="M 141 1516 L 381 1516 L 381 788 C 387 799 395 814 406 832 C 417 850 429 869 442 890 C 455 910 469 931 483 953 C 497 974 511 994 524 1014 L 862 1516 L 1120 1516 L 707 924 L 1178 0 L 918 0 L 553 719 L 381 483 L 381 0 L 141 0 L 141 1516 Z" unicode="K" />
<glyph horiz-adv-x="1020" d="M 141 1516 L 383 1516 L 383 217 L 967 217 L 967 0 L 141 0 L 141 1516 Z" unicode="L" />
<glyph horiz-adv-x="1538" d="M 141 1516 L 446 1516 L 770 336 L 774 336 L 1087 1516 L 1395 1516 L 1395 0 L 1165 0 L 1165 1153 L 1161 1153 C 1157 1127 1152 1098 1145 1066 C 1138 1034 1130 1000 1122 966 C 1113 932 1104 898 1095 865 C 1085 831 1077 801 1069 774 L 850 0 L 668 0 L 449 776 C 441 799 433 827 425 860 C 416 893 407 927 399 963 C 390 998 382 1033 374 1067 C 366 1101 360 1131 356 1157 L 352 1157 L 352 0 L 141 0 L 141 1516 Z" unicode="M" />
<glyph horiz-adv-x="1309" d="M 141 1516 L 401 1516 L 813 711 C 825 686 837 663 847 643 C 857 623 867 603 877 583 C 887 563 897 542 907 520 C 917 498 929 474 942 446 L 946 446 L 946 1516 L 1165 1516 L 1165 0 L 942 0 L 492 856 C 479 880 468 901 458 921 C 448 940 438 959 429 978 C 419 997 409 1017 399 1038 C 389 1059 377 1084 365 1112 L 360 1112 L 360 0 L 141 0 L 141 1516 Z" unicode="N" />
<glyph horiz-adv-x="1309" d="M 655 -29 C 574 -29 499 -12 429 20 C 359 52 298 101 246 167 C 194 232 154 314 124 412 C 94 510 80 626 80 758 C 80 889 94 1004 124 1102 C 154 1200 194 1282 246 1348 C 298 1413 359 1462 429 1495 C 499 1527 574 1544 655 1544 C 735 1544 810 1527 880 1495 C 950 1462 1010 1413 1062 1348 C 1114 1282 1154 1200 1184 1102 C 1214 1004 1229 889 1229 758 C 1229 626 1214 510 1184 412 C 1154 314 1114 232 1062 167 C 1010 101 950 52 880 20 C 810 -12 735 -29 655 -29 Z M 655 190 C 760 190 841 238 899 335 C 956 431 985 572 985 758 C 985 942 956 1081 898 1177 C 840 1273 759 1321 655 1321 C 549 1321 467 1273 409 1177 C 351 1081 322 942 322 758 C 322 572 351 431 409 335 C 467 238 549 190 655 190 Z" unicode="O" />
<glyph horiz-adv-x="1153" d="M 141 1516 L 582 1516 C 651 1516 716 1507 777 1491 C 837 1474 890 1447 935 1410 C 979 1373 1014 1325 1040 1266 C 1066 1206 1079 1134 1079 1049 C 1079 957 1065 880 1037 819 C 1009 757 972 708 926 671 C 879 634 825 608 764 592 C 703 576 639 569 573 569 L 379 569 L 379 0 L 141 0 L 141 1516 Z M 582 778 C 627 778 666 782 700 792 C 733 802 761 817 783 838 C 805 859 821 886 832 920 C 842 954 848 994 848 1042 C 848 1088 842 1127 832 1159 C 821 1191 805 1217 783 1237 C 761 1257 733 1271 699 1280 C 665 1289 626 1294 580 1294 L 379 1294 L 379 778 L 582 778 Z" unicode="P" />
<glyph horiz-adv-x="1309" d="M 952 -395 C 874 -395 808 -385 755 -366 C 701 -346 658 -319 625 -285 C 591 -250 567 -209 553 -162 C 538 -115 530 -64 530 -8 C 464 4 404 30 349 69 C 294 107 247 159 207 223 C 167 287 135 363 113 453 C 91 542 80 644 80 758 C 80 889 94 1004 124 1102 C 154 1200 195 1282 247 1348 C 299 1413 360 1462 430 1495 C 500 1527 576 1544 657 1544 C 737 1544 811 1527 881 1495 C 951 1462 1011 1413 1063 1348 C 1114 1282 1154 1200 1184 1102 C 1214 1004 1229 889 1229 758 C 1229 639 1217 534 1193 443 C 1169 352 1137 275 1096 211 C 1054 147 1005 97 948 60 C 890 23 828 0 762 -12 C 766 -51 775 -82 788 -106 C 800 -130 817 -148 839 -161 C 861 -173 887 -182 919 -186 C 950 -190 986 -193 1028 -193 L 1114 -193 L 1114 -395 L 952 -395 Z M 657 184 C 709 184 755 196 796 222 C 836 247 871 284 899 333 C 927 381 948 441 963 513 C 977 584 985 666 985 758 C 985 850 977 931 963 1001 C 948 1071 927 1129 899 1177 C 871 1225 836 1261 796 1285 C 755 1309 709 1321 657 1321 C 604 1321 557 1309 515 1285 C 473 1261 438 1225 410 1177 C 381 1129 359 1071 344 1001 C 329 931 322 850 322 758 C 322 666 329 584 344 513 C 359 441 381 381 410 333 C 438 284 473 247 515 222 C 557 196 604 184 657 184 Z" unicode="Q" />
<glyph horiz-adv-x="1192" d="M 141 1516 L 592 1516 C 668 1516 736 1507 796 1489 C 856 1471 908 1443 950 1405 C 992 1367 1024 1320 1046 1262 C 1068 1204 1079 1136 1079 1057 C 1079 1000 1072 949 1059 904 C 1046 858 1028 818 1005 784 C 981 750 954 721 922 698 C 890 674 855 657 817 645 L 1108 0 L 860 0 L 590 592 L 377 592 L 377 0 L 141 0 L 141 1516 Z M 582 797 C 626 797 664 801 698 810 C 731 818 759 833 781 853 C 803 873 819 899 831 932 C 842 964 848 1005 848 1053 C 848 1098 842 1136 831 1167 C 820 1198 804 1223 782 1242 C 760 1260 732 1274 699 1282 C 665 1290 626 1294 582 1294 L 377 1294 L 377 797 L 582 797 Z" unicode="R" />
<glyph horiz-adv-x="1161" d="M 598 -27 C 529 -27 467 -18 412 0 C 357 18 308 43 264 75 C 220 107 181 145 148 190 C 114 234 85 284 61 338 L 264 438 C 280 402 300 368 322 337 C 344 306 368 279 396 257 C 424 234 454 216 488 203 C 521 190 558 184 598 184 C 675 184 735 201 778 235 C 820 269 842 318 842 381 C 842 419 834 452 818 480 C 802 508 780 533 754 555 C 727 577 696 597 661 615 C 626 633 589 650 551 668 C 518 682 485 698 451 714 C 417 730 384 747 353 766 C 321 785 292 806 264 830 C 236 854 212 881 192 911 C 171 941 155 976 143 1014 C 131 1052 125 1096 125 1145 C 125 1204 136 1258 158 1307 C 180 1356 212 1398 252 1433 C 292 1468 339 1495 393 1515 C 447 1534 507 1544 571 1544 C 633 1544 690 1535 740 1519 C 790 1502 834 1479 874 1450 C 914 1420 948 1385 978 1345 C 1008 1305 1033 1261 1055 1214 L 852 1110 C 837 1142 821 1171 803 1198 C 785 1225 764 1248 742 1268 C 719 1288 693 1303 665 1314 C 636 1325 603 1331 567 1331 C 504 1331 454 1315 417 1284 C 380 1252 362 1209 362 1155 C 362 1118 369 1086 385 1058 C 400 1030 420 1006 446 984 C 472 962 501 941 535 923 C 569 905 604 887 641 870 C 674 855 708 839 742 823 C 776 807 810 789 842 770 C 874 750 905 729 933 705 C 961 681 986 654 1008 624 C 1029 593 1046 558 1058 520 C 1070 481 1077 437 1077 389 C 1077 333 1066 279 1045 229 C 1023 179 992 135 952 97 C 911 59 861 28 801 6 C 741 -15 674 -27 598 -27 Z" unicode="S" />
<glyph horiz-adv-x="1081" d="M 420 1292 L 43 1292 L 43 1516 L 1036 1516 L 1036 1292 L 662 1292 L 662 0 L 420 0 L 420 1292 Z" unicode="T" />
<glyph horiz-adv-x="1243" d="M 623 -27 C 535 -27 459 -14 396 10 C 333 34 281 70 241 117 C 201 163 171 220 153 286 C 134 352 125 426 125 510 L 125 1516 L 367 1516 L 367 532 C 367 474 371 423 381 380 C 390 337 405 301 425 273 C 445 245 472 223 505 209 C 538 195 579 188 627 188 C 673 188 713 195 746 209 C 779 223 806 244 826 272 C 846 300 861 336 871 379 C 880 421 885 471 885 528 L 885 1516 L 1116 1516 L 1116 514 C 1116 431 1106 356 1088 290 C 1069 223 1040 166 1000 119 C 960 72 908 36 846 11 C 784 -14 709 -27 623 -27 Z" unicode="U" />
<glyph horiz-adv-x="1174" d="M 39 1516 L 281 1516 L 483 748 C 493 708 503 671 513 635 C 522 599 531 563 540 528 C 549 493 558 458 566 423 C 574 388 583 352 592 315 L 596 315 C 604 352 612 388 620 423 C 628 457 637 492 646 527 C 655 561 664 596 674 632 C 684 667 694 704 705 743 L 909 1516 L 1135 1516 L 702 -6 L 471 -6 L 39 1516 Z" unicode="V" />
<glyph horiz-adv-x="1624" d="M 45 1516 L 276 1516 L 418 821 C 426 783 433 749 439 718 C 445 686 452 655 458 623 C 464 591 470 556 476 520 C 482 484 490 442 498 395 L 502 395 C 508 441 515 483 521 519 C 527 555 534 589 540 621 C 546 653 552 685 558 717 C 564 748 572 783 580 821 L 713 1516 L 928 1516 L 1067 805 C 1074 769 1081 735 1087 703 C 1093 671 1100 640 1106 608 C 1112 576 1117 542 1123 508 C 1129 473 1135 435 1141 395 L 1145 395 C 1151 434 1157 471 1163 505 C 1169 539 1175 572 1181 604 C 1187 636 1193 668 1200 700 C 1206 732 1213 767 1221 803 L 1364 1516 L 1577 1516 L 1239 -6 L 1032 -6 L 815 1104 L 811 1104 L 592 -6 L 383 -6 L 45 1516 Z" unicode="W" />
<glyph horiz-adv-x="1184" d="M 463 809 L 92 1516 L 352 1516 L 606 1008 L 850 1516 L 1083 1516 L 719 817 L 1147 0 L 891 0 L 580 618 L 272 0 L 37 0 L 463 809 Z" unicode="X" />
<glyph horiz-adv-x="1128" d="M 442 610 L 18 1516 L 266 1516 L 567 829 L 571 829 L 872 1516 L 1108 1516 L 684 612 L 684 0 L 442 0 L 442 610 Z" unicode="Y" />
<glyph horiz-adv-x="1104" d="M 55 176 L 739 1292 L 104 1292 L 104 1516 L 1030 1516 L 1030 1335 L 354 217 L 1030 217 L 1030 0 L 55 0 L 55 176 Z" unicode="Z" />
<glyph horiz-adv-x="733" d="M 129 1516 L 674 1516 L 674 1341 L 369 1341 L 369 -238 L 674 -238 L 674 -410 L 129 -410 L 129 1516 Z" unicode="[" />
<glyph horiz-adv-x="1028" d="M 18 1516 L 260 1516 L 1008 0 L 768 0 L 18 1516 Z" unicode="\" />
<glyph horiz-adv-x="733" d="M 57 -238 L 365 -238 L 365 1341 L 57 1341 L 57 1516 L 602 1516 L 602 -410 L 57 -410 L 57 -238 Z" unicode="]" />
<glyph horiz-adv-x="1176" d="M 514 1516 L 662 1516 L 1071 737 L 860 737 L 588 1268 L 317 737 L 104 737 L 514 1516 Z" unicode="^" />
<glyph horiz-adv-x="889" d="M -10 -113 L 899 -113 L 899 -289 L -10 -289 L -10 -113 Z" unicode="_" />
<glyph horiz-adv-x="948" d="M 168 1528 L 414 1528 L 578 1198 L 418 1198 L 168 1528 Z" unicode="`" />
<glyph horiz-adv-x="991" d="M 319 -12 C 281 -12 245 -6 213 6 C 181 18 153 35 130 59 C 107 83 89 112 76 146 C 63 180 57 220 57 266 C 57 380 107 475 207 550 C 307 625 456 681 653 719 L 653 766 C 653 817 642 853 621 875 C 600 896 566 907 518 907 C 488 907 458 903 430 897 C 401 890 374 881 348 870 C 322 858 297 845 274 830 C 251 814 230 798 211 782 L 94 926 C 122 952 154 977 188 999 C 222 1021 259 1041 297 1057 C 335 1073 376 1085 418 1094 C 460 1103 503 1108 547 1108 C 661 1108 746 1079 800 1021 C 854 963 881 878 881 766 L 881 266 C 881 200 883 146 887 104 C 891 62 897 28 907 0 L 676 0 C 672 10 669 19 667 29 C 664 39 662 49 660 60 C 658 70 656 82 655 94 C 653 106 653 121 653 137 C 616 89 569 53 511 27 C 453 1 389 -12 319 -12 Z M 412 172 C 462 172 507 182 547 204 C 587 226 623 253 653 285 L 653 559 C 525 531 431 496 373 454 C 314 411 285 361 285 305 C 285 259 296 226 319 204 C 341 182 372 172 412 172 Z" unicode="a" />
<glyph horiz-adv-x="1067" d="M 627 -16 C 564 -16 510 -4 466 19 C 422 42 383 75 350 117 L 350 0 L 117 0 L 117 1513 L 350 1513 L 350 952 C 366 972 383 992 403 1011 C 422 1029 444 1046 468 1060 C 492 1074 518 1086 547 1095 C 575 1103 607 1108 641 1108 C 693 1108 742 1096 786 1074 C 830 1052 868 1018 900 972 C 932 926 956 867 974 797 C 992 726 1001 642 1001 545 C 1001 447 991 362 972 292 C 953 221 927 163 894 117 C 860 71 821 38 775 16 C 729 -5 680 -16 627 -16 Z M 563 174 C 595 174 623 181 648 195 C 673 209 694 230 712 260 C 729 290 742 328 752 375 C 761 421 766 477 766 543 C 766 669 748 761 712 820 C 676 879 625 909 561 909 C 539 909 519 905 500 898 C 480 891 462 882 445 870 C 427 858 411 845 395 830 C 379 815 364 800 350 784 L 350 291 C 380 253 413 224 449 204 C 485 184 523 174 563 174 Z" unicode="b" />
<glyph horiz-adv-x="958" d="M 504 -23 C 445 -23 389 -11 336 11 C 283 33 237 68 197 115 C 157 161 125 220 101 291 C 77 362 66 446 66 543 C 66 643 78 728 104 800 C 129 872 162 930 204 976 C 246 1021 293 1054 347 1076 C 401 1097 456 1108 514 1108 C 574 1108 626 1099 670 1081 C 714 1063 751 1039 782 1008 C 812 977 837 941 857 900 C 876 858 892 814 905 768 L 696 717 C 687 749 677 778 667 802 C 656 826 643 846 628 862 C 613 878 596 889 577 897 C 557 905 535 909 510 909 C 480 909 452 902 426 889 C 400 875 377 854 359 825 C 340 795 325 757 315 711 C 304 665 299 609 299 543 C 299 422 316 330 351 266 C 386 202 439 170 510 170 C 534 170 556 173 576 180 C 596 186 615 197 631 213 C 647 229 662 249 675 275 C 687 301 698 333 707 371 L 909 319 C 895 268 877 222 855 180 C 832 138 804 102 771 72 C 738 42 699 18 655 2 C 611 -14 560 -23 504 -23 Z" unicode="c" />
<glyph horiz-adv-x="1067" d="M 428 -16 C 375 -16 327 -5 283 16 C 239 38 201 71 169 117 C 137 163 112 221 94 291 C 76 361 68 445 68 543 C 68 641 77 725 96 796 C 115 867 141 926 175 972 C 208 1018 247 1052 293 1074 C 339 1096 388 1108 442 1108 C 504 1108 557 1096 601 1072 C 644 1048 683 1015 719 971 L 719 1516 L 952 1516 L 952 266 C 952 200 953 146 957 104 C 961 62 968 28 979 0 L 739 0 C 735 8 732 18 730 31 C 728 43 726 56 724 70 C 722 83 721 96 720 109 C 719 121 719 132 719 141 C 703 120 685 100 666 81 C 646 62 625 45 601 31 C 577 17 550 5 522 -3 C 493 -11 462 -16 428 -16 Z M 508 174 C 526 174 546 178 566 186 C 586 194 606 204 625 216 C 644 228 662 242 678 256 C 694 270 708 284 719 297 L 719 793 C 689 829 656 858 620 878 C 584 898 546 909 506 909 C 474 909 445 901 420 887 C 395 873 374 851 357 821 C 339 791 326 752 317 705 C 307 658 303 602 303 537 C 303 411 321 319 357 261 C 393 203 443 174 508 174 Z" unicode="d" />
<glyph horiz-adv-x="987" d="M 514 -23 C 451 -23 392 -11 338 10 C 284 32 236 67 196 113 C 156 159 124 218 101 289 C 77 360 66 445 66 543 C 66 643 78 729 104 801 C 130 872 163 930 205 976 C 247 1022 294 1055 347 1076 C 400 1097 454 1108 510 1108 C 570 1108 626 1096 677 1074 C 727 1051 771 1016 807 970 C 843 923 872 864 892 792 C 912 720 922 635 922 537 L 922 473 L 295 473 C 300 369 322 293 362 243 C 402 193 456 168 524 168 C 552 168 578 171 602 178 C 625 184 646 194 666 207 C 685 219 703 235 721 253 C 738 271 755 291 772 315 L 920 209 C 899 176 874 145 846 117 C 818 89 786 64 752 44 C 717 23 680 7 640 -5 C 600 -17 558 -23 514 -23 Z M 705 637 C 699 727 681 796 649 843 C 617 889 570 913 508 913 C 482 913 458 908 434 898 C 410 888 389 873 371 851 C 352 829 336 800 323 765 C 310 730 301 687 297 637 L 705 637 Z" unicode="e" />
<glyph horiz-adv-x="659" d="M 193 899 L 37 899 L 37 1085 L 193 1085 L 193 1219 C 193 1263 198 1304 208 1341 C 218 1377 236 1409 261 1436 C 285 1462 318 1483 360 1498 C 401 1512 452 1520 514 1520 C 524 1520 535 1519 548 1519 C 560 1519 573 1518 585 1518 C 597 1517 607 1516 616 1515 C 625 1514 631 1513 633 1513 L 633 1325 C 631 1325 627 1326 621 1326 C 615 1326 608 1327 601 1327 C 593 1327 586 1328 579 1328 C 572 1328 567 1329 563 1329 C 543 1329 525 1327 509 1323 C 492 1319 477 1313 465 1304 C 453 1294 443 1281 436 1265 C 429 1249 426 1228 426 1202 L 426 1085 L 625 1085 L 625 899 L 426 899 L 426 0 L 193 0 L 193 899 Z" unicode="f" />
<glyph horiz-adv-x="1042" d="M 774 999 C 788 1013 805 1026 824 1038 C 843 1050 863 1060 883 1070 C 903 1079 924 1087 944 1093 C 964 1099 983 1103 1001 1106 L 1001 903 C 981 903 958 901 932 899 C 905 896 876 890 846 881 C 857 857 866 832 872 804 C 878 776 881 747 881 715 C 881 655 871 601 853 553 C 834 505 807 464 773 430 C 738 396 696 371 647 353 C 598 335 543 326 483 326 C 456 326 431 327 407 330 C 383 333 361 338 340 346 C 311 328 297 305 297 279 C 297 269 298 260 301 254 C 304 247 310 241 318 236 C 326 231 338 227 352 224 C 366 220 385 217 408 215 L 561 199 C 635 192 699 181 751 167 C 803 153 845 134 878 111 C 910 87 934 59 949 26 C 963 -6 971 -45 971 -90 C 971 -140 958 -185 933 -225 C 907 -265 872 -298 827 -326 C 781 -353 727 -374 665 -388 C 603 -402 535 -410 461 -410 C 379 -410 309 -404 253 -392 C 196 -380 150 -364 115 -343 C 80 -321 55 -295 39 -264 C 23 -233 16 -198 16 -160 C 16 -106 31 -60 62 -22 C 93 16 134 47 186 72 C 158 88 136 107 121 129 C 105 151 98 177 98 209 C 98 227 101 244 108 262 C 114 280 123 297 135 313 C 146 329 160 345 176 359 C 192 373 209 387 227 399 C 179 434 142 479 116 533 C 90 587 78 648 78 715 C 78 773 87 827 107 875 C 126 923 153 965 188 999 C 223 1033 265 1060 315 1079 C 365 1098 420 1108 481 1108 C 543 1108 599 1098 649 1080 C 698 1061 740 1034 774 999 Z M 485 487 C 543 487 588 506 619 545 C 650 584 666 639 666 711 C 666 783 650 838 620 876 C 589 914 543 934 483 934 C 423 934 378 914 346 875 C 314 835 299 781 299 711 C 299 639 315 584 347 545 C 379 506 425 487 485 487 Z M 326 31 C 292 11 268 -11 252 -37 C 236 -63 229 -91 229 -121 C 229 -146 233 -167 243 -185 C 252 -202 267 -216 288 -227 C 309 -237 336 -245 370 -250 C 404 -255 445 -258 494 -258 C 532 -258 568 -255 601 -250 C 633 -244 661 -236 685 -225 C 708 -214 726 -200 740 -184 C 753 -167 760 -147 760 -125 C 760 -105 756 -88 750 -73 C 744 -58 732 -45 715 -35 C 697 -24 673 -15 643 -8 C 612 0 572 5 524 10 L 354 27 C 350 28 345 29 341 29 C 336 29 331 29 326 31 Z" unicode="g" />
<glyph horiz-adv-x="1059" d="M 117 1516 L 350 1516 L 350 944 C 366 963 385 982 408 1002 C 431 1022 457 1039 486 1055 C 514 1071 545 1083 579 1093 C 612 1103 647 1108 684 1108 C 767 1108 832 1082 879 1031 C 926 980 950 904 950 803 L 950 0 L 717 0 L 717 750 C 717 803 707 842 688 868 C 669 894 637 907 592 907 C 569 907 546 902 523 894 C 499 885 477 874 455 862 C 433 849 413 835 395 820 C 377 805 362 792 350 780 L 350 0 L 117 0 L 117 1516 Z" unicode="h" />
<glyph horiz-adv-x="489" d="M 127 1483 L 362 1483 L 362 1264 L 127 1264 L 127 1483 Z M 127 1085 L 360 1085 L 360 0 L 127 0 L 127 1085 Z" unicode="i" />
<glyph horiz-adv-x="489" d="M 127 1483 L 362 1483 L 362 1264 L 127 1264 L 127 1483 Z M 86 -412 C 78 -412 67 -411 55 -411 C 43 -411 30 -410 18 -409 C 6 -408 -5 -407 -15 -406 C -25 -405 -32 -404 -35 -403 L -35 -227 C -29 -229 -18 -230 -4 -231 C 9 -232 21 -233 31 -233 C 63 -233 87 -223 103 -204 C 119 -184 127 -154 127 -113 L 127 1085 L 360 1085 L 360 -135 C 360 -177 356 -216 348 -250 C 340 -284 325 -313 305 -337 C 284 -361 256 -379 221 -392 C 185 -405 140 -412 86 -412 Z" unicode="j" />
<glyph horiz-adv-x="981" d="M 117 1516 L 348 1516 L 348 588 C 353 598 360 611 369 626 C 378 641 388 657 400 674 C 411 691 423 709 436 727 C 448 745 461 762 473 780 L 682 1085 L 920 1085 L 631 686 L 950 0 L 713 0 L 485 496 L 348 311 L 348 0 L 117 0 L 117 1516 Z" unicode="k" />
<glyph horiz-adv-x="489" d="M 127 1516 L 360 1516 L 360 0 L 127 0 L 127 1516 Z" unicode="l" />
<glyph horiz-adv-x="1620" d="M 117 1085 L 350 1085 L 350 944 C 366 963 385 982 409 1002 C 432 1022 458 1039 486 1055 C 514 1071 544 1083 576 1093 C 608 1103 640 1108 672 1108 C 708 1108 740 1105 768 1099 C 796 1093 819 1083 839 1070 C 858 1057 874 1040 886 1020 C 898 1000 908 976 915 948 C 931 967 951 986 974 1006 C 997 1025 1022 1042 1050 1057 C 1078 1072 1108 1084 1141 1094 C 1173 1103 1208 1108 1245 1108 C 1328 1108 1393 1082 1440 1031 C 1487 980 1511 904 1511 803 L 1511 0 L 1278 0 L 1278 750 C 1278 803 1268 842 1249 868 C 1230 894 1198 907 1153 907 C 1130 907 1108 903 1086 895 C 1064 887 1044 878 1025 867 C 1005 856 988 844 972 832 C 956 820 942 809 930 799 L 930 0 L 696 0 L 696 750 C 696 776 694 799 691 819 C 687 839 681 855 672 868 C 663 881 651 891 636 897 C 620 903 601 907 578 907 C 560 907 542 903 523 897 C 503 891 484 882 464 871 C 444 859 425 846 406 831 C 386 815 368 799 350 782 L 350 0 L 117 0 L 117 1085 Z" unicode="m" />
<glyph horiz-adv-x="1059" d="M 117 1085 L 350 1085 L 350 944 C 366 963 385 982 408 1002 C 431 1022 457 1039 486 1055 C 514 1071 545 1083 579 1093 C 612 1103 647 1108 684 1108 C 767 1108 832 1082 879 1031 C 926 980 950 904 950 803 L 950 0 L 717 0 L 717 750 C 717 803 707 842 688 868 C 669 894 637 907 592 907 C 569 907 546 902 523 894 C 499 885 477 874 455 862 C 433 849 413 835 395 820 C 377 805 362 792 350 780 L 350 0 L 117 0 L 117 1085 Z" unicode="n" />
<glyph horiz-adv-x="1040" d="M 520 -23 C 458 -23 400 -11 346 11 C 291 33 243 68 201 115 C 159 161 126 220 102 291 C 78 362 66 446 66 543 C 66 641 78 725 102 796 C 126 867 159 926 201 972 C 242 1018 290 1052 345 1074 C 400 1096 458 1108 520 1108 C 580 1108 638 1096 693 1074 C 748 1052 796 1018 838 972 C 879 926 912 867 936 796 C 960 725 973 641 973 543 C 973 446 960 362 936 291 C 912 220 879 161 838 115 C 796 68 748 33 693 11 C 638 -11 580 -23 520 -23 Z M 520 168 C 595 168 650 200 686 265 C 721 329 739 422 739 543 C 739 597 734 647 726 693 C 718 738 705 777 688 809 C 670 841 648 866 620 884 C 592 902 558 911 520 911 C 445 911 389 879 353 815 C 317 751 299 661 299 543 C 299 487 303 437 311 391 C 319 345 331 305 349 272 C 367 239 390 213 418 195 C 446 177 480 168 520 168 Z" unicode="o" />
<glyph horiz-adv-x="1067" d="M 117 1085 L 350 1085 L 350 952 C 366 972 383 992 403 1011 C 422 1029 444 1046 468 1060 C 492 1074 518 1086 547 1095 C 575 1103 607 1108 641 1108 C 693 1108 742 1096 786 1074 C 830 1052 868 1018 900 972 C 932 926 956 867 974 797 C 992 726 1001 642 1001 545 C 1001 447 991 362 972 292 C 953 221 927 163 894 117 C 860 71 821 38 775 16 C 729 -5 680 -16 627 -16 C 564 -16 511 -4 468 19 C 424 43 385 77 350 121 L 350 -410 L 117 -410 L 117 1085 Z M 563 174 C 595 174 623 181 648 195 C 673 209 694 230 712 260 C 729 290 742 328 752 375 C 761 421 766 477 766 543 C 766 669 748 761 712 820 C 676 879 625 909 561 909 C 542 909 522 905 502 897 C 482 889 462 879 443 867 C 424 855 406 841 390 827 C 374 812 360 798 350 786 L 350 291 C 380 253 413 224 449 204 C 485 184 523 174 563 174 Z" unicode="p" />
<glyph horiz-adv-x="1067" d="M 717 137 C 701 117 683 98 664 80 C 644 61 623 44 599 30 C 575 15 549 3 521 -5 C 493 -13 462 -18 428 -18 C 375 -18 327 -7 283 14 C 239 36 201 69 169 115 C 137 160 112 218 94 288 C 76 358 68 443 68 541 C 68 638 77 722 95 794 C 113 865 138 924 170 970 C 202 1016 240 1051 284 1074 C 328 1096 377 1108 430 1108 C 492 1108 547 1094 593 1066 C 639 1038 681 1002 717 956 L 717 1085 L 950 1085 L 950 -410 L 717 -410 L 717 137 Z M 508 168 C 528 168 548 171 567 178 C 585 184 603 193 620 205 C 637 216 654 229 670 244 C 686 258 701 274 717 291 L 717 786 C 683 823 650 853 617 875 C 584 897 547 909 506 909 C 474 909 445 902 420 888 C 394 874 373 852 356 822 C 338 792 325 755 316 709 C 307 663 303 607 303 543 C 303 415 320 320 356 259 C 392 198 442 168 508 168 Z" unicode="q" />
<glyph horiz-adv-x="731" d="M 117 1085 L 350 1085 L 350 918 L 354 918 C 366 940 382 962 402 985 C 422 1007 445 1028 472 1046 C 499 1064 530 1078 564 1090 C 598 1102 636 1108 678 1108 L 698 1108 L 692 893 C 688 893 681 893 670 894 C 658 894 648 895 639 895 C 607 895 576 890 548 882 C 519 873 492 861 468 846 C 444 830 422 812 402 791 C 382 770 364 747 350 723 L 350 0 L 117 0 L 117 1085 Z" unicode="r" />
<glyph horiz-adv-x="922" d="M 461 -23 C 411 -23 364 -18 321 -8 C 278 2 238 16 201 35 C 164 53 131 75 101 101 C 71 127 44 156 20 188 L 164 309 C 204 259 250 222 303 196 C 356 170 410 158 465 158 C 520 158 563 168 595 188 C 627 208 643 239 643 281 C 643 310 635 334 619 354 C 603 374 582 391 556 405 C 530 419 500 431 467 442 C 433 453 399 465 364 478 C 329 490 295 505 262 521 C 228 537 199 558 173 582 C 147 606 126 636 110 671 C 94 706 86 749 86 799 C 86 847 95 891 115 929 C 134 967 160 1000 194 1027 C 227 1053 266 1073 312 1087 C 358 1101 407 1108 459 1108 C 497 1108 534 1103 571 1095 C 607 1087 642 1075 675 1059 C 707 1043 738 1023 766 1001 C 794 978 820 952 842 924 L 702 797 C 687 814 670 830 652 846 C 634 861 614 874 594 886 C 573 898 551 907 528 914 C 505 920 481 924 457 924 C 407 924 369 914 344 894 C 319 874 307 847 307 811 C 307 781 315 757 331 738 C 347 719 368 703 394 689 C 420 675 449 662 482 651 C 515 640 549 628 584 616 C 619 604 653 590 686 574 C 719 558 749 537 775 513 C 801 488 822 458 838 423 C 854 388 862 345 862 295 C 862 244 851 199 830 159 C 808 119 779 86 743 59 C 706 32 663 12 615 -2 C 566 -16 515 -23 461 -23 Z" unicode="s" />
<glyph horiz-adv-x="709" d="M 487 -12 C 429 -12 380 -6 342 3 C 304 13 273 30 250 52 C 226 74 210 102 200 136 C 190 170 186 210 186 258 L 186 899 L 31 899 L 31 1085 L 186 1085 L 186 1466 L 420 1466 L 420 1085 L 655 1085 L 655 899 L 420 899 L 420 322 C 420 294 422 270 426 251 C 430 231 437 216 447 204 C 457 192 471 183 489 178 C 506 172 528 170 555 170 C 571 170 588 171 606 173 C 624 175 637 178 647 182 L 647 2 C 641 0 633 -1 621 -3 C 609 -5 596 -6 581 -8 C 566 -9 550 -10 534 -11 C 517 -11 501 -12 487 -12 Z" unicode="t" />
<glyph horiz-adv-x="1059" d="M 375 -23 C 291 -23 226 2 179 54 C 132 105 109 181 109 283 L 109 1085 L 342 1085 L 342 332 C 342 278 351 238 371 213 C 390 188 423 176 471 176 C 492 176 513 179 534 186 C 555 193 576 202 596 214 C 616 226 635 239 654 255 C 673 270 691 286 709 303 L 709 1085 L 942 1085 L 942 0 L 709 0 L 709 141 C 691 120 670 100 647 80 C 623 60 598 43 570 28 C 542 12 511 0 479 -9 C 446 -18 411 -23 375 -23 Z" unicode="u" />
<glyph horiz-adv-x="932" d="M 18 1085 L 254 1085 L 401 537 C 407 513 412 490 418 468 C 424 446 429 423 435 400 C 441 377 447 353 453 328 C 459 302 465 274 473 242 L 477 242 C 483 273 489 301 495 327 C 501 352 506 376 512 399 C 518 421 523 444 529 466 C 535 488 541 511 547 535 L 694 1085 L 913 1085 L 590 -4 L 342 -4 L 18 1085 Z" unicode="v" />
<glyph horiz-adv-x="1337" d="M 20 1085 L 248 1085 L 352 631 C 358 605 363 580 369 558 C 374 535 379 512 384 488 C 388 464 393 439 398 413 C 402 386 408 356 414 322 L 418 322 C 423 356 428 386 433 413 C 438 439 443 465 448 489 C 453 513 458 536 464 559 C 469 582 475 607 481 635 L 582 1085 L 780 1085 L 881 641 C 887 613 892 587 898 563 C 904 538 909 513 915 488 C 920 463 925 437 930 410 C 935 383 940 354 946 322 L 950 322 C 955 354 960 384 965 411 C 970 438 975 464 980 489 C 985 513 990 538 995 562 C 1000 586 1006 611 1012 639 L 1114 1085 L 1317 1085 L 1051 -4 L 842 -4 L 672 745 L 668 745 L 494 -4 L 287 -4 L 20 1085 Z" unicode="w" />
<glyph horiz-adv-x="928" d="M 348 563 L 53 1085 L 295 1085 L 483 737 L 657 1085 L 881 1085 L 586 571 L 907 0 L 668 0 L 457 395 L 248 0 L 25 0 L 348 563 Z" unicode="x" />
<glyph horiz-adv-x="958" d="M 211 -414 C 161 -414 117 -410 81 -404 C 45 -397 17 -391 -2 -385 L 43 -201 C 56 -204 76 -208 102 -212 C 128 -216 157 -219 188 -219 C 208 -219 226 -216 241 -211 C 256 -205 269 -197 281 -186 C 292 -175 302 -161 311 -144 C 319 -127 328 -107 336 -84 L 358 -12 L 18 1085 L 260 1085 L 395 592 C 403 562 410 533 418 506 C 425 479 432 452 439 426 C 445 400 452 373 458 346 C 464 318 471 290 477 260 L 481 260 C 488 290 495 320 502 348 C 508 376 515 403 522 431 C 529 458 536 486 544 514 C 551 542 559 571 567 602 L 702 1085 L 928 1085 L 551 -113 C 535 -163 517 -206 498 -244 C 479 -282 457 -313 431 -338 C 405 -363 374 -382 338 -395 C 302 -407 260 -414 211 -414 Z" unicode="y" />
<glyph horiz-adv-x="903" d="M 55 145 L 543 899 L 96 899 L 96 1085 L 821 1085 L 821 938 L 332 184 L 848 184 L 848 0 L 55 0 L 55 145 Z" unicode="z" />
<glyph horiz-adv-x="735" d="M 510 -410 C 464 -410 424 -403 390 -390 C 356 -376 329 -357 307 -333 C 285 -308 268 -278 258 -243 C 247 -207 242 -167 242 -123 L 242 233 C 242 281 238 321 231 352 C 223 382 212 406 197 423 C 181 440 161 452 137 458 C 112 464 83 467 49 467 L 49 639 C 83 639 113 642 137 648 C 161 654 181 666 197 683 C 213 700 224 724 231 754 C 238 784 242 824 242 872 L 242 1229 C 242 1273 247 1313 258 1349 C 268 1384 285 1414 307 1439 C 329 1463 358 1482 393 1496 C 427 1509 468 1516 516 1516 L 692 1516 L 692 1341 L 616 1341 C 568 1341 533 1328 511 1304 C 489 1279 479 1241 479 1190 L 479 854 C 479 804 475 762 468 728 C 461 694 451 665 438 643 C 424 620 408 602 388 589 C 368 575 346 564 322 555 L 322 551 C 346 541 368 530 388 517 C 408 503 424 485 438 463 C 451 440 461 412 468 378 C 475 344 479 302 479 252 L 479 -88 C 479 -139 489 -177 511 -201 C 533 -225 568 -238 616 -238 L 692 -238 L 692 -410 L 510 -410 L 510 -410 Z" unicode="{" />
<glyph horiz-adv-x="670" d="M 217 1516 L 453 1516 L 453 -410 L 217 -410 L 217 1516 Z" unicode="|" />
<glyph horiz-adv-x="735" d="M 43 -238 L 119 -238 C 167 -238 201 -225 223 -201 C 245 -177 256 -139 256 -88 L 256 262 C 256 312 259 353 266 386 C 273 419 283 446 297 468 C 310 489 326 506 346 518 C 366 530 388 541 414 551 L 414 555 C 388 564 366 575 346 587 C 326 599 310 616 297 638 C 283 659 273 686 266 719 C 259 752 256 794 256 844 L 256 1190 C 256 1241 245 1279 223 1304 C 201 1328 167 1341 119 1341 L 43 1341 L 43 1516 L 231 1516 C 279 1516 319 1509 353 1497 C 386 1485 413 1467 434 1444 C 455 1420 470 1391 480 1357 C 489 1323 494 1283 494 1239 L 494 872 C 494 824 497 784 504 754 C 511 724 522 700 538 683 C 553 666 573 654 597 648 C 621 642 651 639 686 639 L 686 467 C 652 467 622 464 598 458 C 574 452 554 440 538 423 C 522 406 511 382 504 352 C 497 321 494 281 494 233 L 494 -133 C 494 -222 474 -290 434 -338 C 394 -386 328 -410 238 -410 L 43 -410 L 43 -238 Z" unicode="}" />
<glyph horiz-adv-x="1155" d="M 815 528 C 772 528 729 534 685 546 C 641 558 599 572 558 586 C 517 600 479 614 443 626 C 407 638 375 645 348 645 C 327 645 309 638 294 626 C 278 614 268 590 262 555 L 111 575 C 121 667 146 734 186 777 C 226 820 278 842 342 842 C 384 842 427 836 471 824 C 515 812 557 798 597 784 C 637 770 675 757 711 745 C 746 733 777 727 803 727 C 814 727 824 728 834 731 C 844 733 853 738 861 745 C 869 751 875 760 881 772 C 886 783 890 797 893 815 L 1044 797 C 1034 705 1009 637 971 593 C 933 549 881 528 815 528 Z" unicode="~" />
<glyph horiz-adv-x="883" d="M 442 -425 C 390 -425 343 -414 301 -394 C 259 -374 224 -343 195 -303 C 166 -263 144 -213 129 -153 C 113 -93 106 -24 106 55 C 106 133 113 203 129 263 C 144 323 166 373 195 413 C 224 453 259 484 301 505 C 343 525 390 536 442 536 C 494 536 541 525 583 505 C 625 484 660 453 689 413 C 717 373 739 323 755 263 C 770 203 778 133 778 55 C 778 -24 770 -93 755 -153 C 739 -213 717 -263 689 -303 C 660 -343 625 -374 583 -394 C 541 -414 494 -425 442 -425 Z M 442 -265 C 495 -265 533 -239 555 -187 C 577 -135 588 -54 588 55 C 588 165 576 245 554 296 C 531 346 494 372 442 372 C 390 372 352 346 330 295 C 308 244 297 164 297 55 C 297 -55 308 -135 331 -187 C 353 -239 390 -265 442 -265 Z" unicode="₀" />
<glyph horiz-adv-x="637" d="M 99 -246 L 237 -246 L 237 323 C 219 315 199 309 177 305 C 154 300 129 298 101 298 L 101 460 C 139 462 170 467 194 476 C 218 485 240 499 259 518 L 429 518 L 429 -246 L 550 -246 L 550 -406 L 99 -406 L 99 -246 Z" unicode="₁" />
<glyph horiz-adv-x="743" d="M 74 -355 C 74 -292 84 -238 104 -193 C 124 -148 148 -109 178 -75 C 208 -41 240 -10 275 16 C 310 43 342 69 372 95 C 402 121 427 148 447 176 C 467 204 477 236 477 274 C 477 306 469 332 454 350 C 438 368 415 378 383 378 C 351 378 323 365 300 339 C 276 313 255 276 236 227 L 76 294 C 91 333 108 368 128 398 C 147 428 169 454 195 474 C 220 494 249 510 281 520 C 313 530 349 536 389 536 C 475 536 542 513 590 467 C 638 421 662 357 662 274 C 662 229 653 189 636 155 C 618 120 596 88 570 60 C 543 32 514 6 483 -18 C 451 -42 422 -65 395 -89 C 367 -112 344 -136 324 -160 C 304 -184 293 -211 291 -240 L 659 -240 L 659 -402 L 74 -402 L 74 -355 Z" unicode="₂" />
<glyph horiz-adv-x="764" d="M 375 -414 C 295 -414 228 -394 176 -354 C 124 -314 83 -258 53 -185 L 199 -113 C 220 -165 245 -203 273 -225 C 301 -247 333 -259 371 -259 C 414 -259 447 -246 469 -222 C 491 -197 502 -166 502 -128 C 502 -73 487 -34 457 -10 C 427 14 379 26 313 26 L 270 26 L 270 145 L 328 145 C 384 145 424 156 448 179 C 471 202 483 234 483 274 C 483 302 474 327 458 347 C 442 367 416 378 381 378 C 347 378 316 369 289 351 C 262 333 236 308 211 274 L 84 366 C 163 482 266 540 393 540 C 436 540 474 533 508 521 C 542 509 570 492 593 470 C 615 448 632 423 644 394 C 656 364 662 332 662 298 C 662 250 651 210 630 176 C 608 142 577 114 535 94 C 584 72 620 43 644 6 C 668 -30 680 -77 680 -134 C 680 -177 672 -216 658 -250 C 643 -284 622 -314 596 -338 C 569 -362 537 -381 499 -394 C 461 -407 420 -414 375 -414 Z" unicode="₃" />
<glyph horiz-adv-x="799" d="M 422 -205 L 68 -205 L 68 -78 L 414 518 L 604 518 L 604 -50 L 725 -50 L 725 -205 L 604 -205 L 604 -406 L 422 -406 L 422 -205 Z M 432 -58 L 432 280 L 242 -58 L 432 -58 Z" unicode="₄" />
<glyph horiz-adv-x="793" d="M 393 -425 C 348 -425 309 -420 276 -411 C 242 -402 213 -389 188 -372 C 162 -355 140 -335 122 -311 C 104 -287 88 -260 74 -230 L 215 -152 C 225 -171 235 -188 246 -203 C 256 -217 268 -229 282 -239 C 296 -249 311 -256 328 -261 C 344 -266 363 -269 385 -269 C 409 -269 430 -264 446 -256 C 462 -248 476 -236 486 -221 C 496 -205 503 -187 507 -165 C 511 -143 514 -119 514 -93 C 514 -41 505 -1 488 27 C 470 55 440 69 397 69 C 366 69 341 62 323 50 C 305 37 288 19 274 -3 L 129 22 L 160 518 L 651 518 L 641 360 L 303 360 L 290 157 C 308 172 331 184 359 194 C 387 203 417 208 449 208 C 487 208 522 201 553 189 C 584 177 610 158 632 133 C 654 108 670 76 682 38 C 694 0 700 -46 700 -99 C 700 -153 693 -200 679 -241 C 665 -281 644 -315 618 -343 C 591 -370 559 -390 521 -404 C 483 -418 441 -425 393 -425 Z" unicode="₅" />
<glyph horiz-adv-x="823" d="M 426 -425 C 321 -425 241 -386 187 -308 C 133 -230 106 -113 106 44 C 106 123 112 193 126 255 C 139 316 159 367 187 409 C 214 451 249 482 292 504 C 334 525 385 536 444 536 C 480 536 513 531 541 523 C 569 514 594 503 616 489 C 637 475 655 458 671 440 C 686 422 699 403 711 384 L 567 300 C 553 322 536 342 516 359 C 496 375 471 384 440 384 C 414 384 391 379 373 369 C 355 359 339 344 327 323 C 315 301 305 274 299 240 C 293 206 289 166 287 118 C 315 141 345 160 377 175 C 409 190 443 198 479 198 C 523 198 561 190 593 176 C 625 161 651 140 671 114 C 691 88 705 56 715 18 C 724 -19 729 -61 729 -107 C 729 -152 722 -194 708 -233 C 694 -272 673 -306 647 -334 C 621 -362 589 -385 552 -401 C 514 -417 472 -425 426 -425 Z M 430 -273 C 469 -273 499 -259 521 -232 C 542 -204 553 -163 553 -109 C 553 -59 544 -20 526 8 C 508 36 478 51 436 51 C 404 51 378 44 356 31 C 334 17 312 -1 289 -27 C 294 -109 307 -171 329 -212 C 351 -252 384 -273 430 -273 Z" unicode="₆" />
<glyph horiz-adv-x="715" d="M 451 360 L 90 360 L 90 518 L 641 518 L 641 368 L 330 -406 L 139 -406 L 451 360 Z" unicode="₇" />
<glyph horiz-adv-x="819" d="M 410 -425 C 358 -425 313 -419 273 -407 C 233 -395 200 -378 173 -356 C 145 -334 125 -307 111 -277 C 97 -247 90 -213 90 -177 C 90 -147 94 -119 103 -95 C 112 -70 124 -47 140 -27 C 156 -6 174 12 196 29 C 217 45 240 61 266 75 C 244 88 225 102 208 116 C 190 130 176 147 164 165 C 152 183 142 203 136 225 C 130 247 127 272 127 302 C 127 333 133 363 145 391 C 157 419 176 444 200 466 C 224 487 253 504 288 517 C 323 529 364 536 410 536 C 456 536 497 530 532 519 C 567 507 596 491 620 471 C 644 450 662 425 674 397 C 686 368 692 336 692 302 C 692 274 688 250 682 228 C 676 206 667 187 655 170 C 643 152 628 136 611 122 C 593 107 574 93 553 79 C 579 65 602 50 624 35 C 645 19 663 2 679 -17 C 694 -37 706 -60 714 -86 C 722 -112 727 -142 727 -177 C 727 -213 719 -246 705 -276 C 691 -306 670 -333 643 -355 C 616 -377 583 -394 544 -406 C 504 -418 460 -425 410 -425 Z M 408 -289 C 450 -289 483 -277 507 -254 C 531 -230 543 -200 543 -162 C 543 -142 539 -125 533 -110 C 526 -95 516 -81 504 -69 C 491 -56 476 -44 458 -32 C 440 -20 419 -9 397 3 C 357 -20 325 -44 303 -69 C 281 -94 270 -125 270 -162 C 270 -199 282 -229 306 -253 C 330 -277 364 -289 408 -289 Z M 420 147 C 453 166 478 186 494 207 C 510 228 518 254 518 286 C 518 300 516 313 513 327 C 509 340 504 352 496 362 C 488 372 477 380 464 386 C 450 392 434 395 414 395 C 394 395 378 392 365 386 C 351 380 340 373 332 363 C 323 353 317 342 313 330 C 309 317 307 304 307 290 C 307 254 316 226 336 206 C 356 186 384 166 420 147 Z" unicode="₈" />
<glyph horiz-adv-x="823" d="M 381 -425 C 343 -425 311 -420 283 -412 C 255 -403 230 -392 209 -378 C 188 -364 170 -347 155 -329 C 139 -311 126 -292 115 -273 L 256 -189 C 271 -211 288 -231 308 -248 C 328 -264 353 -273 385 -273 C 410 -273 432 -268 450 -258 C 468 -248 484 -232 496 -211 C 508 -189 517 -162 524 -128 C 530 -94 535 -54 537 -7 C 509 -30 478 -49 446 -64 C 414 -79 380 -87 344 -87 C 298 -87 260 -79 228 -65 C 196 -50 171 -29 151 -3 C 131 23 116 55 107 93 C 98 131 94 173 94 219 C 94 264 101 306 115 345 C 129 383 150 417 176 445 C 202 473 234 496 272 512 C 310 528 352 536 399 536 C 503 536 582 497 636 419 C 690 341 717 224 717 67 C 717 -91 690 -213 637 -298 C 583 -382 498 -425 381 -425 Z M 389 55 C 421 55 447 61 469 75 C 490 89 513 109 537 135 C 531 217 517 278 495 319 C 472 359 438 380 393 380 C 355 380 325 366 304 338 C 282 310 272 268 272 214 C 272 189 274 167 278 147 C 282 127 288 111 298 97 C 307 83 319 73 334 66 C 349 58 367 55 389 55 Z" unicode="₉" />
<glyph horiz-adv-x="432" d="" unicode=" " />
<glyph horiz-adv-x="608" d="M 168 1516 L 432 1516 L 432 1268 L 168 1268 L 168 1516 Z M 209 1081 L 391 1081 L 442 0 L 160 0 L 209 1081 Z" unicode="¡" />
<glyph horiz-adv-x="958" d="M 303 29 C 268 48 236 73 207 104 C 178 134 153 171 132 214 C 111 256 95 305 83 360 C 71 414 66 475 66 543 C 66 643 78 728 104 800 C 129 872 162 930 204 976 C 246 1021 293 1054 347 1076 C 401 1097 456 1108 514 1108 L 522 1108 L 557 1284 L 727 1284 L 686 1075 C 716 1061 743 1043 767 1022 C 790 1001 810 977 828 951 C 845 925 860 896 872 865 C 884 834 895 802 905 768 L 696 717 C 688 747 679 774 669 798 C 659 822 648 842 635 860 L 492 162 L 510 162 C 558 162 598 177 631 209 C 664 241 689 295 707 371 L 909 319 C 895 268 877 222 855 180 C 832 138 804 102 771 72 C 738 42 699 18 655 2 C 611 -14 560 -23 504 -23 C 496 -23 489 -22 482 -22 C 475 -22 469 -21 463 -20 L 420 -227 L 250 -227 L 303 29 Z M 492 920 C 464 916 438 907 415 891 C 391 875 371 851 354 821 C 336 790 323 752 313 706 C 303 660 299 605 299 543 C 299 480 303 424 313 376 C 322 327 336 286 356 254 L 492 920 Z" unicode="¢" />
<glyph horiz-adv-x="1174" d="M 152 690 L 152 860 L 322 860 C 298 909 277 958 261 1007 C 244 1055 236 1105 236 1155 C 236 1213 245 1266 263 1314 C 281 1362 306 1403 340 1437 C 373 1471 413 1497 461 1516 C 508 1534 561 1544 621 1544 C 689 1544 748 1533 796 1513 C 844 1493 884 1465 916 1429 C 947 1393 971 1350 988 1302 C 1004 1253 1016 1201 1022 1145 L 805 1116 C 801 1150 796 1181 789 1209 C 781 1237 771 1261 757 1281 C 743 1301 725 1317 703 1329 C 681 1340 655 1346 623 1346 C 574 1346 535 1331 506 1301 C 477 1271 463 1225 463 1161 C 463 1111 472 1061 491 1012 C 510 963 532 912 557 860 L 860 860 L 860 690 L 629 690 C 641 652 651 613 659 573 C 667 532 672 488 672 442 C 672 404 668 367 662 333 C 656 298 647 265 635 233 C 660 213 685 197 711 184 C 736 170 763 164 791 164 C 813 164 833 167 851 175 C 868 183 882 196 894 215 C 906 234 915 260 921 292 C 927 324 930 364 932 412 L 1137 412 C 1135 347 1128 288 1118 234 C 1107 180 1089 133 1065 94 C 1041 55 1008 25 968 3 C 928 -18 877 -29 817 -29 C 789 -29 762 -25 737 -19 C 712 -12 688 -3 666 7 C 644 18 623 31 603 46 C 583 60 565 76 547 92 C 513 54 473 24 427 3 C 381 -18 330 -29 274 -29 C 242 -29 210 -24 180 -15 C 150 -6 123 7 100 26 C 76 44 58 68 44 96 C 30 124 23 157 23 195 C 23 233 29 267 42 299 C 54 330 72 357 95 379 C 117 401 144 419 174 432 C 204 444 238 451 274 451 C 310 451 343 444 375 430 C 407 416 437 399 465 379 C 466 386 467 394 467 402 C 467 410 467 418 467 426 C 467 472 460 517 448 561 C 435 605 419 648 401 690 L 152 690 Z M 426 211 C 401 235 377 256 353 272 C 329 288 303 297 276 297 C 249 297 228 288 212 271 C 196 254 188 231 188 201 C 188 173 196 151 213 135 C 229 119 251 111 279 111 C 343 111 392 144 426 211 Z" unicode="£" />
<glyph horiz-adv-x="1152" d="M 1056 392 L 940 284 L 740 500 C 692 468 636 452 572 452 C 510 452 456 468 408 500 L 208 284 L 92 392 L 300 608 C 281 634 268 660 262 686 C 255 711 252 742 252 780 C 252 812 255 842 262 870 C 268 898 281 925 300 952 L 92 1168 L 208 1276 L 408 1060 C 456 1092 510 1108 572 1108 C 636 1108 692 1092 740 1060 L 944 1276 L 1060 1156 L 852 952 C 870 925 883 898 890 872 C 896 845 900 814 900 780 C 900 716 882 658 848 608 L 1056 392 Z M 748 780 C 748 833 731 876 698 910 C 664 943 622 960 572 960 C 521 960 480 943 448 910 C 416 876 400 833 400 780 C 400 726 416 684 450 652 C 483 620 524 604 572 604 C 625 604 668 620 700 652 C 732 684 748 726 748 780 Z" unicode="¤" />
<glyph horiz-adv-x="1128" d="M 678 346 L 1016 346 L 1016 176 L 678 176 L 678 0 L 449 0 L 449 176 L 113 176 L 113 346 L 449 346 L 449 487 L 113 487 L 113 657 L 426 657 L 18 1516 L 266 1516 L 567 827 L 571 827 L 872 1516 L 1108 1516 L 700 657 L 1016 657 L 1016 487 L 678 487 L 678 346 Z" unicode="¥" />
<glyph horiz-adv-x="670" d="M 217 1516 L 453 1516 L 453 678 L 217 678 L 217 1516 Z M 217 428 L 453 428 L 453 -410 L 217 -410 L 217 428 Z" unicode="¦" />
<glyph horiz-adv-x="1016" d="M 500 -418 C 433 -418 377 -409 331 -392 C 285 -374 247 -351 217 -321 C 187 -291 163 -255 145 -214 C 127 -172 113 -128 102 -80 L 303 -25 C 309 -53 318 -80 328 -105 C 338 -130 350 -152 365 -171 C 380 -189 398 -204 420 -215 C 441 -225 466 -231 496 -231 C 522 -231 545 -227 564 -220 C 583 -213 598 -203 610 -191 C 621 -178 629 -163 635 -146 C 640 -128 643 -109 643 -88 C 643 -63 638 -40 628 -18 C 618 3 603 24 584 45 C 565 65 542 86 515 106 C 487 126 456 148 422 172 C 374 202 330 232 289 261 C 247 290 211 321 181 354 C 150 386 126 422 108 462 C 90 501 82 546 82 598 C 82 634 87 668 99 700 C 110 732 125 761 144 789 C 162 816 184 841 209 864 C 233 886 259 906 285 924 C 239 966 204 1008 181 1051 C 158 1094 147 1144 147 1202 C 147 1248 155 1292 171 1334 C 187 1376 211 1412 243 1444 C 275 1475 313 1500 359 1518 C 405 1536 457 1546 516 1546 C 584 1546 641 1537 687 1520 C 733 1503 771 1479 802 1449 C 832 1419 857 1383 875 1341 C 893 1299 908 1254 920 1206 L 713 1151 C 705 1183 697 1211 687 1237 C 677 1262 664 1283 649 1301 C 634 1319 616 1332 595 1342 C 574 1351 549 1356 520 1356 C 468 1356 430 1342 405 1316 C 379 1290 367 1256 367 1214 C 367 1188 372 1165 383 1144 C 393 1122 408 1101 428 1081 C 448 1061 472 1040 500 1020 C 528 999 560 977 596 954 C 642 923 686 893 728 864 C 769 835 805 804 835 772 C 865 740 889 704 907 665 C 925 626 934 581 934 530 C 934 494 928 460 917 428 C 905 396 890 366 872 338 C 853 310 831 284 807 262 C 782 239 757 219 731 203 C 777 161 810 118 831 75 C 851 32 862 -17 862 -74 C 862 -121 854 -165 838 -207 C 822 -249 798 -285 768 -316 C 737 -347 699 -372 654 -390 C 609 -408 558 -418 500 -418 Z M 596 311 C 636 335 667 363 690 395 C 713 426 725 460 725 496 C 725 522 720 547 711 569 C 702 591 688 612 668 634 C 648 655 622 677 590 701 C 558 724 520 750 475 780 C 465 786 456 792 447 798 C 438 804 430 809 422 815 C 382 791 350 764 326 733 C 302 702 291 669 291 633 C 291 605 295 581 304 559 C 313 537 328 515 348 493 C 368 471 394 449 426 426 C 458 402 497 376 543 346 C 551 340 559 334 569 329 C 579 323 588 317 596 311 Z" unicode="§" />
<glyph horiz-adv-x="948" d="M 549 1427 L 758 1427 L 758 1194 L 549 1194 L 549 1427 Z M 190 1427 L 401 1427 L 401 1194 L 190 1194 L 190 1427 Z" unicode="¨" />
<glyph horiz-adv-x="1468" d="M 733 -29 C 638 -29 550 -8 470 31 C 390 71 320 127 262 198 C 204 268 158 351 125 447 C 92 543 76 646 76 756 C 76 829 83 899 98 967 C 113 1034 135 1097 163 1155 C 191 1213 224 1267 264 1315 C 303 1363 347 1403 396 1437 C 445 1471 498 1497 555 1516 C 612 1534 672 1544 735 1544 C 829 1544 917 1523 997 1483 C 1077 1443 1147 1387 1206 1317 C 1264 1246 1310 1163 1343 1068 C 1376 972 1393 870 1393 760 C 1393 686 1385 616 1370 548 C 1355 480 1334 417 1306 359 C 1278 301 1244 248 1204 200 C 1164 152 1120 111 1071 77 C 1022 43 969 17 912 -1 C 855 -19 795 -29 733 -29 Z M 735 84 C 813 84 884 101 950 135 C 1015 169 1071 217 1119 277 C 1167 337 1204 409 1230 491 C 1256 573 1270 661 1270 756 C 1270 819 1264 880 1252 938 C 1240 996 1222 1050 1200 1100 C 1177 1150 1150 1195 1118 1236 C 1086 1276 1050 1311 1010 1340 C 970 1369 927 1392 881 1408 C 834 1424 785 1432 733 1432 C 655 1432 583 1414 518 1380 C 452 1346 396 1298 349 1238 C 301 1178 264 1107 238 1025 C 212 943 199 854 199 760 C 199 665 212 576 239 494 C 265 412 302 340 350 280 C 398 219 454 171 520 136 C 585 101 657 84 735 84 Z M 735 317 C 687 317 644 326 606 346 C 568 365 535 393 509 431 C 482 469 461 516 447 572 C 433 628 426 692 426 766 C 426 837 433 900 447 955 C 461 1010 482 1056 509 1094 C 536 1132 569 1160 607 1180 C 645 1200 689 1210 737 1210 C 778 1210 814 1203 846 1189 C 877 1175 904 1155 927 1130 C 949 1105 968 1075 983 1041 C 998 1006 1010 968 1018 926 L 874 899 C 868 925 862 948 855 969 C 847 990 838 1008 828 1022 C 817 1036 804 1047 790 1055 C 775 1063 757 1067 737 1067 C 711 1067 689 1059 670 1045 C 650 1031 634 1010 621 984 C 608 957 598 925 592 888 C 585 851 582 810 582 766 C 582 672 595 598 621 545 C 647 491 685 465 737 465 C 776 465 807 479 829 507 C 851 535 868 581 881 643 L 1024 614 C 1014 569 1002 528 987 492 C 971 456 952 425 929 399 C 906 373 879 352 847 338 C 815 324 777 317 735 317 Z" unicode="©" />
<glyph horiz-adv-x="776" d="M 266 743 C 238 743 213 747 190 755 C 167 763 147 775 131 792 C 114 808 101 829 92 854 C 82 878 78 908 78 942 C 78 1022 113 1089 183 1141 C 253 1193 357 1232 496 1260 L 496 1296 C 496 1331 489 1358 475 1376 C 461 1394 438 1403 406 1403 C 384 1403 364 1400 344 1395 C 324 1389 305 1382 287 1373 C 269 1364 251 1354 235 1342 C 218 1330 202 1319 188 1307 L 100 1409 C 145 1451 195 1483 250 1507 C 305 1530 366 1542 432 1542 C 513 1542 572 1521 609 1481 C 645 1440 664 1378 664 1296 L 664 946 C 664 902 665 865 668 835 C 670 805 676 778 684 756 L 512 756 C 508 771 504 786 501 802 C 497 817 496 835 496 856 C 466 820 432 793 394 773 C 356 753 313 743 266 743 Z M 330 881 C 364 881 395 889 423 906 C 451 922 475 941 496 963 L 496 1157 C 448 1147 409 1135 377 1121 C 345 1107 319 1093 300 1077 C 280 1061 266 1043 258 1025 C 250 1007 246 988 246 969 C 246 939 253 916 269 902 C 284 888 304 881 330 881 Z" unicode="ª" />
<glyph horiz-adv-x="1020" d="M 469 543 L 733 1083 L 956 1083 L 698 543 L 956 0 L 733 0 L 469 543 Z M 53 543 L 317 1083 L 541 1083 L 285 543 L 541 0 L 317 0 L 53 543 Z" unicode="«" />
<glyph horiz-adv-x="1536" d="M 1116 352 L 1116 728 L 212 728 L 212 920 L 1296 920 L 1296 352 L 1116 352 Z" unicode="¬" />
<glyph horiz-adv-x="639" d="M 90 729 L 549 729 L 549 549 L 90 549 L 90 729 Z" unicode="­" />
<glyph horiz-adv-x="971" d="M 485 598 C 428 598 375 610 327 634 C 279 658 237 692 202 734 C 167 776 140 826 120 884 C 100 942 90 1004 90 1071 C 90 1137 100 1198 120 1256 C 140 1314 167 1364 203 1406 C 239 1448 281 1482 329 1507 C 377 1531 430 1544 487 1544 C 543 1544 596 1531 645 1507 C 693 1483 735 1449 770 1407 C 805 1365 833 1315 853 1258 C 873 1200 883 1139 883 1073 C 883 1006 873 944 853 886 C 833 828 805 778 769 736 C 733 693 691 659 643 635 C 594 610 541 598 485 598 Z M 487 666 C 533 666 575 676 615 697 C 654 717 688 746 716 782 C 744 818 767 861 783 911 C 799 960 807 1013 807 1071 C 807 1127 798 1180 782 1230 C 766 1279 743 1322 715 1359 C 686 1395 652 1424 613 1445 C 573 1466 531 1477 485 1477 C 439 1477 396 1466 357 1446 C 318 1425 284 1396 256 1360 C 228 1324 206 1281 190 1232 C 174 1182 166 1129 166 1073 C 166 1016 174 963 190 913 C 206 863 228 820 256 784 C 284 747 318 718 358 697 C 397 676 440 666 487 666 Z M 330 1335 L 489 1335 C 541 1335 582 1322 611 1296 C 640 1270 655 1231 655 1178 C 655 1136 647 1104 632 1082 C 617 1059 598 1042 575 1032 L 664 825 L 561 825 L 477 1018 L 426 1018 L 426 825 L 330 825 L 330 1335 Z M 483 1098 C 510 1098 530 1103 542 1115 C 554 1127 561 1146 561 1174 C 561 1200 554 1219 542 1230 C 530 1241 510 1247 483 1247 L 426 1247 L 426 1098 L 483 1098 Z" unicode="®" />
<glyph horiz-adv-x="948" d="M 203 1374 L 743 1374 L 743 1194 L 203 1194 L 203 1374 Z" unicode="¯" />
<glyph horiz-adv-x="711" d="M 356 944 C 316 944 279 951 246 966 C 212 980 184 1001 160 1028 C 136 1054 117 1086 104 1123 C 90 1159 84 1199 84 1243 C 84 1286 90 1326 104 1363 C 117 1399 136 1431 160 1457 C 184 1483 212 1504 246 1519 C 279 1534 316 1542 356 1542 C 396 1542 432 1534 465 1520 C 498 1505 526 1484 550 1458 C 574 1432 592 1400 605 1364 C 618 1328 625 1288 625 1245 C 625 1201 618 1161 605 1124 C 592 1087 574 1055 550 1029 C 526 1002 498 981 465 966 C 432 951 396 944 356 944 Z M 356 1067 C 395 1067 426 1082 449 1114 C 471 1146 483 1189 483 1243 C 483 1297 471 1340 449 1372 C 426 1403 395 1419 356 1419 C 316 1419 284 1403 261 1372 C 238 1340 227 1297 227 1243 C 227 1189 238 1146 261 1114 C 284 1082 316 1067 356 1067 Z" unicode="°" />
<glyph horiz-adv-x="1128" d="M 104 266 L 467 266 L 467 641 L 104 641 L 104 829 L 467 829 L 467 1237 L 664 1237 L 664 829 L 1024 829 L 1024 641 L 664 641 L 664 266 L 1024 266 L 1024 86 L 104 86 L 104 266 Z" unicode="±" />
<glyph horiz-adv-x="743" d="M 74 643 C 74 705 84 759 104 804 C 124 849 148 889 178 923 C 208 957 240 987 275 1014 C 310 1041 342 1067 372 1093 C 402 1119 427 1146 447 1174 C 467 1202 477 1234 477 1272 C 477 1304 469 1330 454 1348 C 438 1366 415 1376 383 1376 C 351 1376 323 1363 300 1337 C 276 1311 255 1274 236 1225 L 76 1292 C 91 1331 108 1366 128 1396 C 147 1426 169 1452 195 1472 C 220 1492 249 1508 281 1518 C 313 1528 349 1534 389 1534 C 475 1534 542 1511 590 1465 C 638 1419 662 1355 662 1272 C 662 1227 653 1187 636 1153 C 618 1118 596 1086 570 1058 C 543 1030 514 1004 483 980 C 451 956 422 932 395 909 C 367 885 344 861 324 837 C 304 813 293 786 291 758 L 659 758 L 659 596 L 74 596 L 74 643 Z" unicode="²" />
<glyph horiz-adv-x="764" d="M 375 584 C 295 584 228 603 176 643 C 124 683 83 739 53 813 L 199 885 C 220 832 245 794 273 772 C 301 750 333 739 371 739 C 414 739 447 751 469 776 C 491 800 502 832 502 870 C 502 924 487 964 457 988 C 427 1012 379 1024 313 1024 L 270 1024 L 270 1143 L 328 1143 C 384 1143 424 1154 448 1177 C 471 1200 483 1232 483 1272 C 483 1300 474 1325 458 1345 C 442 1365 416 1376 381 1376 C 347 1376 316 1367 289 1349 C 262 1331 236 1306 211 1272 L 84 1364 C 163 1480 266 1538 393 1538 C 436 1538 474 1531 508 1519 C 542 1507 570 1490 593 1468 C 615 1446 632 1421 644 1392 C 656 1362 662 1330 662 1296 C 662 1248 651 1208 630 1174 C 608 1140 577 1112 535 1092 C 584 1070 620 1041 644 1004 C 668 967 680 920 680 864 C 680 820 672 781 658 747 C 643 713 622 683 596 659 C 569 635 537 616 499 603 C 461 590 420 584 375 584 Z" unicode="³" />
<glyph horiz-adv-x="948" d="M 537 1528 L 780 1528 L 530 1198 L 371 1198 L 537 1528 Z" unicode="´" />
<glyph horiz-adv-x="1063" d="M 113 1087 L 348 1087 L 348 334 C 348 281 357 241 376 214 C 394 187 427 174 475 174 C 518 174 559 185 598 208 C 636 230 675 259 713 295 L 713 1087 L 946 1087 L 946 0 L 713 0 L 713 152 C 697 134 679 117 660 99 C 640 81 619 65 597 50 C 574 35 550 22 524 12 C 498 1 470 -5 440 -8 C 399 -10 368 -1 348 18 L 348 -410 L 113 -410 L 113 1087 Z" unicode="µ" />
<glyph horiz-adv-x="1147" d="M 504 676 C 437 676 377 686 325 704 C 273 722 229 749 193 784 C 157 819 129 862 110 914 C 91 965 82 1024 82 1092 C 82 1152 91 1207 109 1259 C 127 1311 153 1356 187 1394 C 221 1432 262 1461 311 1483 C 360 1505 416 1516 479 1516 L 1026 1516 L 1026 -410 L 840 -410 L 840 1325 L 688 1325 L 688 -410 L 504 -410 L 504 676 Z" unicode="¶" />
<glyph horiz-adv-x="547" d="M 135 756 L 412 756 L 412 492 L 135 492 L 135 756 Z" unicode="·" />
<glyph horiz-adv-x="948" d="M 483 -422 C 433 -422 386 -415 342 -402 C 298 -388 260 -371 227 -350 L 283 -256 C 308 -273 338 -287 372 -297 C 406 -307 441 -313 475 -313 C 510 -313 537 -306 557 -293 C 576 -280 586 -261 586 -236 C 586 -194 564 -174 520 -174 C 503 -174 488 -177 474 -184 C 460 -190 446 -199 434 -211 L 360 -178 L 416 12 L 526 12 L 494 -106 C 506 -96 521 -89 539 -84 C 557 -78 577 -76 600 -76 C 617 -76 634 -78 651 -84 C 667 -90 682 -98 695 -110 C 707 -122 717 -137 725 -155 C 733 -173 737 -194 737 -219 C 737 -249 730 -277 717 -302 C 704 -327 686 -348 664 -366 C 641 -384 614 -397 583 -407 C 552 -417 519 -422 483 -422 Z" unicode="¸" />
<glyph horiz-adv-x="625" d="M 100 752 L 238 752 L 238 1321 C 220 1313 200 1307 178 1303 C 155 1298 130 1296 102 1296 L 102 1458 C 140 1460 171 1465 195 1474 C 219 1483 241 1497 260 1516 L 430 1516 L 430 752 L 551 752 L 551 592 L 100 592 L 100 752 Z" unicode="¹" />
<glyph horiz-adv-x="791" d="M 395 745 C 351 745 310 753 272 769 C 233 785 199 809 170 842 C 140 874 117 916 100 966 C 82 1016 74 1076 74 1145 C 74 1213 82 1273 99 1323 C 116 1373 139 1415 169 1448 C 198 1480 232 1504 271 1520 C 310 1536 351 1544 395 1544 C 438 1544 479 1536 518 1520 C 557 1504 591 1480 621 1448 C 650 1415 673 1373 691 1323 C 708 1273 717 1213 717 1145 C 717 1076 708 1016 691 966 C 673 916 650 874 621 842 C 591 809 557 785 518 769 C 479 753 438 745 395 745 Z M 395 881 C 447 881 485 904 509 950 C 533 996 545 1061 545 1145 C 545 1183 542 1217 536 1249 C 530 1280 522 1307 510 1330 C 498 1353 482 1371 463 1384 C 444 1396 421 1403 395 1403 C 343 1403 306 1380 282 1335 C 258 1289 246 1226 246 1145 C 246 1106 248 1070 254 1038 C 259 1006 268 978 280 955 C 292 931 307 913 326 900 C 344 887 367 881 395 881 Z" unicode="º" />
<glyph horiz-adv-x="1020" d="M 735 543 L 479 1083 L 702 1083 L 965 543 L 702 0 L 479 0 L 735 543 Z M 322 543 L 63 1083 L 287 1083 L 551 543 L 287 0 L 63 0 L 322 543 Z" unicode="»" />
<glyph horiz-adv-x="1602" d="M 80 754 L 217 754 L 217 1317 C 183 1300 138 1292 82 1292 L 82 1458 C 120 1459 151 1464 175 1473 C 199 1482 221 1496 240 1516 L 410 1516 L 410 754 L 530 754 L 530 590 L 80 590 L 80 754 Z M 1266 203 L 911 203 L 911 328 L 1257 926 L 1448 926 L 1448 358 L 1569 358 L 1569 203 L 1448 203 L 1448 0 L 1266 0 L 1266 203 Z M 1124 1516 L 1321 1516 L 551 0 L 354 0 L 1124 1516 Z M 1276 350 L 1276 686 L 1085 350 L 1276 350 Z" unicode="¼" />
<glyph horiz-adv-x="1681" d="M 1032 47 C 1032 109 1042 163 1062 208 C 1082 253 1107 293 1137 327 C 1167 361 1199 391 1234 418 C 1268 445 1301 471 1331 497 C 1361 523 1386 550 1406 578 C 1426 606 1436 638 1436 676 C 1436 708 1428 734 1412 752 C 1396 770 1373 780 1341 780 C 1309 780 1281 767 1258 741 C 1234 715 1213 678 1194 629 L 1034 696 C 1065 775 1106 835 1157 876 C 1207 917 1271 938 1348 938 C 1434 938 1501 915 1549 869 C 1596 823 1620 759 1620 676 C 1620 631 1611 591 1594 557 C 1576 522 1554 490 1528 462 C 1501 434 1472 408 1441 384 C 1410 360 1381 336 1353 313 C 1325 289 1302 265 1283 241 C 1263 217 1252 190 1249 162 L 1618 162 L 1618 0 L 1032 0 L 1032 47 Z M 80 754 L 217 754 L 217 1317 C 183 1300 138 1292 82 1292 L 82 1458 C 120 1459 151 1464 175 1473 C 199 1482 221 1496 240 1516 L 410 1516 L 410 754 L 530 754 L 530 590 L 80 590 L 80 754 Z M 1124 1516 L 1321 1516 L 551 0 L 354 0 L 1124 1516 Z" unicode="½" />
<glyph horiz-adv-x="1642" d="M 350 580 C 273 580 208 600 156 641 C 104 681 63 738 33 811 L 176 883 C 197 830 222 793 251 771 C 280 749 311 739 344 739 C 385 739 417 750 440 774 C 463 797 475 828 475 866 C 475 920 460 960 430 984 C 400 1008 353 1020 287 1020 L 246 1020 L 246 1139 L 301 1139 C 330 1139 355 1142 375 1148 C 395 1154 411 1162 423 1173 C 435 1184 443 1198 449 1214 C 454 1230 457 1248 457 1268 C 457 1296 448 1320 432 1340 C 416 1360 390 1370 354 1370 C 325 1370 297 1360 269 1341 C 241 1322 214 1296 188 1262 L 61 1352 C 101 1410 146 1455 196 1487 C 246 1518 303 1534 367 1534 C 411 1534 449 1527 483 1515 C 516 1503 544 1486 567 1464 C 589 1442 606 1417 618 1388 C 629 1358 635 1326 635 1292 C 635 1196 592 1128 508 1087 C 558 1065 595 1036 619 1000 C 643 963 655 916 655 860 C 655 816 647 777 632 743 C 617 709 596 679 570 655 C 543 631 511 612 473 599 C 435 586 394 580 350 580 Z M 1309 203 L 954 203 L 954 328 L 1300 926 L 1489 926 L 1489 358 L 1610 358 L 1610 203 L 1489 203 L 1489 0 L 1309 0 L 1309 203 Z M 1165 1516 L 1362 1516 L 594 0 L 397 0 L 1165 1516 Z M 1317 350 L 1317 686 L 1126 350 L 1317 350 Z" unicode="¾" />
<glyph horiz-adv-x="991" d="M 401 1516 L 666 1516 L 666 1266 L 401 1266 L 401 1516 Z M 467 -29 C 402 -29 345 -19 296 -1 C 247 16 206 42 173 74 C 140 106 115 143 99 186 C 82 229 74 276 74 326 C 74 374 79 416 90 452 C 101 488 116 520 134 548 C 152 576 173 602 197 626 C 220 649 244 672 270 696 C 304 728 331 756 352 781 C 373 806 390 832 402 860 C 414 887 422 918 426 953 C 430 988 432 1031 432 1083 L 631 1083 C 633 1061 634 1041 634 1021 C 634 1001 635 981 635 961 C 635 917 629 878 619 844 C 609 810 595 778 578 750 C 560 722 540 696 518 672 C 495 648 471 624 446 602 C 423 582 403 562 385 544 C 367 525 351 506 339 486 C 327 466 317 444 311 421 C 304 398 301 372 301 344 C 301 290 316 249 348 219 C 379 189 423 174 481 174 C 510 174 537 179 562 190 C 587 201 610 216 631 235 C 652 253 671 275 688 300 C 705 324 720 351 733 379 L 926 299 C 904 250 879 205 850 165 C 821 125 788 90 750 62 C 712 33 669 11 622 -5 C 575 -21 523 -29 467 -29 Z" unicode="¿" />
<glyph horiz-adv-x="1194" d="M 264 0 L 39 0 L 481 1522 L 713 1522 L 1155 0 L 913 0 L 815 362 L 365 362 L 264 0 Z M 709 758 C 697 800 685 840 675 878 C 665 916 655 952 645 988 C 635 1023 626 1058 618 1092 C 610 1126 602 1162 594 1198 L 590 1198 C 582 1162 573 1126 564 1092 C 555 1057 546 1022 536 987 C 526 952 516 916 506 879 C 496 841 485 802 473 760 L 422 573 L 758 573 L 709 758 Z M 279 1938 L 525 1938 L 689 1608 L 529 1608 L 279 1938 Z" unicode="À" />
<glyph horiz-adv-x="1194" d="M 264 0 L 39 0 L 481 1522 L 713 1522 L 1155 0 L 913 0 L 815 362 L 365 362 L 264 0 Z M 709 758 C 697 800 685 840 675 878 C 665 916 655 952 645 988 C 635 1023 626 1058 618 1092 C 610 1126 602 1162 594 1198 L 590 1198 C 582 1162 573 1126 564 1092 C 555 1057 546 1022 536 987 C 526 952 516 916 506 879 C 496 841 485 802 473 760 L 422 573 L 758 573 L 709 758 Z M 670 1938 L 913 1938 L 663 1608 L 504 1608 L 670 1938 Z" unicode="Á" />
<glyph horiz-adv-x="1194" d="M 264 0 L 39 0 L 481 1522 L 713 1522 L 1155 0 L 913 0 L 815 362 L 365 362 L 264 0 Z M 709 758 C 697 800 685 840 675 878 C 665 916 655 952 645 988 C 635 1023 626 1058 618 1092 C 610 1126 602 1162 594 1198 L 590 1198 C 582 1162 573 1126 564 1092 C 555 1057 546 1022 536 987 C 526 952 516 916 506 879 C 496 841 485 802 473 760 L 422 573 L 758 573 L 709 758 Z M 518 1927 L 676 1927 L 901 1595 L 762 1595 L 596 1759 L 430 1595 L 293 1595 L 518 1927 Z" unicode="Â" />
<glyph horiz-adv-x="1194" d="M 264 0 L 39 0 L 481 1522 L 713 1522 L 1155 0 L 913 0 L 815 362 L 365 362 L 264 0 Z M 709 758 C 697 800 685 840 675 878 C 665 916 655 952 645 988 C 635 1023 626 1058 618 1092 C 610 1126 602 1162 594 1198 L 590 1198 C 582 1162 573 1126 564 1092 C 555 1057 546 1022 536 987 C 526 952 516 916 506 879 C 496 841 485 802 473 760 L 422 573 L 758 573 L 709 758 Z M 735 1592 C 704 1592 676 1598 652 1610 C 627 1622 604 1635 583 1649 C 562 1663 542 1676 524 1688 C 506 1700 487 1706 469 1706 C 445 1706 427 1697 415 1681 C 403 1664 397 1636 397 1596 L 268 1596 C 268 1694 285 1766 319 1811 C 353 1855 400 1878 461 1878 C 491 1878 518 1872 542 1860 C 566 1848 589 1835 610 1821 C 631 1807 651 1794 670 1782 C 688 1770 707 1764 727 1764 C 750 1764 768 1772 780 1788 C 792 1804 799 1832 799 1874 L 926 1874 C 926 1824 921 1782 913 1746 C 904 1710 891 1681 875 1658 C 858 1635 838 1618 815 1608 C 791 1597 765 1592 735 1592 Z" unicode="Ã" />
<glyph horiz-adv-x="1194" d="M 264 0 L 39 0 L 481 1522 L 713 1522 L 1155 0 L 913 0 L 815 362 L 365 362 L 264 0 Z M 709 758 C 697 800 685 840 675 878 C 665 916 655 952 645 988 C 635 1023 626 1058 618 1092 C 610 1126 602 1162 594 1198 L 590 1198 C 582 1162 573 1126 564 1092 C 555 1057 546 1022 536 987 C 526 952 516 916 506 879 C 496 841 485 802 473 760 L 422 573 L 758 573 L 709 758 Z M 672 1837 L 881 1837 L 881 1604 L 672 1604 L 672 1837 Z M 313 1837 L 524 1837 L 524 1604 L 313 1604 L 313 1837 Z" unicode="Ä" />
<glyph horiz-adv-x="1194" d="M 264 0 L 39 0 L 481 1522 L 713 1522 L 1155 0 L 913 0 L 815 362 L 365 362 L 264 0 Z M 709 758 C 697 800 685 840 675 878 C 665 916 655 952 645 988 C 635 1023 626 1058 618 1092 C 610 1126 602 1162 594 1198 L 590 1198 C 582 1162 573 1126 564 1092 C 555 1057 546 1022 536 987 C 526 952 516 916 506 879 C 496 841 485 802 473 760 L 422 573 L 758 573 L 709 758 Z M 596 1430 C 567 1430 541 1435 518 1446 C 494 1456 474 1471 458 1490 C 441 1509 428 1531 419 1557 C 410 1583 406 1610 406 1640 C 406 1670 410 1698 419 1724 C 428 1750 441 1772 458 1791 C 474 1809 494 1824 518 1835 C 541 1845 567 1851 596 1851 C 624 1851 650 1845 674 1835 C 698 1824 718 1809 735 1791 C 752 1772 765 1750 775 1724 C 784 1698 789 1670 789 1640 C 789 1610 784 1583 775 1557 C 765 1531 752 1509 735 1490 C 718 1471 698 1456 674 1446 C 650 1435 624 1430 596 1430 Z M 596 1530 C 609 1530 621 1533 631 1539 C 641 1545 649 1553 656 1563 C 663 1573 668 1584 672 1598 C 676 1611 678 1625 678 1640 C 678 1669 671 1694 657 1715 C 643 1736 622 1747 596 1747 C 583 1747 572 1744 562 1738 C 552 1732 543 1725 537 1715 C 530 1705 525 1694 521 1681 C 517 1668 516 1654 516 1640 C 516 1625 517 1611 521 1598 C 525 1584 530 1573 537 1563 C 543 1553 552 1545 562 1539 C 572 1533 583 1530 596 1530 Z" unicode="Å" />
<glyph horiz-adv-x="1761" d="M 723 1516 L 1663 1516 L 1663 1292 L 1085 1292 L 1085 901 L 1505 901 L 1505 688 L 1085 688 L 1085 217 L 1696 217 L 1696 0 L 846 0 L 846 428 L 459 428 L 268 0 L 31 0 L 723 1516 Z M 846 631 L 846 1284 L 549 631 L 846 631 Z" unicode="Æ" />
<glyph horiz-adv-x="1221" d="M 641 -27 C 555 -27 478 -11 409 21 C 340 53 281 101 233 166 C 184 231 146 313 120 412 C 93 510 80 626 80 760 C 80 890 93 1005 121 1103 C 148 1201 186 1283 236 1348 C 286 1413 345 1462 415 1495 C 484 1527 561 1544 645 1544 C 721 1544 788 1532 844 1508 C 900 1484 948 1450 987 1406 C 1026 1362 1058 1309 1082 1248 C 1106 1186 1124 1118 1137 1044 L 911 1004 C 901 1058 888 1104 874 1144 C 859 1184 841 1217 819 1243 C 797 1269 772 1288 743 1300 C 713 1312 679 1319 639 1319 C 534 1319 455 1271 402 1176 C 348 1080 322 942 322 762 C 322 572 349 430 403 334 C 457 238 537 190 643 190 C 683 190 718 196 748 208 C 778 220 805 240 828 267 C 851 293 871 328 887 371 C 903 413 918 465 930 526 L 1153 489 C 1139 415 1118 346 1092 283 C 1066 220 1032 166 991 120 C 950 74 901 38 843 12 C 785 -14 718 -27 641 -27 Z M 618 -422 C 568 -422 521 -415 477 -402 C 433 -388 395 -371 362 -350 L 418 -256 C 443 -273 473 -287 507 -297 C 541 -307 576 -313 610 -313 C 645 -313 672 -306 692 -293 C 711 -280 721 -261 721 -236 C 721 -194 699 -174 655 -174 C 638 -174 623 -177 609 -184 C 595 -190 581 -199 569 -211 L 495 -178 L 551 12 L 661 12 L 629 -106 C 641 -96 656 -89 674 -84 C 692 -78 712 -76 735 -76 C 752 -76 769 -78 786 -84 C 802 -90 817 -98 830 -110 C 842 -122 852 -137 860 -155 C 868 -173 872 -194 872 -219 C 872 -249 865 -277 852 -302 C 839 -327 821 -348 799 -366 C 776 -384 749 -397 718 -407 C 687 -417 654 -422 618 -422 Z" unicode="Ç" />
<glyph horiz-adv-x="1059" d="M 141 1516 L 963 1516 L 963 1292 L 383 1292 L 383 903 L 803 903 L 803 686 L 383 686 L 383 217 L 993 217 L 993 0 L 141 0 L 141 1516 Z M 244 1938 L 490 1938 L 654 1608 L 494 1608 L 244 1938 Z" unicode="È" />
<glyph horiz-adv-x="1059" d="M 582 1938 L 825 1938 L 575 1608 L 416 1608 L 582 1938 Z M 141 1516 L 963 1516 L 963 1292 L 383 1292 L 383 903 L 803 903 L 803 686 L 383 686 L 383 217 L 993 217 L 993 0 L 141 0 L 141 1516 Z" unicode="É" />
<glyph horiz-adv-x="1059" d="M 461 1938 L 619 1938 L 844 1606 L 705 1606 L 539 1770 L 373 1606 L 236 1606 L 461 1938 Z M 141 1516 L 963 1516 L 963 1292 L 383 1292 L 383 903 L 803 903 L 803 686 L 383 686 L 383 217 L 993 217 L 993 0 L 141 0 L 141 1516 Z" unicode="Ê" />
<glyph horiz-adv-x="1059" d="M 615 1837 L 824 1837 L 824 1604 L 615 1604 L 615 1837 Z M 256 1837 L 467 1837 L 467 1604 L 256 1604 L 256 1837 Z M 141 1516 L 963 1516 L 963 1292 L 383 1292 L 383 903 L 803 903 L 803 686 L 383 686 L 383 217 L 993 217 L 993 0 L 141 0 L 141 1516 Z" unicode="Ë" />
<glyph horiz-adv-x="547" d="M 152 1516 L 393 1516 L 393 0 L 152 0 L 152 1516 Z M -40 1938 L 206 1938 L 370 1608 L 210 1608 L -40 1938 Z" unicode="Ì" />
<glyph horiz-adv-x="547" d="M 152 1516 L 393 1516 L 393 0 L 152 0 L 152 1516 Z M 348 1938 L 591 1938 L 341 1608 L 182 1608 L 348 1938 Z" unicode="Í" />
<glyph horiz-adv-x="547" d="M 152 1516 L 393 1516 L 393 0 L 152 0 L 152 1516 Z M 195 1938 L 353 1938 L 578 1606 L 439 1606 L 273 1770 L 107 1606 L -30 1606 L 195 1938 Z" unicode="Î" />
<glyph horiz-adv-x="547" d="M 152 1516 L 393 1516 L 393 0 L 152 0 L 152 1516 Z M 349 1837 L 558 1837 L 558 1604 L 349 1604 L 349 1837 Z M -10 1837 L 201 1837 L 201 1604 L -10 1604 L -10 1837 Z" unicode="Ï" />
<glyph horiz-adv-x="1255" d="M 23 696 L 23 887 L 141 887 L 141 1516 L 506 1516 C 609 1516 702 1502 785 1476 C 867 1450 938 1407 996 1348 C 1054 1288 1098 1211 1129 1115 C 1160 1019 1176 901 1176 762 C 1176 621 1160 502 1128 405 C 1096 308 1051 230 993 170 C 935 110 864 66 782 40 C 700 13 608 0 506 0 L 141 0 L 141 696 L 23 696 Z M 631 887 L 631 696 L 383 696 L 383 215 L 532 215 C 602 215 663 224 714 244 C 764 264 806 295 838 339 C 870 383 894 439 909 509 C 924 578 932 662 932 762 C 932 858 924 939 909 1007 C 894 1075 870 1130 838 1172 C 805 1214 763 1245 713 1265 C 662 1284 601 1294 530 1294 L 383 1294 L 383 887 L 631 887 Z" unicode="Ð" />
<glyph horiz-adv-x="1309" d="M 141 1516 L 401 1516 L 813 711 C 825 686 837 663 847 643 C 857 623 867 603 877 583 C 887 563 897 542 907 520 C 917 498 929 474 942 446 L 946 446 L 946 1516 L 1165 1516 L 1165 0 L 942 0 L 492 856 C 479 880 468 901 458 921 C 448 940 438 959 429 978 C 419 997 409 1017 399 1038 C 389 1059 377 1084 365 1112 L 360 1112 L 360 0 L 141 0 L 141 1516 Z M 792 1592 C 761 1592 733 1598 709 1610 C 684 1622 661 1635 640 1649 C 619 1663 599 1676 581 1688 C 563 1700 544 1706 526 1706 C 502 1706 484 1697 472 1681 C 460 1664 454 1636 454 1596 L 325 1596 C 325 1694 342 1766 376 1811 C 410 1855 457 1878 518 1878 C 548 1878 575 1872 599 1860 C 623 1848 646 1835 667 1821 C 688 1807 708 1794 727 1782 C 745 1770 764 1764 784 1764 C 807 1764 825 1772 837 1788 C 849 1804 856 1832 856 1874 L 983 1874 C 983 1824 978 1782 970 1746 C 961 1710 948 1681 932 1658 C 915 1635 895 1618 872 1608 C 848 1597 822 1592 792 1592 Z" unicode="Ñ" />
<glyph horiz-adv-x="1309" d="M 655 -29 C 574 -29 499 -12 429 20 C 359 52 298 101 246 167 C 194 232 154 314 124 412 C 94 510 80 626 80 758 C 80 889 94 1004 124 1102 C 154 1200 194 1282 246 1348 C 298 1413 359 1462 429 1495 C 499 1527 574 1544 655 1544 C 735 1544 810 1527 880 1495 C 950 1462 1010 1413 1062 1348 C 1114 1282 1154 1200 1184 1102 C 1214 1004 1229 889 1229 758 C 1229 626 1214 510 1184 412 C 1154 314 1114 232 1062 167 C 1010 101 950 52 880 20 C 810 -12 735 -29 655 -29 Z M 655 190 C 760 190 841 238 899 335 C 956 431 985 572 985 758 C 985 942 956 1081 898 1177 C 840 1273 759 1321 655 1321 C 549 1321 467 1273 409 1177 C 351 1081 322 942 322 758 C 322 572 351 431 409 335 C 467 238 549 190 655 190 Z M 348 1938 L 594 1938 L 758 1608 L 598 1608 L 348 1938 Z" unicode="Ò" />
<glyph horiz-adv-x="1309" d="M 717 1938 L 960 1938 L 710 1608 L 551 1608 L 717 1938 Z M 655 -29 C 574 -29 499 -12 429 20 C 359 52 298 101 246 167 C 194 232 154 314 124 412 C 94 510 80 626 80 758 C 80 889 94 1004 124 1102 C 154 1200 194 1282 246 1348 C 298 1413 359 1462 429 1495 C 499 1527 574 1544 655 1544 C 735 1544 810 1527 880 1495 C 950 1462 1010 1413 1062 1348 C 1114 1282 1154 1200 1184 1102 C 1214 1004 1229 889 1229 758 C 1229 626 1214 510 1184 412 C 1154 314 1114 232 1062 167 C 1010 101 950 52 880 20 C 810 -12 735 -29 655 -29 Z M 655 190 C 760 190 841 238 899 335 C 956 431 985 572 985 758 C 985 942 956 1081 898 1177 C 840 1273 759 1321 655 1321 C 549 1321 467 1273 409 1177 C 351 1081 322 942 322 758 C 322 572 351 431 409 335 C 467 238 549 190 655 190 Z" unicode="Ó" />
<glyph horiz-adv-x="1309" d="M 575 1938 L 733 1938 L 958 1606 L 819 1606 L 653 1770 L 487 1606 L 350 1606 L 575 1938 Z M 655 -29 C 574 -29 499 -12 429 20 C 359 52 298 101 246 167 C 194 232 154 314 124 412 C 94 510 80 626 80 758 C 80 889 94 1004 124 1102 C 154 1200 194 1282 246 1348 C 298 1413 359 1462 429 1495 C 499 1527 574 1544 655 1544 C 735 1544 810 1527 880 1495 C 950 1462 1010 1413 1062 1348 C 1114 1282 1154 1200 1184 1102 C 1214 1004 1229 889 1229 758 C 1229 626 1214 510 1184 412 C 1154 314 1114 232 1062 167 C 1010 101 950 52 880 20 C 810 -12 735 -29 655 -29 Z M 655 190 C 760 190 841 238 899 335 C 956 431 985 572 985 758 C 985 942 956 1081 898 1177 C 840 1273 759 1321 655 1321 C 549 1321 467 1273 409 1177 C 351 1081 322 942 322 758 C 322 572 351 431 409 335 C 467 238 549 190 655 190 Z" unicode="Ô" />
<glyph horiz-adv-x="1309" d="M 655 -29 C 574 -29 499 -12 429 20 C 359 52 298 101 246 167 C 194 232 154 314 124 412 C 94 510 80 626 80 758 C 80 889 94 1004 124 1102 C 154 1200 194 1282 246 1348 C 298 1413 359 1462 429 1495 C 499 1527 574 1544 655 1544 C 735 1544 810 1527 880 1495 C 950 1462 1010 1413 1062 1348 C 1114 1282 1154 1200 1184 1102 C 1214 1004 1229 889 1229 758 C 1229 626 1214 510 1184 412 C 1154 314 1114 232 1062 167 C 1010 101 950 52 880 20 C 810 -12 735 -29 655 -29 Z M 655 190 C 760 190 841 238 899 335 C 956 431 985 572 985 758 C 985 942 956 1081 898 1177 C 840 1273 759 1321 655 1321 C 549 1321 467 1273 409 1177 C 351 1081 322 942 322 758 C 322 572 351 431 409 335 C 467 238 549 190 655 190 Z M 792 1592 C 761 1592 733 1598 709 1610 C 684 1622 661 1635 640 1649 C 619 1663 599 1676 581 1688 C 563 1700 544 1706 526 1706 C 502 1706 484 1697 472 1681 C 460 1664 454 1636 454 1596 L 325 1596 C 325 1694 342 1766 376 1811 C 410 1855 457 1878 518 1878 C 548 1878 575 1872 599 1860 C 623 1848 646 1835 667 1821 C 688 1807 708 1794 727 1782 C 745 1770 764 1764 784 1764 C 807 1764 825 1772 837 1788 C 849 1804 856 1832 856 1874 L 983 1874 C 983 1824 978 1782 970 1746 C 961 1710 948 1681 932 1658 C 915 1635 895 1618 872 1608 C 848 1597 822 1592 792 1592 Z" unicode="Õ" />
<glyph horiz-adv-x="1309" d="M 729 1837 L 938 1837 L 938 1604 L 729 1604 L 729 1837 Z M 370 1837 L 581 1837 L 581 1604 L 370 1604 L 370 1837 Z M 655 -29 C 574 -29 499 -12 429 20 C 359 52 298 101 246 167 C 194 232 154 314 124 412 C 94 510 80 626 80 758 C 80 889 94 1004 124 1102 C 154 1200 194 1282 246 1348 C 298 1413 359 1462 429 1495 C 499 1527 574 1544 655 1544 C 735 1544 810 1527 880 1495 C 950 1462 1010 1413 1062 1348 C 1114 1282 1154 1200 1184 1102 C 1214 1004 1229 889 1229 758 C 1229 626 1214 510 1184 412 C 1154 314 1114 232 1062 167 C 1010 101 950 52 880 20 C 810 -12 735 -29 655 -29 Z M 655 190 C 760 190 841 238 899 335 C 956 431 985 572 985 758 C 985 942 956 1081 898 1177 C 840 1273 759 1321 655 1321 C 549 1321 467 1273 409 1177 C 351 1081 322 942 322 758 C 322 572 351 431 409 335 C 467 238 549 190 655 190 Z" unicode="Ö" />
<glyph horiz-adv-x="1126" d="M 121 377 L 432 688 L 121 997 L 252 1128 L 563 817 L 872 1128 L 1004 997 L 692 688 L 1004 377 L 872 246 L 563 557 L 252 246 L 121 377 Z" unicode="×" />
<glyph horiz-adv-x="1309" d="M 1077 1327 C 1124 1262 1161 1182 1188 1088 C 1215 994 1229 884 1229 758 C 1229 626 1214 510 1184 412 C 1154 314 1114 232 1062 167 C 1010 101 950 52 880 20 C 810 -12 735 -29 655 -29 C 596 -29 540 -20 488 -3 C 436 14 387 40 342 74 L 240 -94 L 106 -12 L 229 190 C 181 256 145 336 119 430 C 93 524 80 633 80 758 C 80 889 94 1004 124 1102 C 154 1200 194 1282 246 1348 C 298 1413 359 1462 429 1495 C 499 1527 574 1544 655 1544 C 771 1544 874 1510 965 1444 L 1069 1612 L 1202 1530 L 1077 1327 Z M 852 1243 C 825 1269 795 1290 763 1304 C 730 1318 694 1325 655 1325 C 602 1325 555 1312 513 1288 C 471 1263 435 1227 406 1179 C 377 1131 355 1072 340 1002 C 324 931 317 850 317 758 C 317 687 321 623 331 565 C 340 507 353 456 371 410 L 852 1243 Z M 453 272 C 506 214 573 186 655 186 C 707 186 753 198 795 223 C 836 248 871 285 900 333 C 928 381 950 441 966 513 C 981 584 989 666 989 758 C 989 899 971 1015 936 1106 L 453 272 Z" unicode="Ø" />
<glyph horiz-adv-x="1243" d="M 623 -27 C 535 -27 459 -14 396 10 C 333 34 281 70 241 117 C 201 163 171 220 153 286 C 134 352 125 426 125 510 L 125 1516 L 367 1516 L 367 532 C 367 474 371 423 381 380 C 390 337 405 301 425 273 C 445 245 472 223 505 209 C 538 195 579 188 627 188 C 673 188 713 195 746 209 C 779 223 806 244 826 272 C 846 300 861 336 871 379 C 880 421 885 471 885 528 L 885 1516 L 1116 1516 L 1116 514 C 1116 431 1106 356 1088 290 C 1069 223 1040 166 1000 119 C 960 72 908 36 846 11 C 784 -14 709 -27 623 -27 Z M 315 1938 L 561 1938 L 725 1608 L 565 1608 L 315 1938 Z" unicode="Ù" />
<glyph horiz-adv-x="1243" d="M 684 1938 L 927 1938 L 677 1608 L 518 1608 L 684 1938 Z M 623 -27 C 535 -27 459 -14 396 10 C 333 34 281 70 241 117 C 201 163 171 220 153 286 C 134 352 125 426 125 510 L 125 1516 L 367 1516 L 367 532 C 367 474 371 423 381 380 C 390 337 405 301 425 273 C 445 245 472 223 505 209 C 538 195 579 188 627 188 C 673 188 713 195 746 209 C 779 223 806 244 826 272 C 846 300 861 336 871 379 C 880 421 885 471 885 528 L 885 1516 L 1116 1516 L 1116 514 C 1116 431 1106 356 1088 290 C 1069 223 1040 166 1000 119 C 960 72 908 36 846 11 C 784 -14 709 -27 623 -27 Z" unicode="Ú" />
<glyph horiz-adv-x="1243" d="M 542 1938 L 700 1938 L 925 1606 L 786 1606 L 620 1770 L 454 1606 L 317 1606 L 542 1938 Z M 623 -27 C 535 -27 459 -14 396 10 C 333 34 281 70 241 117 C 201 163 171 220 153 286 C 134 352 125 426 125 510 L 125 1516 L 367 1516 L 367 532 C 367 474 371 423 381 380 C 390 337 405 301 425 273 C 445 245 472 223 505 209 C 538 195 579 188 627 188 C 673 188 713 195 746 209 C 779 223 806 244 826 272 C 846 300 861 336 871 379 C 880 421 885 471 885 528 L 885 1516 L 1116 1516 L 1116 514 C 1116 431 1106 356 1088 290 C 1069 223 1040 166 1000 119 C 960 72 908 36 846 11 C 784 -14 709 -27 623 -27 Z" unicode="Û" />
<glyph horiz-adv-x="1243" d="M 696 1837 L 905 1837 L 905 1604 L 696 1604 L 696 1837 Z M 337 1837 L 548 1837 L 548 1604 L 337 1604 L 337 1837 Z M 623 -27 C 535 -27 459 -14 396 10 C 333 34 281 70 241 117 C 201 163 171 220 153 286 C 134 352 125 426 125 510 L 125 1516 L 367 1516 L 367 532 C 367 474 371 423 381 380 C 390 337 405 301 425 273 C 445 245 472 223 505 209 C 538 195 579 188 627 188 C 673 188 713 195 746 209 C 779 223 806 244 826 272 C 846 300 861 336 871 379 C 880 421 885 471 885 528 L 885 1516 L 1116 1516 L 1116 514 C 1116 431 1106 356 1088 290 C 1069 223 1040 166 1000 119 C 960 72 908 36 846 11 C 784 -14 709 -27 623 -27 Z" unicode="Ü" />
<glyph horiz-adv-x="1128" d="M 442 610 L 18 1516 L 266 1516 L 567 829 L 571 829 L 872 1516 L 1108 1516 L 684 612 L 684 0 L 442 0 L 442 610 Z M 627 1938 L 870 1938 L 620 1608 L 461 1608 L 627 1938 Z" unicode="Ý" />
<glyph horiz-adv-x="1153" d="M 141 1516 L 379 1516 L 379 1255 L 582 1255 C 651 1255 716 1246 777 1230 C 837 1213 890 1186 935 1149 C 979 1112 1014 1064 1040 1005 C 1066 945 1079 873 1079 788 C 1079 696 1065 620 1037 559 C 1009 497 972 448 926 411 C 879 374 825 348 764 332 C 703 316 639 309 573 309 L 379 309 L 379 0 L 141 0 L 141 1516 Z M 582 520 C 672 520 739 540 783 580 C 826 620 848 688 848 782 C 848 828 842 867 832 899 C 821 931 805 957 783 977 C 761 997 733 1011 699 1020 C 665 1029 626 1034 580 1034 L 379 1034 L 379 520 L 582 520 Z" unicode="Þ" />
<glyph horiz-adv-x="1141" d="M 686 -20 C 620 -20 566 -14 524 -2 C 482 10 446 25 418 45 L 514 207 C 534 194 557 184 582 176 C 607 168 636 164 668 164 C 693 164 717 169 741 179 C 764 189 784 205 802 226 C 820 247 834 274 844 306 C 854 338 860 376 860 420 C 860 473 852 518 838 555 C 824 592 802 622 772 646 C 742 670 705 688 660 700 C 614 712 560 719 498 723 L 498 901 C 586 901 650 921 690 960 C 730 998 750 1053 750 1124 C 750 1184 733 1230 700 1264 C 667 1298 619 1315 557 1315 C 490 1315 439 1294 404 1252 C 369 1210 352 1146 352 1061 L 352 0 L 119 0 L 119 1055 C 119 1131 129 1197 150 1255 C 171 1312 201 1360 239 1399 C 277 1437 324 1466 378 1486 C 432 1506 492 1516 559 1516 C 621 1516 678 1508 729 1492 C 779 1476 822 1453 858 1423 C 894 1392 921 1354 940 1310 C 959 1265 969 1213 969 1155 C 969 1113 963 1075 952 1040 C 940 1004 925 973 906 945 C 887 917 865 893 840 873 C 814 853 788 839 760 829 C 808 819 851 802 891 780 C 931 758 965 730 993 696 C 1021 662 1043 622 1059 577 C 1075 531 1083 480 1083 424 C 1083 358 1074 298 1056 244 C 1038 190 1013 143 979 104 C 945 65 904 35 855 13 C 805 -9 749 -20 686 -20 Z" unicode="ß" />
<glyph horiz-adv-x="991" d="M 319 -12 C 281 -12 245 -6 213 6 C 181 18 153 35 130 59 C 107 83 89 112 76 146 C 63 180 57 220 57 266 C 57 380 107 475 207 550 C 307 625 456 681 653 719 L 653 766 C 653 817 642 853 621 875 C 600 896 566 907 518 907 C 488 907 458 903 430 897 C 401 890 374 881 348 870 C 322 858 297 845 274 830 C 251 814 230 798 211 782 L 94 926 C 122 952 154 977 188 999 C 222 1021 259 1041 297 1057 C 335 1073 376 1085 418 1094 C 460 1103 503 1108 547 1108 C 661 1108 746 1079 800 1021 C 854 963 881 878 881 766 L 881 266 C 881 200 883 146 887 104 C 891 62 897 28 907 0 L 676 0 C 672 10 669 19 667 29 C 664 39 662 49 660 60 C 658 70 656 82 655 94 C 653 106 653 121 653 137 C 616 89 569 53 511 27 C 453 1 389 -12 319 -12 Z M 412 172 C 462 172 507 182 547 204 C 587 226 623 253 653 285 L 653 559 C 525 531 431 496 373 454 C 314 411 285 361 285 305 C 285 259 296 226 319 204 C 341 182 372 172 412 172 Z M 209 1528 L 455 1528 L 619 1198 L 459 1198 L 209 1528 Z" unicode="à" />
<glyph horiz-adv-x="991" d="M 319 -12 C 281 -12 245 -6 213 6 C 181 18 153 35 130 59 C 107 83 89 112 76 146 C 63 180 57 220 57 266 C 57 380 107 475 207 550 C 307 625 456 681 653 719 L 653 766 C 653 817 642 853 621 875 C 600 896 566 907 518 907 C 488 907 458 903 430 897 C 401 890 374 881 348 870 C 322 858 297 845 274 830 C 251 814 230 798 211 782 L 94 926 C 122 952 154 977 188 999 C 222 1021 259 1041 297 1057 C 335 1073 376 1085 418 1094 C 460 1103 503 1108 547 1108 C 661 1108 746 1079 800 1021 C 854 963 881 878 881 766 L 881 266 C 881 200 883 146 887 104 C 891 62 897 28 907 0 L 676 0 C 672 10 669 19 667 29 C 664 39 662 49 660 60 C 658 70 656 82 655 94 C 653 106 653 121 653 137 C 616 89 569 53 511 27 C 453 1 389 -12 319 -12 Z M 412 172 C 462 172 507 182 547 204 C 587 226 623 253 653 285 L 653 559 C 525 531 431 496 373 454 C 314 411 285 361 285 305 C 285 259 296 226 319 204 C 341 182 372 172 412 172 Z M 537 1528 L 780 1528 L 530 1198 L 371 1198 L 537 1528 Z" unicode="á" />
<glyph horiz-adv-x="991" d="M 319 -12 C 281 -12 245 -6 213 6 C 181 18 153 35 130 59 C 107 83 89 112 76 146 C 63 180 57 220 57 266 C 57 380 107 475 207 550 C 307 625 456 681 653 719 L 653 766 C 653 817 642 853 621 875 C 600 896 566 907 518 907 C 488 907 458 903 430 897 C 401 890 374 881 348 870 C 322 858 297 845 274 830 C 251 814 230 798 211 782 L 94 926 C 122 952 154 977 188 999 C 222 1021 259 1041 297 1057 C 335 1073 376 1085 418 1094 C 460 1103 503 1108 547 1108 C 661 1108 746 1079 800 1021 C 854 963 881 878 881 766 L 881 266 C 881 200 883 146 887 104 C 891 62 897 28 907 0 L 676 0 C 672 10 669 19 667 29 C 664 39 662 49 660 60 C 658 70 656 82 655 94 C 653 106 653 121 653 137 C 616 89 569 53 511 27 C 453 1 389 -12 319 -12 Z M 412 172 C 462 172 507 182 547 204 C 587 226 623 253 653 285 L 653 559 C 525 531 431 496 373 454 C 314 411 285 361 285 305 C 285 259 296 226 319 204 C 341 182 372 172 412 172 Z M 415 1528 L 573 1528 L 798 1196 L 659 1196 L 493 1360 L 327 1196 L 190 1196 L 415 1528 Z" unicode="â" />
<glyph horiz-adv-x="991" d="M 319 -12 C 281 -12 245 -6 213 6 C 181 18 153 35 130 59 C 107 83 89 112 76 146 C 63 180 57 220 57 266 C 57 380 107 475 207 550 C 307 625 456 681 653 719 L 653 766 C 653 817 642 853 621 875 C 600 896 566 907 518 907 C 488 907 458 903 430 897 C 401 890 374 881 348 870 C 322 858 297 845 274 830 C 251 814 230 798 211 782 L 94 926 C 122 952 154 977 188 999 C 222 1021 259 1041 297 1057 C 335 1073 376 1085 418 1094 C 460 1103 503 1108 547 1108 C 661 1108 746 1079 800 1021 C 854 963 881 878 881 766 L 881 266 C 881 200 883 146 887 104 C 891 62 897 28 907 0 L 676 0 C 672 10 669 19 667 29 C 664 39 662 49 660 60 C 658 70 656 82 655 94 C 653 106 653 121 653 137 C 616 89 569 53 511 27 C 453 1 389 -12 319 -12 Z M 412 172 C 462 172 507 182 547 204 C 587 226 623 253 653 285 L 653 559 C 525 531 431 496 373 454 C 314 411 285 361 285 305 C 285 259 296 226 319 204 C 341 182 372 172 412 172 Z M 632 1182 C 601 1182 573 1188 549 1200 C 524 1212 501 1225 480 1239 C 459 1253 439 1266 421 1278 C 403 1290 384 1296 366 1296 C 342 1296 324 1287 312 1271 C 300 1254 294 1226 294 1186 L 165 1186 C 165 1284 182 1356 216 1401 C 250 1445 297 1468 358 1468 C 388 1468 415 1462 439 1450 C 463 1438 486 1425 507 1411 C 528 1397 548 1384 567 1372 C 585 1360 604 1354 624 1354 C 647 1354 665 1362 677 1378 C 689 1394 696 1422 696 1464 L 823 1464 C 823 1414 818 1372 810 1336 C 801 1300 788 1271 772 1248 C 755 1225 735 1208 712 1198 C 688 1187 662 1182 632 1182 Z" unicode="ã" />
<glyph horiz-adv-x="991" d="M 319 -12 C 281 -12 245 -6 213 6 C 181 18 153 35 130 59 C 107 83 89 112 76 146 C 63 180 57 220 57 266 C 57 380 107 475 207 550 C 307 625 456 681 653 719 L 653 766 C 653 817 642 853 621 875 C 600 896 566 907 518 907 C 488 907 458 903 430 897 C 401 890 374 881 348 870 C 322 858 297 845 274 830 C 251 814 230 798 211 782 L 94 926 C 122 952 154 977 188 999 C 222 1021 259 1041 297 1057 C 335 1073 376 1085 418 1094 C 460 1103 503 1108 547 1108 C 661 1108 746 1079 800 1021 C 854 963 881 878 881 766 L 881 266 C 881 200 883 146 887 104 C 891 62 897 28 907 0 L 676 0 C 672 10 669 19 667 29 C 664 39 662 49 660 60 C 658 70 656 82 655 94 C 653 106 653 121 653 137 C 616 89 569 53 511 27 C 453 1 389 -12 319 -12 Z M 412 172 C 462 172 507 182 547 204 C 587 226 623 253 653 285 L 653 559 C 525 531 431 496 373 454 C 314 411 285 361 285 305 C 285 259 296 226 319 204 C 341 182 372 172 412 172 Z M 569 1427 L 778 1427 L 778 1194 L 569 1194 L 569 1427 Z M 210 1427 L 421 1427 L 421 1194 L 210 1194 L 210 1427 Z" unicode="ä" />
<glyph horiz-adv-x="991" d="M 319 -12 C 281 -12 245 -6 213 6 C 181 18 153 35 130 59 C 107 83 89 112 76 146 C 63 180 57 220 57 266 C 57 380 107 475 207 550 C 307 625 456 681 653 719 L 653 766 C 653 817 642 853 621 875 C 600 896 566 907 518 907 C 488 907 458 903 430 897 C 401 890 374 881 348 870 C 322 858 297 845 274 830 C 251 814 230 798 211 782 L 94 926 C 122 952 154 977 188 999 C 222 1021 259 1041 297 1057 C 335 1073 376 1085 418 1094 C 460 1103 503 1108 547 1108 C 661 1108 746 1079 800 1021 C 854 963 881 878 881 766 L 881 266 C 881 200 883 146 887 104 C 891 62 897 28 907 0 L 676 0 C 672 10 669 19 667 29 C 664 39 662 49 660 60 C 658 70 656 82 655 94 C 653 106 653 121 653 137 C 616 89 569 53 511 27 C 453 1 389 -12 319 -12 Z M 412 172 C 462 172 507 182 547 204 C 587 226 623 253 653 285 L 653 559 C 525 531 431 496 373 454 C 314 411 285 361 285 305 C 285 259 296 226 319 204 C 341 182 372 172 412 172 Z M 493 1174 C 464 1174 438 1179 415 1190 C 391 1200 371 1215 355 1234 C 338 1253 325 1275 316 1301 C 307 1327 303 1354 303 1384 C 303 1414 307 1442 316 1468 C 325 1494 338 1516 355 1535 C 371 1553 391 1568 415 1579 C 438 1589 464 1595 493 1595 C 521 1595 547 1589 571 1579 C 595 1568 615 1553 632 1535 C 649 1516 662 1494 672 1468 C 681 1442 686 1414 686 1384 C 686 1354 681 1327 672 1301 C 662 1275 649 1253 632 1234 C 615 1215 595 1200 571 1190 C 547 1179 521 1174 493 1174 Z M 493 1274 C 506 1274 518 1277 528 1283 C 538 1289 546 1297 553 1307 C 560 1317 565 1328 569 1342 C 573 1355 575 1369 575 1384 C 575 1413 568 1438 554 1459 C 540 1480 519 1491 493 1491 C 480 1491 469 1488 459 1482 C 449 1476 440 1469 434 1459 C 427 1449 422 1438 418 1425 C 414 1412 413 1398 413 1384 C 413 1369 414 1355 418 1342 C 422 1328 427 1317 434 1307 C 440 1297 449 1289 459 1283 C 469 1277 480 1274 493 1274 Z" unicode="å" />
<glyph horiz-adv-x="1567" d="M 731 184 C 709 158 684 133 657 109 C 629 85 599 65 565 47 C 531 29 493 14 453 4 C 412 -6 367 -12 319 -12 C 281 -12 245 -6 213 6 C 181 18 153 35 130 59 C 107 83 89 112 76 146 C 63 180 57 220 57 266 C 57 380 107 475 207 550 C 307 625 456 681 653 719 L 653 766 C 653 817 642 853 621 875 C 600 896 566 907 518 907 C 488 907 458 903 430 897 C 401 890 374 881 348 870 C 322 858 297 845 274 830 C 251 814 230 798 211 782 L 94 926 C 122 952 154 977 188 999 C 222 1021 259 1041 298 1057 C 337 1073 378 1085 422 1094 C 465 1103 510 1108 557 1108 C 625 1108 679 1097 719 1077 C 759 1056 789 1025 809 983 C 849 1025 893 1056 942 1077 C 990 1097 1040 1108 1090 1108 C 1150 1108 1206 1096 1257 1074 C 1307 1051 1351 1016 1387 970 C 1423 923 1452 864 1472 792 C 1492 720 1503 635 1503 537 L 1503 473 L 877 473 C 882 369 904 293 944 243 C 984 193 1038 168 1106 168 C 1134 168 1160 171 1183 178 C 1206 184 1227 194 1247 207 C 1267 219 1285 235 1302 253 C 1319 271 1336 291 1354 315 L 1501 209 C 1480 176 1456 145 1429 117 C 1401 89 1371 64 1337 44 C 1303 23 1265 7 1225 -5 C 1184 -17 1140 -23 1094 -23 C 1016 -23 946 -6 884 27 C 821 61 770 113 731 184 Z M 653 557 C 588 543 532 527 486 509 C 440 491 402 472 372 451 C 342 430 320 407 306 383 C 292 359 285 333 285 305 C 285 259 296 226 319 204 C 341 182 372 172 412 172 C 458 172 504 183 550 205 C 596 227 640 261 682 307 C 672 341 665 377 660 416 C 655 455 653 497 653 543 L 653 557 Z M 1286 637 C 1280 727 1262 796 1231 843 C 1199 889 1152 913 1090 913 C 1064 913 1039 908 1016 898 C 992 888 971 873 952 851 C 933 829 917 800 905 765 C 892 730 883 687 879 637 L 1286 637 Z" unicode="æ" />
<glyph horiz-adv-x="958" d="M 504 -23 C 445 -23 389 -11 336 11 C 283 33 237 68 197 115 C 157 161 125 220 101 291 C 77 362 66 446 66 543 C 66 643 78 728 104 800 C 129 872 162 930 204 976 C 246 1021 293 1054 347 1076 C 401 1097 456 1108 514 1108 C 574 1108 626 1099 670 1081 C 714 1063 751 1039 782 1008 C 812 977 837 941 857 900 C 876 858 892 814 905 768 L 696 717 C 687 749 677 778 667 802 C 656 826 643 846 628 862 C 613 878 596 889 577 897 C 557 905 535 909 510 909 C 480 909 452 902 426 889 C 400 875 377 854 359 825 C 340 795 325 757 315 711 C 304 665 299 609 299 543 C 299 422 316 330 351 266 C 386 202 439 170 510 170 C 534 170 556 173 576 180 C 596 186 615 197 631 213 C 647 229 662 249 675 275 C 687 301 698 333 707 371 L 909 319 C 895 268 877 222 855 180 C 832 138 804 102 771 72 C 738 42 699 18 655 2 C 611 -14 560 -23 504 -23 Z M 487 -422 C 437 -422 390 -415 346 -402 C 302 -388 264 -371 231 -350 L 287 -256 C 312 -273 342 -287 376 -297 C 410 -307 445 -313 479 -313 C 514 -313 541 -306 561 -293 C 580 -280 590 -261 590 -236 C 590 -194 568 -174 524 -174 C 507 -174 492 -177 478 -184 C 464 -190 450 -199 438 -211 L 364 -178 L 420 12 L 530 12 L 498 -106 C 510 -96 525 -89 543 -84 C 561 -78 581 -76 604 -76 C 621 -76 638 -78 655 -84 C 671 -90 686 -98 699 -110 C 711 -122 721 -137 729 -155 C 737 -173 741 -194 741 -219 C 741 -249 734 -277 721 -302 C 708 -327 690 -348 668 -366 C 645 -384 618 -397 587 -407 C 556 -417 523 -422 487 -422 Z" unicode="ç" />
<glyph horiz-adv-x="987" d="M 514 -23 C 451 -23 392 -11 338 10 C 284 32 236 67 196 113 C 156 159 124 218 101 289 C 77 360 66 445 66 543 C 66 643 78 729 104 801 C 130 872 163 930 205 976 C 247 1022 294 1055 347 1076 C 400 1097 454 1108 510 1108 C 570 1108 626 1096 677 1074 C 727 1051 771 1016 807 970 C 843 923 872 864 892 792 C 912 720 922 635 922 537 L 922 473 L 295 473 C 300 369 322 293 362 243 C 402 193 456 168 524 168 C 552 168 578 171 602 178 C 625 184 646 194 666 207 C 685 219 703 235 721 253 C 738 271 755 291 772 315 L 920 209 C 899 176 874 145 846 117 C 818 89 786 64 752 44 C 717 23 680 7 640 -5 C 600 -17 558 -23 514 -23 Z M 705 637 C 699 727 681 796 649 843 C 617 889 570 913 508 913 C 482 913 458 908 434 898 C 410 888 389 873 371 851 C 352 829 336 800 323 765 C 310 730 301 687 297 637 L 705 637 Z M 197 1528 L 443 1528 L 607 1198 L 447 1198 L 197 1528 Z" unicode="è" />
<glyph horiz-adv-x="987" d="M 555 1528 L 798 1528 L 548 1198 L 389 1198 L 555 1528 Z M 514 -23 C 451 -23 392 -11 338 10 C 284 32 236 67 196 113 C 156 159 124 218 101 289 C 77 360 66 445 66 543 C 66 643 78 729 104 801 C 130 872 163 930 205 976 C 247 1022 294 1055 347 1076 C 400 1097 454 1108 510 1108 C 570 1108 626 1096 677 1074 C 727 1051 771 1016 807 970 C 843 923 872 864 892 792 C 912 720 922 635 922 537 L 922 473 L 295 473 C 300 369 322 293 362 243 C 402 193 456 168 524 168 C 552 168 578 171 602 178 C 625 184 646 194 666 207 C 685 219 703 235 721 253 C 738 271 755 291 772 315 L 920 209 C 899 176 874 145 846 117 C 818 89 786 64 752 44 C 717 23 680 7 640 -5 C 600 -17 558 -23 514 -23 Z M 705 637 C 699 727 681 796 649 843 C 617 889 570 913 508 913 C 482 913 458 908 434 898 C 410 888 389 873 371 851 C 352 829 336 800 323 765 C 310 730 301 687 297 637 L 705 637 Z" unicode="é" />
<glyph horiz-adv-x="987" d="M 413 1528 L 571 1528 L 796 1196 L 657 1196 L 491 1360 L 325 1196 L 188 1196 L 413 1528 Z M 514 -23 C 451 -23 392 -11 338 10 C 284 32 236 67 196 113 C 156 159 124 218 101 289 C 77 360 66 445 66 543 C 66 643 78 729 104 801 C 130 872 163 930 205 976 C 247 1022 294 1055 347 1076 C 400 1097 454 1108 510 1108 C 570 1108 626 1096 677 1074 C 727 1051 771 1016 807 970 C 843 923 872 864 892 792 C 912 720 922 635 922 537 L 922 473 L 295 473 C 300 369 322 293 362 243 C 402 193 456 168 524 168 C 552 168 578 171 602 178 C 625 184 646 194 666 207 C 685 219 703 235 721 253 C 738 271 755 291 772 315 L 920 209 C 899 176 874 145 846 117 C 818 89 786 64 752 44 C 717 23 680 7 640 -5 C 600 -17 558 -23 514 -23 Z M 705 637 C 699 727 681 796 649 843 C 617 889 570 913 508 913 C 482 913 458 908 434 898 C 410 888 389 873 371 851 C 352 829 336 800 323 765 C 310 730 301 687 297 637 L 705 637 Z" unicode="ê" />
<glyph horiz-adv-x="987" d="M 567 1427 L 776 1427 L 776 1194 L 567 1194 L 567 1427 Z M 208 1427 L 419 1427 L 419 1194 L 208 1194 L 208 1427 Z M 514 -23 C 451 -23 392 -11 338 10 C 284 32 236 67 196 113 C 156 159 124 218 101 289 C 77 360 66 445 66 543 C 66 643 78 729 104 801 C 130 872 163 930 205 976 C 247 1022 294 1055 347 1076 C 400 1097 454 1108 510 1108 C 570 1108 626 1096 677 1074 C 727 1051 771 1016 807 970 C 843 923 872 864 892 792 C 912 720 922 635 922 537 L 922 473 L 295 473 C 300 369 322 293 362 243 C 402 193 456 168 524 168 C 552 168 578 171 602 178 C 625 184 646 194 666 207 C 685 219 703 235 721 253 C 738 271 755 291 772 315 L 920 209 C 899 176 874 145 846 117 C 818 89 786 64 752 44 C 717 23 680 7 640 -5 C 600 -17 558 -23 514 -23 Z M 705 637 C 699 727 681 796 649 843 C 617 889 570 913 508 913 C 482 913 458 908 434 898 C 410 888 389 873 371 851 C 352 829 336 800 323 765 C 310 730 301 687 297 637 L 705 637 Z" unicode="ë" />
<glyph horiz-adv-x="489" d="M 127 1085 L 360 1085 L 360 0 L 127 0 L 127 1085 Z M -71 1528 L 175 1528 L 339 1198 L 179 1198 L -71 1528 Z" unicode="ì" />
<glyph horiz-adv-x="489" d="M 319 1528 L 562 1528 L 312 1198 L 153 1198 L 319 1528 Z M 127 1085 L 360 1085 L 360 0 L 127 0 L 127 1085 Z" unicode="í" />
<glyph horiz-adv-x="489" d="M 167 1528 L 325 1528 L 550 1196 L 411 1196 L 245 1360 L 79 1196 L -58 1196 L 167 1528 Z M 127 1085 L 360 1085 L 360 0 L 127 0 L 127 1085 Z" unicode="î" />
<glyph horiz-adv-x="489" d="M 321 1427 L 530 1427 L 530 1194 L 321 1194 L 321 1427 Z M -38 1427 L 173 1427 L 173 1194 L -38 1194 L -38 1427 Z M 127 1085 L 360 1085 L 360 0 L 127 0 L 127 1085 Z" unicode="ï" />
<glyph horiz-adv-x="1038" d="M 467 1108 L 389 1247 L 510 1317 C 494 1334 477 1351 459 1367 C 441 1383 421 1400 401 1417 L 526 1548 C 555 1527 582 1505 608 1483 C 633 1461 657 1438 680 1415 L 831 1503 L 909 1364 L 782 1290 C 850 1190 899 1080 928 960 C 956 839 971 705 971 559 C 971 463 960 378 938 306 C 916 233 885 172 845 124 C 805 75 758 38 703 14 C 647 -10 586 -23 520 -23 C 452 -23 390 -10 334 13 C 278 37 231 73 191 119 C 151 165 120 222 98 289 C 76 355 66 431 66 516 C 66 602 76 678 97 744 C 117 809 146 864 183 908 C 219 952 263 985 313 1007 C 363 1029 419 1040 479 1040 C 503 1040 528 1037 554 1031 C 579 1025 603 1016 626 1004 C 649 992 670 978 690 960 C 710 942 727 921 741 897 C 731 943 716 991 696 1041 C 675 1091 648 1142 614 1192 L 467 1108 Z M 520 166 C 591 166 645 196 683 257 C 720 318 739 406 739 520 C 739 574 734 622 725 665 C 715 708 701 745 683 775 C 665 805 642 828 615 844 C 587 860 556 868 520 868 C 449 868 394 838 356 780 C 318 722 299 634 299 518 C 299 463 303 414 312 370 C 321 326 335 289 353 259 C 371 229 394 206 422 190 C 450 174 482 166 520 166 Z" unicode="ð" />
<glyph horiz-adv-x="1059" d="M 117 1085 L 350 1085 L 350 944 C 366 963 385 982 408 1002 C 431 1022 457 1039 486 1055 C 514 1071 545 1083 579 1093 C 612 1103 647 1108 684 1108 C 767 1108 832 1082 879 1031 C 926 980 950 904 950 803 L 950 0 L 717 0 L 717 750 C 717 803 707 842 688 868 C 669 894 637 907 592 907 C 569 907 546 902 523 894 C 499 885 477 874 455 862 C 433 849 413 835 395 820 C 377 805 362 792 350 780 L 350 0 L 117 0 L 117 1085 Z M 667 1182 C 636 1182 608 1188 584 1200 C 559 1212 536 1225 515 1239 C 494 1253 474 1266 456 1278 C 438 1290 419 1296 401 1296 C 377 1296 359 1287 347 1271 C 335 1254 329 1226 329 1186 L 200 1186 C 200 1284 217 1356 251 1401 C 285 1445 332 1468 393 1468 C 423 1468 450 1462 474 1450 C 498 1438 521 1425 542 1411 C 563 1397 583 1384 602 1372 C 620 1360 639 1354 659 1354 C 682 1354 700 1362 712 1378 C 724 1394 731 1422 731 1464 L 858 1464 C 858 1414 853 1372 845 1336 C 836 1300 823 1271 807 1248 C 790 1225 770 1208 747 1198 C 723 1187 697 1182 667 1182 Z" unicode="ñ" />
<glyph horiz-adv-x="1040" d="M 520 -23 C 458 -23 400 -11 346 11 C 291 33 243 68 201 115 C 159 161 126 220 102 291 C 78 362 66 446 66 543 C 66 641 78 725 102 796 C 126 867 159 926 201 972 C 242 1018 290 1052 345 1074 C 400 1096 458 1108 520 1108 C 580 1108 638 1096 693 1074 C 748 1052 796 1018 838 972 C 879 926 912 867 936 796 C 960 725 973 641 973 543 C 973 446 960 362 936 291 C 912 220 879 161 838 115 C 796 68 748 33 693 11 C 638 -11 580 -23 520 -23 Z M 520 168 C 595 168 650 200 686 265 C 721 329 739 422 739 543 C 739 597 734 647 726 693 C 718 738 705 777 688 809 C 670 841 648 866 620 884 C 592 902 558 911 520 911 C 445 911 389 879 353 815 C 317 751 299 661 299 543 C 299 487 303 437 311 391 C 319 345 331 305 349 272 C 367 239 390 213 418 195 C 446 177 480 168 520 168 Z M 213 1528 L 459 1528 L 623 1198 L 463 1198 L 213 1528 Z" unicode="ò" />
<glyph horiz-adv-x="1040" d="M 582 1528 L 825 1528 L 575 1198 L 416 1198 L 582 1528 Z M 520 -23 C 458 -23 400 -11 346 11 C 291 33 243 68 201 115 C 159 161 126 220 102 291 C 78 362 66 446 66 543 C 66 641 78 725 102 796 C 126 867 159 926 201 972 C 242 1018 290 1052 345 1074 C 400 1096 458 1108 520 1108 C 580 1108 638 1096 693 1074 C 748 1052 796 1018 838 972 C 879 926 912 867 936 796 C 960 725 973 641 973 543 C 973 446 960 362 936 291 C 912 220 879 161 838 115 C 796 68 748 33 693 11 C 638 -11 580 -23 520 -23 Z M 520 168 C 595 168 650 200 686 265 C 721 329 739 422 739 543 C 739 597 734 647 726 693 C 718 738 705 777 688 809 C 670 841 648 866 620 884 C 592 902 558 911 520 911 C 445 911 389 879 353 815 C 317 751 299 661 299 543 C 299 487 303 437 311 391 C 319 345 331 305 349 272 C 367 239 390 213 418 195 C 446 177 480 168 520 168 Z" unicode="ó" />
<glyph horiz-adv-x="1040" d="M 440 1528 L 598 1528 L 823 1196 L 684 1196 L 518 1360 L 352 1196 L 215 1196 L 440 1528 Z M 520 -23 C 458 -23 400 -11 346 11 C 291 33 243 68 201 115 C 159 161 126 220 102 291 C 78 362 66 446 66 543 C 66 641 78 725 102 796 C 126 867 159 926 201 972 C 242 1018 290 1052 345 1074 C 400 1096 458 1108 520 1108 C 580 1108 638 1096 693 1074 C 748 1052 796 1018 838 972 C 879 926 912 867 936 796 C 960 725 973 641 973 543 C 973 446 960 362 936 291 C 912 220 879 161 838 115 C 796 68 748 33 693 11 C 638 -11 580 -23 520 -23 Z M 520 168 C 595 168 650 200 686 265 C 721 329 739 422 739 543 C 739 597 734 647 726 693 C 718 738 705 777 688 809 C 670 841 648 866 620 884 C 592 902 558 911 520 911 C 445 911 389 879 353 815 C 317 751 299 661 299 543 C 299 487 303 437 311 391 C 319 345 331 305 349 272 C 367 239 390 213 418 195 C 446 177 480 168 520 168 Z" unicode="ô" />
<glyph horiz-adv-x="1040" d="M 520 -23 C 458 -23 400 -11 346 11 C 291 33 243 68 201 115 C 159 161 126 220 102 291 C 78 362 66 446 66 543 C 66 641 78 725 102 796 C 126 867 159 926 201 972 C 242 1018 290 1052 345 1074 C 400 1096 458 1108 520 1108 C 580 1108 638 1096 693 1074 C 748 1052 796 1018 838 972 C 879 926 912 867 936 796 C 960 725 973 641 973 543 C 973 446 960 362 936 291 C 912 220 879 161 838 115 C 796 68 748 33 693 11 C 638 -11 580 -23 520 -23 Z M 520 168 C 595 168 650 200 686 265 C 721 329 739 422 739 543 C 739 597 734 647 726 693 C 718 738 705 777 688 809 C 670 841 648 866 620 884 C 592 902 558 911 520 911 C 445 911 389 879 353 815 C 317 751 299 661 299 543 C 299 487 303 437 311 391 C 319 345 331 305 349 272 C 367 239 390 213 418 195 C 446 177 480 168 520 168 Z M 657 1182 C 626 1182 598 1188 574 1200 C 549 1212 526 1225 505 1239 C 484 1253 464 1266 446 1278 C 428 1290 409 1296 391 1296 C 367 1296 349 1287 337 1271 C 325 1254 319 1226 319 1186 L 190 1186 C 190 1284 207 1356 241 1401 C 275 1445 322 1468 383 1468 C 413 1468 440 1462 464 1450 C 488 1438 511 1425 532 1411 C 553 1397 573 1384 592 1372 C 610 1360 629 1354 649 1354 C 672 1354 690 1362 702 1378 C 714 1394 721 1422 721 1464 L 848 1464 C 848 1414 843 1372 835 1336 C 826 1300 813 1271 797 1248 C 780 1225 760 1208 737 1198 C 713 1187 687 1182 657 1182 Z" unicode="õ" />
<glyph horiz-adv-x="1040" d="M 594 1427 L 803 1427 L 803 1194 L 594 1194 L 594 1427 Z M 235 1427 L 446 1427 L 446 1194 L 235 1194 L 235 1427 Z M 520 -23 C 458 -23 400 -11 346 11 C 291 33 243 68 201 115 C 159 161 126 220 102 291 C 78 362 66 446 66 543 C 66 641 78 725 102 796 C 126 867 159 926 201 972 C 242 1018 290 1052 345 1074 C 400 1096 458 1108 520 1108 C 580 1108 638 1096 693 1074 C 748 1052 796 1018 838 972 C 879 926 912 867 936 796 C 960 725 973 641 973 543 C 973 446 960 362 936 291 C 912 220 879 161 838 115 C 796 68 748 33 693 11 C 638 -11 580 -23 520 -23 Z M 520 168 C 595 168 650 200 686 265 C 721 329 739 422 739 543 C 739 597 734 647 726 693 C 718 738 705 777 688 809 C 670 841 648 866 620 884 C 592 902 558 911 520 911 C 445 911 389 879 353 815 C 317 751 299 661 299 543 C 299 487 303 437 311 391 C 319 345 331 305 349 272 C 367 239 390 213 418 195 C 446 177 480 168 520 168 Z" unicode="ö" />
<glyph horiz-adv-x="1126" d="M 455 1171 L 670 1171 L 670 954 L 455 954 L 455 1171 Z M 104 784 L 1022 784 L 1022 590 L 104 590 L 104 784 Z M 455 420 L 670 420 L 670 201 L 455 201 L 455 420 Z" unicode="÷" />
<glyph horiz-adv-x="1040" d="M 862 942 C 896 896 923 840 943 774 C 963 708 973 631 973 543 C 973 446 960 362 936 291 C 912 220 879 161 838 115 C 796 68 748 33 693 11 C 638 -11 580 -23 520 -23 C 476 -23 433 -16 391 -4 C 349 7 310 25 274 49 L 184 -86 L 70 -12 L 174 147 C 141 193 115 249 95 315 C 75 380 66 456 66 543 C 66 641 78 725 102 796 C 126 867 159 926 201 972 C 242 1018 290 1052 345 1074 C 400 1096 458 1108 520 1108 C 564 1108 606 1102 646 1090 C 686 1078 724 1061 760 1038 L 854 1176 L 967 1102 L 862 942 Z M 651 864 C 617 898 573 915 520 915 C 445 915 388 882 350 817 C 312 752 293 661 293 543 C 293 505 294 470 298 438 C 302 405 307 374 315 346 L 651 864 Z M 381 223 C 416 183 462 164 520 164 C 594 164 650 197 688 263 C 726 329 745 423 745 543 C 745 619 737 685 721 741 L 381 223 Z" unicode="ø" />
<glyph horiz-adv-x="1059" d="M 375 -23 C 291 -23 226 2 179 54 C 132 105 109 181 109 283 L 109 1085 L 342 1085 L 342 332 C 342 278 351 238 371 213 C 390 188 423 176 471 176 C 492 176 513 179 534 186 C 555 193 576 202 596 214 C 616 226 635 239 654 255 C 673 270 691 286 709 303 L 709 1085 L 942 1085 L 942 0 L 709 0 L 709 141 C 691 120 670 100 647 80 C 623 60 598 43 570 28 C 542 12 511 0 479 -9 C 446 -18 411 -23 375 -23 Z M 244 1528 L 490 1528 L 654 1198 L 494 1198 L 244 1528 Z" unicode="ù" />
<glyph horiz-adv-x="1059" d="M 572 1528 L 815 1528 L 565 1198 L 406 1198 L 572 1528 Z M 375 -23 C 291 -23 226 2 179 54 C 132 105 109 181 109 283 L 109 1085 L 342 1085 L 342 332 C 342 278 351 238 371 213 C 390 188 423 176 471 176 C 492 176 513 179 534 186 C 555 193 576 202 596 214 C 616 226 635 239 654 255 C 673 270 691 286 709 303 L 709 1085 L 942 1085 L 942 0 L 709 0 L 709 141 C 691 120 670 100 647 80 C 623 60 598 43 570 28 C 542 12 511 0 479 -9 C 446 -18 411 -23 375 -23 Z" unicode="ú" />
<glyph horiz-adv-x="1059" d="M 450 1528 L 608 1528 L 833 1196 L 694 1196 L 528 1360 L 362 1196 L 225 1196 L 450 1528 Z M 375 -23 C 291 -23 226 2 179 54 C 132 105 109 181 109 283 L 109 1085 L 342 1085 L 342 332 C 342 278 351 238 371 213 C 390 188 423 176 471 176 C 492 176 513 179 534 186 C 555 193 576 202 596 214 C 616 226 635 239 654 255 C 673 270 691 286 709 303 L 709 1085 L 942 1085 L 942 0 L 709 0 L 709 141 C 691 120 670 100 647 80 C 623 60 598 43 570 28 C 542 12 511 0 479 -9 C 446 -18 411 -23 375 -23 Z" unicode="û" />
<glyph horiz-adv-x="1059" d="M 604 1427 L 813 1427 L 813 1194 L 604 1194 L 604 1427 Z M 245 1427 L 456 1427 L 456 1194 L 245 1194 L 245 1427 Z M 375 -23 C 291 -23 226 2 179 54 C 132 105 109 181 109 283 L 109 1085 L 342 1085 L 342 332 C 342 278 351 238 371 213 C 390 188 423 176 471 176 C 492 176 513 179 534 186 C 555 193 576 202 596 214 C 616 226 635 239 654 255 C 673 270 691 286 709 303 L 709 1085 L 942 1085 L 942 0 L 709 0 L 709 141 C 691 120 670 100 647 80 C 623 60 598 43 570 28 C 542 12 511 0 479 -9 C 446 -18 411 -23 375 -23 Z" unicode="ü" />
<glyph horiz-adv-x="958" d="M 211 -414 C 161 -414 117 -410 81 -404 C 45 -397 17 -391 -2 -385 L 43 -201 C 56 -204 76 -208 102 -212 C 128 -216 157 -219 188 -219 C 208 -219 226 -216 241 -211 C 256 -205 269 -197 281 -186 C 292 -175 302 -161 311 -144 C 319 -127 328 -107 336 -84 L 358 -12 L 18 1085 L 260 1085 L 395 592 C 403 562 410 533 418 506 C 425 479 432 452 439 426 C 445 400 452 373 458 346 C 464 318 471 290 477 260 L 481 260 C 488 290 495 320 502 348 C 508 376 515 403 522 431 C 529 458 536 486 544 514 C 551 542 559 571 567 602 L 702 1085 L 928 1085 L 551 -113 C 535 -163 517 -206 498 -244 C 479 -282 457 -313 431 -338 C 405 -363 374 -382 338 -395 C 302 -407 260 -414 211 -414 Z M 541 1528 L 784 1528 L 534 1198 L 375 1198 L 541 1528 Z" unicode="ý" />
<glyph horiz-adv-x="1067" d="M 117 1516 L 350 1516 L 350 952 C 366 972 383 992 403 1011 C 422 1029 444 1046 468 1060 C 492 1074 518 1086 547 1095 C 575 1103 607 1108 641 1108 C 693 1108 742 1096 786 1074 C 830 1052 868 1018 900 972 C 932 926 956 867 974 797 C 992 726 1001 642 1001 545 C 1001 447 991 362 972 292 C 953 221 927 163 894 117 C 860 71 821 38 775 16 C 729 -5 680 -16 627 -16 C 564 -16 511 -4 468 19 C 424 43 385 77 350 121 L 350 -410 L 117 -410 L 117 1516 Z M 563 174 C 595 174 623 181 648 195 C 673 209 694 230 712 260 C 729 290 742 328 752 375 C 761 421 766 477 766 543 C 766 669 748 761 712 820 C 676 879 625 909 561 909 C 542 909 522 905 502 897 C 482 889 462 879 443 867 C 424 855 406 841 390 827 C 374 812 360 798 350 786 L 350 291 C 380 253 413 224 449 204 C 485 184 523 174 563 174 Z" unicode="þ" />
<glyph horiz-adv-x="958" d="M 211 -414 C 161 -414 117 -410 81 -404 C 45 -397 17 -391 -2 -385 L 43 -201 C 56 -204 76 -208 102 -212 C 128 -216 157 -219 188 -219 C 208 -219 226 -216 241 -211 C 256 -205 269 -197 281 -186 C 292 -175 302 -161 311 -144 C 319 -127 328 -107 336 -84 L 358 -12 L 18 1085 L 260 1085 L 395 592 C 403 562 410 533 418 506 C 425 479 432 452 439 426 C 445 400 452 373 458 346 C 464 318 471 290 477 260 L 481 260 C 488 290 495 320 502 348 C 508 376 515 403 522 431 C 529 458 536 486 544 514 C 551 542 559 571 567 602 L 702 1085 L 928 1085 L 551 -113 C 535 -163 517 -206 498 -244 C 479 -282 457 -313 431 -338 C 405 -363 374 -382 338 -395 C 302 -407 260 -414 211 -414 Z M 553 1427 L 762 1427 L 762 1194 L 553 1194 L 553 1427 Z M 194 1427 L 405 1427 L 405 1194 L 194 1194 L 194 1427 Z" unicode="ÿ" />
<glyph horiz-adv-x="1194" d="M 264 0 L 39 0 L 481 1522 L 713 1522 L 1155 0 L 913 0 L 815 362 L 365 362 L 264 0 Z M 709 758 C 697 800 685 840 675 878 C 665 916 655 952 645 988 C 635 1023 626 1058 618 1092 C 610 1126 602 1162 594 1198 L 590 1198 C 582 1162 573 1126 564 1092 C 555 1057 546 1022 536 987 C 526 952 516 916 506 879 C 496 841 485 802 473 760 L 422 573 L 758 573 L 709 758 Z M 326 1784 L 866 1784 L 866 1604 L 326 1604 L 326 1784 Z" unicode="Ā" />
<glyph horiz-adv-x="991" d="M 319 -12 C 281 -12 245 -6 213 6 C 181 18 153 35 130 59 C 107 83 89 112 76 146 C 63 180 57 220 57 266 C 57 380 107 475 207 550 C 307 625 456 681 653 719 L 653 766 C 653 817 642 853 621 875 C 600 896 566 907 518 907 C 488 907 458 903 430 897 C 401 890 374 881 348 870 C 322 858 297 845 274 830 C 251 814 230 798 211 782 L 94 926 C 122 952 154 977 188 999 C 222 1021 259 1041 297 1057 C 335 1073 376 1085 418 1094 C 460 1103 503 1108 547 1108 C 661 1108 746 1079 800 1021 C 854 963 881 878 881 766 L 881 266 C 881 200 883 146 887 104 C 891 62 897 28 907 0 L 676 0 C 672 10 669 19 667 29 C 664 39 662 49 660 60 C 658 70 656 82 655 94 C 653 106 653 121 653 137 C 616 89 569 53 511 27 C 453 1 389 -12 319 -12 Z M 412 172 C 462 172 507 182 547 204 C 587 226 623 253 653 285 L 653 559 C 525 531 431 496 373 454 C 314 411 285 361 285 305 C 285 259 296 226 319 204 C 341 182 372 172 412 172 Z M 223 1374 L 763 1374 L 763 1194 L 223 1194 L 223 1374 Z" unicode="ā" />
<glyph horiz-adv-x="1194" d="M 264 0 L 39 0 L 481 1522 L 713 1522 L 1155 0 L 913 0 L 815 362 L 365 362 L 264 0 Z M 709 758 C 697 800 685 840 675 878 C 665 916 655 952 645 988 C 635 1023 626 1058 618 1092 C 610 1126 602 1162 594 1198 L 590 1198 C 582 1162 573 1126 564 1092 C 555 1057 546 1022 536 987 C 526 952 516 916 506 879 C 496 841 485 802 473 760 L 422 573 L 758 573 L 709 758 Z M 598 1596 C 550 1596 509 1604 473 1621 C 437 1637 408 1661 384 1692 C 360 1722 341 1759 328 1802 C 315 1845 307 1893 305 1946 L 442 1946 C 446 1910 452 1879 461 1855 C 470 1830 481 1810 495 1795 C 508 1779 523 1768 541 1761 C 558 1754 577 1751 598 1751 C 618 1751 637 1754 654 1761 C 671 1768 686 1779 700 1795 C 713 1810 724 1830 733 1855 C 741 1879 748 1910 752 1946 L 889 1946 C 886 1893 878 1845 866 1802 C 853 1759 835 1722 811 1692 C 787 1661 757 1637 722 1621 C 686 1604 645 1596 598 1596 Z" unicode="Ă" />
<glyph horiz-adv-x="991" d="M 319 -12 C 281 -12 245 -6 213 6 C 181 18 153 35 130 59 C 107 83 89 112 76 146 C 63 180 57 220 57 266 C 57 380 107 475 207 550 C 307 625 456 681 653 719 L 653 766 C 653 817 642 853 621 875 C 600 896 566 907 518 907 C 488 907 458 903 430 897 C 401 890 374 881 348 870 C 322 858 297 845 274 830 C 251 814 230 798 211 782 L 94 926 C 122 952 154 977 188 999 C 222 1021 259 1041 297 1057 C 335 1073 376 1085 418 1094 C 460 1103 503 1108 547 1108 C 661 1108 746 1079 800 1021 C 854 963 881 878 881 766 L 881 266 C 881 200 883 146 887 104 C 891 62 897 28 907 0 L 676 0 C 672 10 669 19 667 29 C 664 39 662 49 660 60 C 658 70 656 82 655 94 C 653 106 653 121 653 137 C 616 89 569 53 511 27 C 453 1 389 -12 319 -12 Z M 412 172 C 462 172 507 182 547 204 C 587 226 623 253 653 285 L 653 559 C 525 531 431 496 373 454 C 314 411 285 361 285 305 C 285 259 296 226 319 204 C 341 182 372 172 412 172 Z M 495 1186 C 447 1186 406 1194 370 1211 C 334 1227 305 1251 281 1282 C 257 1312 238 1349 225 1392 C 212 1435 204 1483 202 1536 L 339 1536 C 343 1500 349 1469 358 1445 C 367 1420 378 1400 392 1385 C 405 1369 420 1358 438 1351 C 455 1344 474 1341 495 1341 C 515 1341 534 1344 551 1351 C 568 1358 583 1369 597 1385 C 610 1400 621 1420 630 1445 C 638 1469 645 1500 649 1536 L 786 1536 C 783 1483 775 1435 763 1392 C 750 1349 732 1312 708 1282 C 684 1251 654 1227 619 1211 C 583 1194 542 1186 495 1186 Z" unicode="ă" />
<glyph horiz-adv-x="1194" d="M 264 0 L 39 0 L 481 1522 L 713 1522 L 1155 0 L 913 0 L 815 362 L 365 362 L 264 0 Z M 709 758 C 697 800 685 840 675 878 C 665 916 655 952 645 988 C 635 1023 626 1058 618 1092 C 610 1126 602 1162 594 1198 L 590 1198 C 582 1162 573 1126 564 1092 C 555 1057 546 1022 536 987 C 526 952 516 916 506 879 C 496 841 485 802 473 760 L 422 573 L 758 573 L 709 758 Z M 961 -391 C 897 -391 848 -376 816 -346 C 784 -316 768 -277 768 -229 C 768 -207 772 -185 780 -163 C 788 -141 800 -119 814 -99 C 828 -78 844 -58 863 -40 C 881 -21 901 -4 922 10 L 1049 10 C 1009 -18 978 -50 957 -86 C 936 -121 926 -156 926 -190 C 926 -216 932 -237 945 -254 C 957 -270 980 -279 1012 -279 C 1038 -279 1065 -273 1091 -263 C 1117 -252 1141 -240 1165 -227 L 1221 -303 C 1202 -315 1183 -327 1164 -338 C 1145 -348 1125 -358 1104 -366 C 1083 -374 1061 -380 1037 -384 C 1013 -388 988 -391 961 -391 Z" unicode="Ą" />
<glyph horiz-adv-x="991" d="M 319 -12 C 281 -12 245 -6 213 6 C 181 18 153 35 130 59 C 107 83 89 112 76 146 C 63 180 57 220 57 266 C 57 380 107 475 207 550 C 307 625 456 681 653 719 L 653 766 C 653 817 642 853 621 875 C 600 896 566 907 518 907 C 488 907 458 903 430 897 C 401 890 374 881 348 870 C 322 858 297 845 274 830 C 251 814 230 798 211 782 L 94 926 C 122 952 154 977 188 999 C 222 1021 259 1041 297 1057 C 335 1073 376 1085 418 1094 C 460 1103 503 1108 547 1108 C 661 1108 746 1079 800 1021 C 854 963 881 878 881 766 L 881 266 C 881 200 883 146 887 104 C 891 62 897 28 907 0 L 676 0 C 672 10 669 19 667 29 C 664 39 662 49 660 60 C 658 70 656 82 655 94 C 653 106 653 121 653 137 C 616 89 569 53 511 27 C 453 1 389 -12 319 -12 Z M 412 172 C 462 172 507 182 547 204 C 587 226 623 253 653 285 L 653 559 C 525 531 431 496 373 454 C 314 411 285 361 285 305 C 285 259 296 226 319 204 C 341 182 372 172 412 172 Z M 721 -391 C 657 -391 608 -376 576 -346 C 544 -316 528 -277 528 -229 C 528 -207 532 -185 540 -163 C 548 -141 560 -119 574 -99 C 588 -78 604 -58 623 -40 C 641 -21 661 -4 682 10 L 809 10 C 769 -18 738 -50 717 -86 C 696 -121 686 -156 686 -190 C 686 -216 692 -237 705 -254 C 717 -270 740 -279 772 -279 C 798 -279 825 -273 851 -263 C 877 -252 901 -240 925 -227 L 981 -303 C 962 -315 943 -327 924 -338 C 905 -348 885 -358 864 -366 C 843 -374 821 -380 797 -384 C 773 -388 748 -391 721 -391 Z" unicode="ą" />
<glyph horiz-adv-x="1221" d="M 672 1938 L 915 1938 L 665 1608 L 506 1608 L 672 1938 Z M 641 -27 C 555 -27 478 -11 409 21 C 340 53 281 101 233 166 C 184 231 146 313 120 412 C 93 510 80 626 80 760 C 80 890 93 1005 121 1103 C 148 1201 186 1283 236 1348 C 286 1413 345 1462 415 1495 C 484 1527 561 1544 645 1544 C 721 1544 788 1532 844 1508 C 900 1484 948 1450 987 1406 C 1026 1362 1058 1309 1082 1248 C 1106 1186 1124 1118 1137 1044 L 911 1004 C 901 1058 888 1104 874 1144 C 859 1184 841 1217 819 1243 C 797 1269 772 1288 743 1300 C 713 1312 679 1319 639 1319 C 534 1319 455 1271 402 1176 C 348 1080 322 942 322 762 C 322 572 349 430 403 334 C 457 238 537 190 643 190 C 683 190 718 196 748 208 C 778 220 805 240 828 267 C 851 293 871 328 887 371 C 903 413 918 465 930 526 L 1153 489 C 1139 415 1118 346 1092 283 C 1066 220 1032 166 991 120 C 950 74 901 38 843 12 C 785 -14 718 -27 641 -27 Z" unicode="Ć" />
<glyph horiz-adv-x="958" d="M 541 1528 L 784 1528 L 534 1198 L 375 1198 L 541 1528 Z M 504 -23 C 445 -23 389 -11 336 11 C 283 33 237 68 197 115 C 157 161 125 220 101 291 C 77 362 66 446 66 543 C 66 643 78 728 104 800 C 129 872 162 930 204 976 C 246 1021 293 1054 347 1076 C 401 1097 456 1108 514 1108 C 574 1108 626 1099 670 1081 C 714 1063 751 1039 782 1008 C 812 977 837 941 857 900 C 876 858 892 814 905 768 L 696 717 C 687 749 677 778 667 802 C 656 826 643 846 628 862 C 613 878 596 889 577 897 C 557 905 535 909 510 909 C 480 909 452 902 426 889 C 400 875 377 854 359 825 C 340 795 325 757 315 711 C 304 665 299 609 299 543 C 299 422 316 330 351 266 C 386 202 439 170 510 170 C 534 170 556 173 576 180 C 596 186 615 197 631 213 C 647 229 662 249 675 275 C 687 301 698 333 707 371 L 909 319 C 895 268 877 222 855 180 C 832 138 804 102 771 72 C 738 42 699 18 655 2 C 611 -14 560 -23 504 -23 Z" unicode="ć" />
<glyph horiz-adv-x="1221" d="M 553 1938 L 711 1938 L 936 1606 L 797 1606 L 631 1770 L 465 1606 L 328 1606 L 553 1938 Z M 641 -27 C 555 -27 478 -11 409 21 C 340 53 281 101 233 166 C 184 231 146 313 120 412 C 93 510 80 626 80 760 C 80 890 93 1005 121 1103 C 148 1201 186 1283 236 1348 C 286 1413 345 1462 415 1495 C 484 1527 561 1544 645 1544 C 721 1544 788 1532 844 1508 C 900 1484 948 1450 987 1406 C 1026 1362 1058 1309 1082 1248 C 1106 1186 1124 1118 1137 1044 L 911 1004 C 901 1058 888 1104 874 1144 C 859 1184 841 1217 819 1243 C 797 1269 772 1288 743 1300 C 713 1312 679 1319 639 1319 C 534 1319 455 1271 402 1176 C 348 1080 322 942 322 762 C 322 572 349 430 403 334 C 457 238 537 190 643 190 C 683 190 718 196 748 208 C 778 220 805 240 828 267 C 851 293 871 328 887 371 C 903 413 918 465 930 526 L 1153 489 C 1139 415 1118 346 1092 283 C 1066 220 1032 166 991 120 C 950 74 901 38 843 12 C 785 -14 718 -27 641 -27 Z" unicode="Ĉ" />
<glyph horiz-adv-x="958" d="M 422 1528 L 580 1528 L 805 1196 L 666 1196 L 500 1360 L 334 1196 L 197 1196 L 422 1528 Z M 504 -23 C 445 -23 389 -11 336 11 C 283 33 237 68 197 115 C 157 161 125 220 101 291 C 77 362 66 446 66 543 C 66 643 78 728 104 800 C 129 872 162 930 204 976 C 246 1021 293 1054 347 1076 C 401 1097 456 1108 514 1108 C 574 1108 626 1099 670 1081 C 714 1063 751 1039 782 1008 C 812 977 837 941 857 900 C 876 858 892 814 905 768 L 696 717 C 687 749 677 778 667 802 C 656 826 643 846 628 862 C 613 878 596 889 577 897 C 557 905 535 909 510 909 C 480 909 452 902 426 889 C 400 875 377 854 359 825 C 340 795 325 757 315 711 C 304 665 299 609 299 543 C 299 422 316 330 351 266 C 386 202 439 170 510 170 C 534 170 556 173 576 180 C 596 186 615 197 631 213 C 647 229 662 249 675 275 C 687 301 698 333 707 371 L 909 319 C 895 268 877 222 855 180 C 832 138 804 102 771 72 C 738 42 699 18 655 2 C 611 -14 560 -23 504 -23 Z" unicode="ĉ" />
<glyph horiz-adv-x="1221" d="M 641 -27 C 555 -27 478 -11 409 21 C 340 53 281 101 233 166 C 184 231 146 313 120 412 C 93 510 80 626 80 760 C 80 890 93 1005 121 1103 C 148 1201 186 1283 236 1348 C 286 1413 345 1462 415 1495 C 484 1527 561 1544 645 1544 C 721 1544 788 1532 844 1508 C 900 1484 948 1450 987 1406 C 1026 1362 1058 1309 1082 1248 C 1106 1186 1124 1118 1137 1044 L 911 1004 C 901 1058 888 1104 874 1144 C 859 1184 841 1217 819 1243 C 797 1269 772 1288 743 1300 C 713 1312 679 1319 639 1319 C 534 1319 455 1271 402 1176 C 348 1080 322 942 322 762 C 322 572 349 430 403 334 C 457 238 537 190 643 190 C 683 190 718 196 748 208 C 778 220 805 240 828 267 C 851 293 871 328 887 371 C 903 413 918 465 930 526 L 1153 489 C 1139 415 1118 346 1092 283 C 1066 220 1032 166 991 120 C 950 74 901 38 843 12 C 785 -14 718 -27 641 -27 Z M 502 1831 L 752 1831 L 752 1610 L 502 1610 L 502 1831 Z" unicode="Ċ" />
<glyph horiz-adv-x="958" d="M 504 -23 C 445 -23 389 -11 336 11 C 283 33 237 68 197 115 C 157 161 125 220 101 291 C 77 362 66 446 66 543 C 66 643 78 728 104 800 C 129 872 162 930 204 976 C 246 1021 293 1054 347 1076 C 401 1097 456 1108 514 1108 C 574 1108 626 1099 670 1081 C 714 1063 751 1039 782 1008 C 812 977 837 941 857 900 C 876 858 892 814 905 768 L 696 717 C 687 749 677 778 667 802 C 656 826 643 846 628 862 C 613 878 596 889 577 897 C 557 905 535 909 510 909 C 480 909 452 902 426 889 C 400 875 377 854 359 825 C 340 795 325 757 315 711 C 304 665 299 609 299 543 C 299 422 316 330 351 266 C 386 202 439 170 510 170 C 534 170 556 173 576 180 C 596 186 615 197 631 213 C 647 229 662 249 675 275 C 687 301 698 333 707 371 L 909 319 C 895 268 877 222 855 180 C 832 138 804 102 771 72 C 738 42 699 18 655 2 C 611 -14 560 -23 504 -23 Z M 377 1417 L 627 1417 L 627 1196 L 377 1196 L 377 1417 Z" unicode="ċ" />
<glyph horiz-adv-x="1221" d="M 305 1942 L 444 1942 L 610 1778 L 776 1942 L 913 1942 L 688 1610 L 528 1610 L 305 1942 Z M 641 -27 C 555 -27 478 -11 409 21 C 340 53 281 101 233 166 C 184 231 146 313 120 412 C 93 510 80 626 80 760 C 80 890 93 1005 121 1103 C 148 1201 186 1283 236 1348 C 286 1413 345 1462 415 1495 C 484 1527 561 1544 645 1544 C 721 1544 788 1532 844 1508 C 900 1484 948 1450 987 1406 C 1026 1362 1058 1309 1082 1248 C 1106 1186 1124 1118 1137 1044 L 911 1004 C 901 1058 888 1104 874 1144 C 859 1184 841 1217 819 1243 C 797 1269 772 1288 743 1300 C 713 1312 679 1319 639 1319 C 534 1319 455 1271 402 1176 C 348 1080 322 942 322 762 C 322 572 349 430 403 334 C 457 238 537 190 643 190 C 683 190 718 196 748 208 C 778 220 805 240 828 267 C 851 293 871 328 887 371 C 903 413 918 465 930 526 L 1153 489 C 1139 415 1118 346 1092 283 C 1066 220 1032 166 991 120 C 950 74 901 38 843 12 C 785 -14 718 -27 641 -27 Z" unicode="Č" />
<glyph horiz-adv-x="958" d="M 174 1532 L 313 1532 L 479 1368 L 645 1532 L 782 1532 L 557 1200 L 397 1200 L 174 1532 Z M 504 -23 C 445 -23 389 -11 336 11 C 283 33 237 68 197 115 C 157 161 125 220 101 291 C 77 362 66 446 66 543 C 66 643 78 728 104 800 C 129 872 162 930 204 976 C 246 1021 293 1054 347 1076 C 401 1097 456 1108 514 1108 C 574 1108 626 1099 670 1081 C 714 1063 751 1039 782 1008 C 812 977 837 941 857 900 C 876 858 892 814 905 768 L 696 717 C 687 749 677 778 667 802 C 656 826 643 846 628 862 C 613 878 596 889 577 897 C 557 905 535 909 510 909 C 480 909 452 902 426 889 C 400 875 377 854 359 825 C 340 795 325 757 315 711 C 304 665 299 609 299 543 C 299 422 316 330 351 266 C 386 202 439 170 510 170 C 534 170 556 173 576 180 C 596 186 615 197 631 213 C 647 229 662 249 675 275 C 687 301 698 333 707 371 L 909 319 C 895 268 877 222 855 180 C 832 138 804 102 771 72 C 738 42 699 18 655 2 C 611 -14 560 -23 504 -23 Z" unicode="č" />
<glyph horiz-adv-x="1255" d="M 324 1942 L 463 1942 L 629 1778 L 795 1942 L 932 1942 L 707 1610 L 547 1610 L 324 1942 Z M 141 1516 L 506 1516 C 609 1516 702 1502 785 1476 C 867 1450 938 1407 996 1348 C 1054 1288 1098 1211 1129 1115 C 1160 1019 1176 901 1176 762 C 1176 621 1160 502 1128 405 C 1096 308 1051 230 993 170 C 935 110 864 66 782 40 C 700 13 608 0 506 0 L 141 0 L 141 1516 Z M 532 215 C 602 215 663 224 714 244 C 764 264 806 295 838 339 C 870 383 894 439 909 509 C 924 578 932 662 932 762 C 932 858 924 939 909 1007 C 894 1075 870 1130 838 1172 C 805 1214 763 1245 713 1265 C 662 1284 601 1294 530 1294 L 383 1294 L 383 215 L 532 215 Z" unicode="Ď" />
<glyph horiz-adv-x="1067" d="M 1108 1380 L 1034 1380 L 1034 1604 L 1237 1604 L 1237 1403 L 1139 1186 L 1044 1186 L 1108 1380 Z M 428 -16 C 375 -16 327 -5 283 16 C 239 38 201 71 169 117 C 137 163 112 221 94 291 C 76 361 68 445 68 543 C 68 641 77 725 96 796 C 115 867 141 926 175 972 C 208 1018 247 1052 293 1074 C 339 1096 388 1108 442 1108 C 504 1108 557 1096 601 1072 C 644 1048 683 1015 719 971 L 719 1516 L 952 1516 L 952 266 C 952 200 953 146 957 104 C 961 62 968 28 979 0 L 739 0 C 735 8 732 18 730 31 C 728 43 726 56 724 70 C 722 83 721 96 720 109 C 719 121 719 132 719 141 C 703 120 685 100 666 81 C 646 62 625 45 601 31 C 577 17 550 5 522 -3 C 493 -11 462 -16 428 -16 Z M 508 174 C 526 174 546 178 566 186 C 586 194 606 204 625 216 C 644 228 662 242 678 256 C 694 270 708 284 719 297 L 719 793 C 689 829 656 858 620 878 C 584 898 546 909 506 909 C 474 909 445 901 420 887 C 395 873 374 851 357 821 C 339 791 326 752 317 705 C 307 658 303 602 303 537 C 303 411 321 319 357 261 C 393 203 443 174 508 174 Z" unicode="ď" />
<glyph horiz-adv-x="1255" d="M 23 696 L 23 887 L 141 887 L 141 1516 L 506 1516 C 609 1516 702 1502 785 1476 C 867 1450 938 1407 996 1348 C 1054 1288 1098 1211 1129 1115 C 1160 1019 1176 901 1176 762 C 1176 621 1160 502 1128 405 C 1096 308 1051 230 993 170 C 935 110 864 66 782 40 C 700 13 608 0 506 0 L 141 0 L 141 696 L 23 696 Z M 631 887 L 631 696 L 383 696 L 383 215 L 532 215 C 602 215 663 224 714 244 C 764 264 806 295 838 339 C 870 383 894 439 909 509 C 924 578 932 662 932 762 C 932 858 924 939 909 1007 C 894 1075 870 1130 838 1172 C 805 1214 763 1245 713 1265 C 662 1284 601 1294 530 1294 L 383 1294 L 383 887 L 631 887 Z" unicode="Đ" />
<glyph horiz-adv-x="1067" d="M 543 1333 L 719 1333 L 719 1516 L 952 1516 L 952 1333 L 1075 1333 L 1075 1178 L 952 1178 L 952 266 C 952 200 953 146 957 104 C 961 62 968 28 979 0 L 739 0 C 736 8 733 19 731 32 C 729 44 727 57 725 70 C 723 83 721 96 720 109 C 719 121 719 132 719 141 C 703 120 685 100 666 81 C 646 62 625 45 601 31 C 577 16 551 4 523 -4 C 495 -13 464 -18 430 -18 C 376 -18 327 -7 283 14 C 239 36 201 69 169 115 C 137 160 112 218 94 288 C 76 358 68 443 68 541 C 68 638 77 722 95 794 C 113 865 138 924 170 970 C 202 1016 240 1051 285 1074 C 329 1096 378 1108 432 1108 C 494 1108 549 1093 597 1065 C 645 1036 685 1000 719 956 L 719 1178 L 543 1178 L 543 1333 Z M 508 170 C 550 170 589 181 623 204 C 657 227 689 255 719 289 L 719 788 C 687 824 653 853 619 876 C 585 899 547 911 506 911 C 474 911 445 904 420 890 C 394 876 373 854 356 824 C 338 794 325 756 316 710 C 307 663 303 607 303 543 C 303 415 320 320 356 260 C 392 200 442 170 508 170 Z" unicode="đ" />
<glyph horiz-adv-x="1059" d="M 141 1516 L 963 1516 L 963 1292 L 383 1292 L 383 903 L 803 903 L 803 686 L 383 686 L 383 217 L 993 217 L 993 0 L 141 0 L 141 1516 Z M 289 1784 L 829 1784 L 829 1604 L 289 1604 L 289 1784 Z" unicode="Ē" />
<glyph horiz-adv-x="987" d="M 514 -23 C 451 -23 392 -11 338 10 C 284 32 236 67 196 113 C 156 159 124 218 101 289 C 77 360 66 445 66 543 C 66 643 78 729 104 801 C 130 872 163 930 205 976 C 247 1022 294 1055 347 1076 C 400 1097 454 1108 510 1108 C 570 1108 626 1096 677 1074 C 727 1051 771 1016 807 970 C 843 923 872 864 892 792 C 912 720 922 635 922 537 L 922 473 L 295 473 C 300 369 322 293 362 243 C 402 193 456 168 524 168 C 552 168 578 171 602 178 C 625 184 646 194 666 207 C 685 219 703 235 721 253 C 738 271 755 291 772 315 L 920 209 C 899 176 874 145 846 117 C 818 89 786 64 752 44 C 717 23 680 7 640 -5 C 600 -17 558 -23 514 -23 Z M 705 637 C 699 727 681 796 649 843 C 617 889 570 913 508 913 C 482 913 458 908 434 898 C 410 888 389 873 371 851 C 352 829 336 800 323 765 C 310 730 301 687 297 637 L 705 637 Z M 221 1374 L 761 1374 L 761 1194 L 221 1194 L 221 1374 Z" unicode="ē" />
<glyph horiz-adv-x="1059" d="M 141 1516 L 963 1516 L 963 1292 L 383 1292 L 383 903 L 803 903 L 803 686 L 383 686 L 383 217 L 993 217 L 993 0 L 141 0 L 141 1516 Z M 543 1600 C 495 1600 454 1608 418 1625 C 382 1641 353 1665 329 1696 C 305 1726 286 1763 273 1806 C 260 1849 252 1897 250 1950 L 387 1950 C 391 1914 397 1883 406 1859 C 415 1834 426 1814 440 1799 C 453 1783 468 1772 486 1765 C 503 1758 522 1755 543 1755 C 563 1755 582 1758 599 1765 C 616 1772 631 1783 645 1799 C 658 1814 669 1834 678 1859 C 686 1883 693 1914 697 1950 L 834 1950 C 831 1897 823 1849 811 1806 C 798 1763 780 1726 756 1696 C 732 1665 702 1641 667 1625 C 631 1608 590 1600 543 1600 Z" unicode="Ĕ" />
<glyph horiz-adv-x="987" d="M 514 -23 C 451 -23 392 -11 338 10 C 284 32 236 67 196 113 C 156 159 124 218 101 289 C 77 360 66 445 66 543 C 66 643 78 729 104 801 C 130 872 163 930 205 976 C 247 1022 294 1055 347 1076 C 400 1097 454 1108 510 1108 C 570 1108 626 1096 677 1074 C 727 1051 771 1016 807 970 C 843 923 872 864 892 792 C 912 720 922 635 922 537 L 922 473 L 295 473 C 300 369 322 293 362 243 C 402 193 456 168 524 168 C 552 168 578 171 602 178 C 625 184 646 194 666 207 C 685 219 703 235 721 253 C 738 271 755 291 772 315 L 920 209 C 899 176 874 145 846 117 C 818 89 786 64 752 44 C 717 23 680 7 640 -5 C 600 -17 558 -23 514 -23 Z M 705 637 C 699 727 681 796 649 843 C 617 889 570 913 508 913 C 482 913 458 908 434 898 C 410 888 389 873 371 851 C 352 829 336 800 323 765 C 310 730 301 687 297 637 L 705 637 Z M 502 1186 C 454 1186 413 1194 377 1211 C 341 1227 312 1251 288 1282 C 264 1312 245 1349 232 1392 C 219 1435 211 1483 209 1536 L 346 1536 C 350 1500 356 1469 365 1445 C 374 1420 385 1400 399 1385 C 412 1369 427 1358 445 1351 C 462 1344 481 1341 502 1341 C 522 1341 541 1344 558 1351 C 575 1358 590 1369 604 1385 C 617 1400 628 1420 637 1445 C 645 1469 652 1500 656 1536 L 793 1536 C 790 1483 782 1435 770 1392 C 757 1349 739 1312 715 1282 C 691 1251 661 1227 626 1211 C 590 1194 549 1186 502 1186 Z" unicode="ĕ" />
<glyph horiz-adv-x="1059" d="M 141 1516 L 963 1516 L 963 1292 L 383 1292 L 383 903 L 803 903 L 803 686 L 383 686 L 383 217 L 993 217 L 993 0 L 141 0 L 141 1516 Z M 434 1827 L 684 1827 L 684 1606 L 434 1606 L 434 1827 Z" unicode="Ė" />
<glyph horiz-adv-x="987" d="M 514 -23 C 451 -23 392 -11 338 10 C 284 32 236 67 196 113 C 156 159 124 218 101 289 C 77 360 66 445 66 543 C 66 643 78 729 104 801 C 130 872 163 930 205 976 C 247 1022 294 1055 347 1076 C 400 1097 454 1108 510 1108 C 570 1108 626 1096 677 1074 C 727 1051 771 1016 807 970 C 843 923 872 864 892 792 C 912 720 922 635 922 537 L 922 473 L 295 473 C 300 369 322 293 362 243 C 402 193 456 168 524 168 C 552 168 578 171 602 178 C 625 184 646 194 666 207 C 685 219 703 235 721 253 C 738 271 755 291 772 315 L 920 209 C 899 176 874 145 846 117 C 818 89 786 64 752 44 C 717 23 680 7 640 -5 C 600 -17 558 -23 514 -23 Z M 705 637 C 699 727 681 796 649 843 C 617 889 570 913 508 913 C 482 913 458 908 434 898 C 410 888 389 873 371 851 C 352 829 336 800 323 765 C 310 730 301 687 297 637 L 705 637 Z M 366 1417 L 616 1417 L 616 1196 L 366 1196 L 366 1417 Z" unicode="ė" />
<glyph horiz-adv-x="1059" d="M 817 -391 C 753 -391 704 -376 672 -346 C 640 -316 624 -277 624 -229 C 624 -207 628 -185 636 -163 C 644 -141 656 -119 670 -99 C 684 -78 700 -58 719 -40 C 737 -21 757 -4 778 10 L 905 10 C 865 -18 834 -50 813 -86 C 792 -121 782 -156 782 -190 C 782 -216 788 -237 801 -254 C 813 -270 836 -279 868 -279 C 894 -279 921 -273 947 -263 C 973 -252 997 -240 1021 -227 L 1077 -303 C 1058 -315 1039 -327 1020 -338 C 1001 -348 981 -358 960 -366 C 939 -374 917 -380 893 -384 C 869 -388 844 -391 817 -391 Z M 141 1516 L 963 1516 L 963 1292 L 383 1292 L 383 903 L 803 903 L 803 686 L 383 686 L 383 217 L 993 217 L 993 0 L 141 0 L 141 1516 Z" unicode="Ę" />
<glyph horiz-adv-x="987" d="M 541 -391 C 477 -391 428 -376 396 -346 C 364 -316 348 -277 348 -229 C 348 -207 352 -185 360 -163 C 368 -141 380 -119 394 -99 C 408 -78 424 -58 443 -40 C 461 -21 481 -4 502 10 L 629 10 C 589 -18 558 -50 537 -86 C 516 -121 506 -156 506 -190 C 506 -216 512 -237 525 -254 C 537 -270 560 -279 592 -279 C 618 -279 645 -273 671 -263 C 697 -252 721 -240 745 -227 L 801 -303 C 782 -315 763 -327 744 -338 C 725 -348 705 -358 684 -366 C 663 -374 641 -380 617 -384 C 593 -388 568 -391 541 -391 Z M 514 -23 C 451 -23 392 -11 338 10 C 284 32 236 67 196 113 C 156 159 124 218 101 289 C 77 360 66 445 66 543 C 66 643 78 729 104 801 C 130 872 163 930 205 976 C 247 1022 294 1055 347 1076 C 400 1097 454 1108 510 1108 C 570 1108 626 1096 677 1074 C 727 1051 771 1016 807 970 C 843 923 872 864 892 792 C 912 720 922 635 922 537 L 922 473 L 295 473 C 300 369 322 293 362 243 C 402 193 456 168 524 168 C 552 168 578 171 602 178 C 625 184 646 194 666 207 C 685 219 703 235 721 253 C 738 271 755 291 772 315 L 920 209 C 899 176 874 145 846 117 C 818 89 786 64 752 44 C 717 23 680 7 640 -5 C 600 -17 558 -23 514 -23 Z M 705 637 C 699 727 681 796 649 843 C 617 889 570 913 508 913 C 482 913 458 908 434 898 C 410 888 389 873 371 851 C 352 829 336 800 323 765 C 310 730 301 687 297 637 L 705 637 Z" unicode="ę" />
<glyph horiz-adv-x="1059" d="M 256 1942 L 395 1942 L 561 1778 L 727 1942 L 864 1942 L 639 1610 L 479 1610 L 256 1942 Z M 141 1516 L 963 1516 L 963 1292 L 383 1292 L 383 903 L 803 903 L 803 686 L 383 686 L 383 217 L 993 217 L 993 0 L 141 0 L 141 1516 Z" unicode="Ě" />
<glyph horiz-adv-x="987" d="M 188 1532 L 327 1532 L 493 1368 L 659 1532 L 796 1532 L 571 1200 L 411 1200 L 188 1532 Z M 514 -23 C 451 -23 392 -11 338 10 C 284 32 236 67 196 113 C 156 159 124 218 101 289 C 77 360 66 445 66 543 C 66 643 78 729 104 801 C 130 872 163 930 205 976 C 247 1022 294 1055 347 1076 C 400 1097 454 1108 510 1108 C 570 1108 626 1096 677 1074 C 727 1051 771 1016 807 970 C 843 923 872 864 892 792 C 912 720 922 635 922 537 L 922 473 L 295 473 C 300 369 322 293 362 243 C 402 193 456 168 524 168 C 552 168 578 171 602 178 C 625 184 646 194 666 207 C 685 219 703 235 721 253 C 738 271 755 291 772 315 L 920 209 C 899 176 874 145 846 117 C 818 89 786 64 752 44 C 717 23 680 7 640 -5 C 600 -17 558 -23 514 -23 Z M 705 637 C 699 727 681 796 649 843 C 617 889 570 913 508 913 C 482 913 458 908 434 898 C 410 888 389 873 371 851 C 352 829 336 800 323 765 C 310 730 301 687 297 637 L 705 637 Z" unicode="ě" />
<glyph horiz-adv-x="1276" d="M 555 1942 L 713 1942 L 938 1610 L 799 1610 L 633 1774 L 467 1610 L 330 1610 L 555 1942 Z M 618 -27 C 531 -27 454 -9 388 26 C 321 61 265 112 219 180 C 173 248 139 330 115 428 C 91 526 80 637 80 762 C 80 886 92 996 118 1093 C 143 1189 180 1271 228 1338 C 276 1405 336 1456 406 1491 C 476 1526 555 1544 645 1544 C 715 1544 777 1533 831 1512 C 885 1491 932 1460 972 1418 C 1012 1376 1045 1323 1072 1261 C 1098 1199 1119 1126 1135 1044 L 915 999 C 903 1057 889 1107 873 1148 C 857 1188 837 1221 815 1247 C 793 1273 767 1291 738 1303 C 709 1315 676 1321 639 1321 C 593 1321 551 1311 513 1291 C 474 1271 440 1239 412 1195 C 384 1151 362 1093 346 1023 C 330 953 322 867 322 766 C 322 661 329 572 345 499 C 360 426 382 367 410 321 C 438 275 473 241 513 221 C 553 200 599 190 649 190 C 733 190 800 219 850 277 C 900 335 928 425 936 549 L 682 549 L 682 750 L 1153 750 L 1153 0 L 971 0 L 971 201 L 967 201 C 957 173 942 146 922 119 C 902 92 877 68 848 46 C 818 24 784 7 746 -6 C 708 -20 665 -27 618 -27 Z" unicode="Ĝ" />
<glyph horiz-adv-x="1042" d="M 394 1528 L 552 1528 L 777 1196 L 638 1196 L 472 1360 L 306 1196 L 169 1196 L 394 1528 Z M 774 999 C 788 1013 805 1026 824 1038 C 843 1050 863 1060 883 1070 C 903 1079 924 1087 944 1093 C 964 1099 983 1103 1001 1106 L 1001 903 C 981 903 958 901 932 899 C 905 896 876 890 846 881 C 857 857 866 832 872 804 C 878 776 881 747 881 715 C 881 655 871 601 853 553 C 834 505 807 464 773 430 C 738 396 696 371 647 353 C 598 335 543 326 483 326 C 456 326 431 327 407 330 C 383 333 361 338 340 346 C 311 328 297 305 297 279 C 297 269 298 260 301 254 C 304 247 310 241 318 236 C 326 231 338 227 352 224 C 366 220 385 217 408 215 L 561 199 C 635 192 699 181 751 167 C 803 153 845 134 878 111 C 910 87 934 59 949 26 C 963 -6 971 -45 971 -90 C 971 -140 958 -185 933 -225 C 907 -265 872 -298 827 -326 C 781 -353 727 -374 665 -388 C 603 -402 535 -410 461 -410 C 379 -410 309 -404 253 -392 C 196 -380 150 -364 115 -343 C 80 -321 55 -295 39 -264 C 23 -233 16 -198 16 -160 C 16 -106 31 -60 62 -22 C 93 16 134 47 186 72 C 158 88 136 107 121 129 C 105 151 98 177 98 209 C 98 227 101 244 108 262 C 114 280 123 297 135 313 C 146 329 160 345 176 359 C 192 373 209 387 227 399 C 179 434 142 479 116 533 C 90 587 78 648 78 715 C 78 773 87 827 107 875 C 126 923 153 965 188 999 C 223 1033 265 1060 315 1079 C 365 1098 420 1108 481 1108 C 543 1108 599 1098 649 1080 C 698 1061 740 1034 774 999 Z M 485 487 C 543 487 588 506 619 545 C 650 584 666 639 666 711 C 666 783 650 838 620 876 C 589 914 543 934 483 934 C 423 934 378 914 346 875 C 314 835 299 781 299 711 C 299 639 315 584 347 545 C 379 506 425 487 485 487 Z M 326 31 C 292 11 268 -11 252 -37 C 236 -63 229 -91 229 -121 C 229 -146 233 -167 243 -185 C 252 -202 267 -216 288 -227 C 309 -237 336 -245 370 -250 C 404 -255 445 -258 494 -258 C 532 -258 568 -255 601 -250 C 633 -244 661 -236 685 -225 C 708 -214 726 -200 740 -184 C 753 -167 760 -147 760 -125 C 760 -105 756 -88 750 -73 C 744 -58 732 -45 715 -35 C 697 -24 673 -15 643 -8 C 612 0 572 5 524 10 L 354 27 C 350 28 345 29 341 29 C 336 29 331 29 326 31 Z" unicode="ĝ" />
<glyph horiz-adv-x="1276" d="M 618 -27 C 531 -27 454 -9 388 26 C 321 61 265 112 219 180 C 173 248 139 330 115 428 C 91 526 80 637 80 762 C 80 886 92 996 118 1093 C 143 1189 180 1271 228 1338 C 276 1405 336 1456 406 1491 C 476 1526 555 1544 645 1544 C 715 1544 777 1533 831 1512 C 885 1491 932 1460 972 1418 C 1012 1376 1045 1323 1072 1261 C 1098 1199 1119 1126 1135 1044 L 915 999 C 903 1057 889 1107 873 1148 C 857 1188 837 1221 815 1247 C 793 1273 767 1291 738 1303 C 709 1315 676 1321 639 1321 C 593 1321 551 1311 513 1291 C 474 1271 440 1239 412 1195 C 384 1151 362 1093 346 1023 C 330 953 322 867 322 766 C 322 661 329 572 345 499 C 360 426 382 367 410 321 C 438 275 473 241 513 221 C 553 200 599 190 649 190 C 733 190 800 219 850 277 C 900 335 928 425 936 549 L 682 549 L 682 750 L 1153 750 L 1153 0 L 971 0 L 971 201 L 967 201 C 957 173 942 146 922 119 C 902 92 877 68 848 46 C 818 24 784 7 746 -6 C 708 -20 665 -27 618 -27 Z M 639 1596 C 591 1596 550 1604 514 1621 C 478 1637 449 1661 425 1692 C 401 1722 382 1759 369 1802 C 356 1845 348 1893 346 1946 L 483 1946 C 487 1910 493 1879 502 1855 C 511 1830 522 1810 536 1795 C 549 1779 564 1768 582 1761 C 599 1754 618 1751 639 1751 C 659 1751 678 1754 695 1761 C 712 1768 727 1779 741 1795 C 754 1810 765 1830 774 1855 C 782 1879 789 1910 793 1946 L 930 1946 C 927 1893 919 1845 907 1802 C 894 1759 876 1722 852 1692 C 828 1661 798 1637 763 1621 C 727 1604 686 1596 639 1596 Z" unicode="Ğ" />
<glyph horiz-adv-x="1042" d="M 774 999 C 788 1013 805 1026 824 1038 C 843 1050 863 1060 883 1070 C 903 1079 924 1087 944 1093 C 964 1099 983 1103 1001 1106 L 1001 903 C 981 903 958 901 932 899 C 905 896 876 890 846 881 C 857 857 866 832 872 804 C 878 776 881 747 881 715 C 881 655 871 601 853 553 C 834 505 807 464 773 430 C 738 396 696 371 647 353 C 598 335 543 326 483 326 C 456 326 431 327 407 330 C 383 333 361 338 340 346 C 311 328 297 305 297 279 C 297 269 298 260 301 254 C 304 247 310 241 318 236 C 326 231 338 227 352 224 C 366 220 385 217 408 215 L 561 199 C 635 192 699 181 751 167 C 803 153 845 134 878 111 C 910 87 934 59 949 26 C 963 -6 971 -45 971 -90 C 971 -140 958 -185 933 -225 C 907 -265 872 -298 827 -326 C 781 -353 727 -374 665 -388 C 603 -402 535 -410 461 -410 C 379 -410 309 -404 253 -392 C 196 -380 150 -364 115 -343 C 80 -321 55 -295 39 -264 C 23 -233 16 -198 16 -160 C 16 -106 31 -60 62 -22 C 93 16 134 47 186 72 C 158 88 136 107 121 129 C 105 151 98 177 98 209 C 98 227 101 244 108 262 C 114 280 123 297 135 313 C 146 329 160 345 176 359 C 192 373 209 387 227 399 C 179 434 142 479 116 533 C 90 587 78 648 78 715 C 78 773 87 827 107 875 C 126 923 153 965 188 999 C 223 1033 265 1060 315 1079 C 365 1098 420 1108 481 1108 C 543 1108 599 1098 649 1080 C 698 1061 740 1034 774 999 Z M 485 487 C 543 487 588 506 619 545 C 650 584 666 639 666 711 C 666 783 650 838 620 876 C 589 914 543 934 483 934 C 423 934 378 914 346 875 C 314 835 299 781 299 711 C 299 639 315 584 347 545 C 379 506 425 487 485 487 Z M 326 31 C 292 11 268 -11 252 -37 C 236 -63 229 -91 229 -121 C 229 -146 233 -167 243 -185 C 252 -202 267 -216 288 -227 C 309 -237 336 -245 370 -250 C 404 -255 445 -258 494 -258 C 532 -258 568 -255 601 -250 C 633 -244 661 -236 685 -225 C 708 -214 726 -200 740 -184 C 753 -167 760 -147 760 -125 C 760 -105 756 -88 750 -73 C 744 -58 732 -45 715 -35 C 697 -24 673 -15 643 -8 C 612 0 572 5 524 10 L 354 27 C 350 28 345 29 341 29 C 336 29 331 29 326 31 Z M 491 1186 C 443 1186 402 1194 366 1211 C 330 1227 301 1251 277 1282 C 253 1312 234 1349 221 1392 C 208 1435 200 1483 198 1536 L 335 1536 C 339 1500 345 1469 354 1445 C 363 1420 374 1400 388 1385 C 401 1369 416 1358 434 1351 C 451 1344 470 1341 491 1341 C 511 1341 530 1344 547 1351 C 564 1358 579 1369 593 1385 C 606 1400 617 1420 626 1445 C 634 1469 641 1500 645 1536 L 782 1536 C 779 1483 771 1435 759 1392 C 746 1349 728 1312 704 1282 C 680 1251 650 1227 615 1211 C 579 1194 538 1186 491 1186 Z" unicode="ğ" />
<glyph horiz-adv-x="1276" d="M 618 -27 C 531 -27 454 -9 388 26 C 321 61 265 112 219 180 C 173 248 139 330 115 428 C 91 526 80 637 80 762 C 80 886 92 996 118 1093 C 143 1189 180 1271 228 1338 C 276 1405 336 1456 406 1491 C 476 1526 555 1544 645 1544 C 715 1544 777 1533 831 1512 C 885 1491 932 1460 972 1418 C 1012 1376 1045 1323 1072 1261 C 1098 1199 1119 1126 1135 1044 L 915 999 C 903 1057 889 1107 873 1148 C 857 1188 837 1221 815 1247 C 793 1273 767 1291 738 1303 C 709 1315 676 1321 639 1321 C 593 1321 551 1311 513 1291 C 474 1271 440 1239 412 1195 C 384 1151 362 1093 346 1023 C 330 953 322 867 322 766 C 322 661 329 572 345 499 C 360 426 382 367 410 321 C 438 275 473 241 513 221 C 553 200 599 190 649 190 C 733 190 800 219 850 277 C 900 335 928 425 936 549 L 682 549 L 682 750 L 1153 750 L 1153 0 L 971 0 L 971 201 L 967 201 C 957 173 942 146 922 119 C 902 92 877 68 848 46 C 818 24 784 7 746 -6 C 708 -20 665 -27 618 -27 Z M 508 1831 L 758 1831 L 758 1610 L 508 1610 L 508 1831 Z" unicode="Ġ" />
<glyph horiz-adv-x="1042" d="M 774 999 C 788 1013 805 1026 824 1038 C 843 1050 863 1060 883 1070 C 903 1079 924 1087 944 1093 C 964 1099 983 1103 1001 1106 L 1001 903 C 981 903 958 901 932 899 C 905 896 876 890 846 881 C 857 857 866 832 872 804 C 878 776 881 747 881 715 C 881 655 871 601 853 553 C 834 505 807 464 773 430 C 738 396 696 371 647 353 C 598 335 543 326 483 326 C 456 326 431 327 407 330 C 383 333 361 338 340 346 C 311 328 297 305 297 279 C 297 269 298 260 301 254 C 304 247 310 241 318 236 C 326 231 338 227 352 224 C 366 220 385 217 408 215 L 561 199 C 635 192 699 181 751 167 C 803 153 845 134 878 111 C 910 87 934 59 949 26 C 963 -6 971 -45 971 -90 C 971 -140 958 -185 933 -225 C 907 -265 872 -298 827 -326 C 781 -353 727 -374 665 -388 C 603 -402 535 -410 461 -410 C 379 -410 309 -404 253 -392 C 196 -380 150 -364 115 -343 C 80 -321 55 -295 39 -264 C 23 -233 16 -198 16 -160 C 16 -106 31 -60 62 -22 C 93 16 134 47 186 72 C 158 88 136 107 121 129 C 105 151 98 177 98 209 C 98 227 101 244 108 262 C 114 280 123 297 135 313 C 146 329 160 345 176 359 C 192 373 209 387 227 399 C 179 434 142 479 116 533 C 90 587 78 648 78 715 C 78 773 87 827 107 875 C 126 923 153 965 188 999 C 223 1033 265 1060 315 1079 C 365 1098 420 1108 481 1108 C 543 1108 599 1098 649 1080 C 698 1061 740 1034 774 999 Z M 485 487 C 543 487 588 506 619 545 C 650 584 666 639 666 711 C 666 783 650 838 620 876 C 589 914 543 934 483 934 C 423 934 378 914 346 875 C 314 835 299 781 299 711 C 299 639 315 584 347 545 C 379 506 425 487 485 487 Z M 326 31 C 292 11 268 -11 252 -37 C 236 -63 229 -91 229 -121 C 229 -146 233 -167 243 -185 C 252 -202 267 -216 288 -227 C 309 -237 336 -245 370 -250 C 404 -255 445 -258 494 -258 C 532 -258 568 -255 601 -250 C 633 -244 661 -236 685 -225 C 708 -214 726 -200 740 -184 C 753 -167 760 -147 760 -125 C 760 -105 756 -88 750 -73 C 744 -58 732 -45 715 -35 C 697 -24 673 -15 643 -8 C 612 0 572 5 524 10 L 354 27 C 350 28 345 29 341 29 C 336 29 331 29 326 31 Z M 354 1417 L 604 1417 L 604 1196 L 354 1196 L 354 1417 Z" unicode="ġ" />
<glyph horiz-adv-x="1276" d="M 608 -317 L 528 -317 L 528 -80 L 747 -80 L 747 -293 L 643 -524 L 541 -524 L 608 -317 Z M 618 -27 C 531 -27 454 -9 388 26 C 321 61 265 112 219 180 C 173 248 139 330 115 428 C 91 526 80 637 80 762 C 80 886 92 996 118 1093 C 143 1189 180 1271 228 1338 C 276 1405 336 1456 406 1491 C 476 1526 555 1544 645 1544 C 715 1544 777 1533 831 1512 C 885 1491 932 1460 972 1418 C 1012 1376 1045 1323 1072 1261 C 1098 1199 1119 1126 1135 1044 L 915 999 C 903 1057 889 1107 873 1148 C 857 1188 837 1221 815 1247 C 793 1273 767 1291 738 1303 C 709 1315 676 1321 639 1321 C 593 1321 551 1311 513 1291 C 474 1271 440 1239 412 1195 C 384 1151 362 1093 346 1023 C 330 953 322 867 322 766 C 322 661 329 572 345 499 C 360 426 382 367 410 321 C 438 275 473 241 513 221 C 553 200 599 190 649 190 C 733 190 800 219 850 277 C 900 335 928 425 936 549 L 682 549 L 682 750 L 1153 750 L 1153 0 L 971 0 L 971 201 L 967 201 C 957 173 942 146 922 119 C 902 92 877 68 848 46 C 818 24 784 7 746 -6 C 708 -20 665 -27 618 -27 Z" unicode="Ģ" />
<glyph horiz-adv-x="1042" d="M 383 1407 L 490 1638 L 590 1638 L 522 1432 L 602 1432 L 602 1194 L 383 1194 L 383 1407 Z M 774 999 C 788 1013 805 1026 824 1038 C 843 1050 863 1060 883 1070 C 903 1079 924 1087 944 1093 C 964 1099 983 1103 1001 1106 L 1001 903 C 981 903 958 901 932 899 C 905 896 876 890 846 881 C 857 857 866 832 872 804 C 878 776 881 747 881 715 C 881 655 871 601 853 553 C 834 505 807 464 773 430 C 738 396 696 371 647 353 C 598 335 543 326 483 326 C 456 326 431 327 407 330 C 383 333 361 338 340 346 C 311 328 297 305 297 279 C 297 269 298 260 301 254 C 304 247 310 241 318 236 C 326 231 338 227 352 224 C 366 220 385 217 408 215 L 561 199 C 635 192 699 181 751 167 C 803 153 845 134 878 111 C 910 87 934 59 949 26 C 963 -6 971 -45 971 -90 C 971 -140 958 -185 933 -225 C 907 -265 872 -298 827 -326 C 781 -353 727 -374 665 -388 C 603 -402 535 -410 461 -410 C 379 -410 309 -404 253 -392 C 196 -380 150 -364 115 -343 C 80 -321 55 -295 39 -264 C 23 -233 16 -198 16 -160 C 16 -106 31 -60 62 -22 C 93 16 134 47 186 72 C 158 88 136 107 121 129 C 105 151 98 177 98 209 C 98 227 101 244 108 262 C 114 280 123 297 135 313 C 146 329 160 345 176 359 C 192 373 209 387 227 399 C 179 434 142 479 116 533 C 90 587 78 648 78 715 C 78 773 87 827 107 875 C 126 923 153 965 188 999 C 223 1033 265 1060 315 1079 C 365 1098 420 1108 481 1108 C 543 1108 599 1098 649 1080 C 698 1061 740 1034 774 999 Z M 485 487 C 543 487 588 506 619 545 C 650 584 666 639 666 711 C 666 783 650 838 620 876 C 589 914 543 934 483 934 C 423 934 378 914 346 875 C 314 835 299 781 299 711 C 299 639 315 584 347 545 C 379 506 425 487 485 487 Z M 326 31 C 292 11 268 -11 252 -37 C 236 -63 229 -91 229 -121 C 229 -146 233 -167 243 -185 C 252 -202 267 -216 288 -227 C 309 -237 336 -245 370 -250 C 404 -255 445 -258 494 -258 C 532 -258 568 -255 601 -250 C 633 -244 661 -236 685 -225 C 708 -214 726 -200 740 -184 C 753 -167 760 -147 760 -125 C 760 -105 756 -88 750 -73 C 744 -58 732 -45 715 -35 C 697 -24 673 -15 643 -8 C 612 0 572 5 524 10 L 354 27 C 350 28 345 29 341 29 C 336 29 331 29 326 31 Z" unicode="ģ" />
<glyph horiz-adv-x="1298" d="M 571 1942 L 729 1942 L 954 1610 L 815 1610 L 649 1774 L 483 1610 L 346 1610 L 571 1942 Z M 141 1516 L 383 1516 L 383 907 L 915 907 L 915 1516 L 1157 1516 L 1157 0 L 915 0 L 915 684 L 383 684 L 383 0 L 141 0 L 141 1516 Z" unicode="Ĥ" />
<glyph horiz-adv-x="1059" d="M 156 1938 L 314 1938 L 539 1606 L 400 1606 L 234 1770 L 68 1606 L -69 1606 L 156 1938 Z M 117 1516 L 350 1516 L 350 944 C 366 963 385 982 408 1002 C 431 1022 457 1039 486 1055 C 514 1071 545 1083 579 1093 C 612 1103 647 1108 684 1108 C 767 1108 832 1082 879 1031 C 926 980 950 904 950 803 L 950 0 L 717 0 L 717 750 C 717 803 707 842 688 868 C 669 894 637 907 592 907 C 569 907 546 902 523 894 C 499 885 477 874 455 862 C 433 849 413 835 395 820 C 377 805 362 792 350 780 L 350 0 L 117 0 L 117 1516 Z" unicode="ĥ" />
<glyph horiz-adv-x="1298" d="M 141 1096 L 25 1096 L 25 1286 L 141 1286 L 141 1516 L 383 1516 L 383 1286 L 915 1286 L 915 1516 L 1157 1516 L 1157 1286 L 1274 1286 L 1274 1096 L 1157 1096 L 1157 0 L 915 0 L 915 662 L 383 662 L 383 0 L 141 0 L 141 1096 Z M 915 885 L 915 1096 L 383 1096 L 383 885 L 915 885 Z" unicode="Ħ" />
<glyph horiz-adv-x="1059" d="M -6 1333 L 119 1333 L 119 1516 L 350 1516 L 350 1333 L 528 1333 L 528 1178 L 350 1178 L 350 934 C 366 953 385 973 408 994 C 431 1014 457 1033 486 1050 C 514 1067 545 1081 579 1092 C 612 1102 647 1108 684 1108 C 725 1108 762 1102 795 1091 C 828 1080 856 1063 879 1040 C 902 1016 920 986 932 950 C 944 914 950 870 950 819 L 950 0 L 719 0 L 719 752 C 719 804 709 843 689 869 C 669 895 637 909 592 909 C 570 909 549 905 527 898 C 505 891 484 882 464 870 C 443 858 423 845 404 830 C 384 814 366 798 350 782 L 350 0 L 119 0 L 119 1178 L -6 1178 L -6 1333 Z" unicode="ħ" />
<glyph horiz-adv-x="547" d="M 152 1516 L 393 1516 L 393 0 L 152 0 L 152 1516 Z M 412 1596 C 381 1596 353 1602 329 1614 C 304 1626 281 1639 260 1653 C 239 1667 219 1680 201 1692 C 183 1704 164 1710 146 1710 C 122 1710 104 1701 92 1685 C 80 1668 74 1640 74 1600 L -55 1600 C -55 1698 -38 1770 -4 1815 C 30 1859 77 1882 138 1882 C 168 1882 195 1876 219 1864 C 243 1852 266 1839 287 1825 C 308 1811 328 1798 347 1786 C 365 1774 384 1768 404 1768 C 427 1768 445 1776 457 1792 C 469 1808 476 1836 476 1878 L 603 1878 C 603 1828 598 1786 590 1750 C 581 1714 568 1685 552 1662 C 535 1639 515 1622 492 1612 C 468 1601 442 1596 412 1596 Z" unicode="Ĩ" />
<glyph horiz-adv-x="489" d="M 127 1085 L 360 1085 L 360 0 L 127 0 L 127 1085 Z M 384 1182 C 353 1182 325 1188 301 1200 C 276 1212 253 1225 232 1239 C 211 1253 191 1266 173 1278 C 155 1290 136 1296 118 1296 C 94 1296 76 1287 64 1271 C 52 1254 46 1226 46 1186 L -83 1186 C -83 1284 -66 1356 -32 1401 C 2 1445 49 1468 110 1468 C 140 1468 167 1462 191 1450 C 215 1438 238 1425 259 1411 C 280 1397 300 1384 319 1372 C 337 1360 356 1354 376 1354 C 399 1354 417 1362 429 1378 C 441 1394 448 1422 448 1464 L 575 1464 C 575 1414 570 1372 562 1336 C 553 1300 540 1271 524 1248 C 507 1225 487 1208 464 1198 C 440 1187 414 1182 384 1182 Z" unicode="ĩ" />
<glyph horiz-adv-x="547" d="M 152 1516 L 393 1516 L 393 0 L 152 0 L 152 1516 Z M 3 1784 L 543 1784 L 543 1604 L 3 1604 L 3 1784 Z" unicode="Ī" />
<glyph horiz-adv-x="489" d="M 127 1085 L 360 1085 L 360 0 L 127 0 L 127 1085 Z M -25 1374 L 515 1374 L 515 1194 L -25 1194 L -25 1374 Z" unicode="ī" />
<glyph horiz-adv-x="547" d="M 152 1516 L 393 1516 L 393 0 L 152 0 L 152 1516 Z M 275 1600 C 227 1600 186 1608 150 1625 C 114 1641 85 1665 61 1696 C 37 1726 18 1763 5 1806 C -7 1849 -15 1897 -18 1950 L 119 1950 C 123 1914 129 1883 138 1859 C 147 1834 158 1814 172 1799 C 185 1783 200 1772 218 1765 C 235 1758 254 1755 275 1755 C 295 1755 314 1758 331 1765 C 348 1772 363 1783 377 1799 C 390 1814 401 1834 410 1859 C 418 1883 425 1914 429 1950 L 566 1950 C 563 1897 555 1849 543 1806 C 530 1763 512 1726 488 1696 C 464 1665 434 1641 399 1625 C 363 1608 322 1600 275 1600 Z" unicode="Ĭ" />
<glyph horiz-adv-x="489" d="M 127 1085 L 360 1085 L 360 0 L 127 0 L 127 1085 Z M 247 1186 C 199 1186 158 1194 122 1211 C 86 1227 57 1251 33 1282 C 9 1312 -9 1349 -22 1392 C -35 1435 -43 1483 -46 1536 L 91 1536 C 95 1500 101 1469 110 1445 C 119 1420 130 1400 144 1385 C 157 1369 172 1358 190 1351 C 207 1344 226 1341 247 1341 C 267 1341 286 1344 303 1351 C 320 1358 335 1369 349 1385 C 362 1400 373 1420 382 1445 C 390 1469 397 1500 401 1536 L 538 1536 C 535 1483 527 1435 515 1392 C 502 1349 484 1312 460 1282 C 436 1251 406 1227 371 1211 C 335 1194 294 1186 247 1186 Z" unicode="ĭ" />
<glyph horiz-adv-x="547" d="M 152 1516 L 393 1516 L 393 0 L 152 0 L 152 1516 Z M 200 -391 C 136 -391 87 -376 55 -346 C 23 -316 7 -277 7 -229 C 7 -207 11 -185 19 -163 C 27 -141 39 -119 53 -99 C 67 -78 83 -58 102 -40 C 120 -21 140 -4 161 10 L 288 10 C 248 -18 217 -50 196 -86 C 175 -121 165 -156 165 -190 C 165 -216 171 -237 184 -254 C 196 -270 219 -279 251 -279 C 277 -279 304 -273 330 -263 C 356 -252 380 -240 404 -227 L 460 -303 C 441 -315 422 -327 403 -338 C 384 -348 364 -358 343 -366 C 322 -374 300 -380 276 -384 C 252 -388 227 -391 200 -391 Z" unicode="Į" />
<glyph horiz-adv-x="489" d="M 127 1483 L 362 1483 L 362 1264 L 127 1264 L 127 1483 Z M 127 1085 L 360 1085 L 360 0 L 127 0 L 127 1085 Z M 173 -391 C 109 -391 60 -376 28 -346 C -3 -316 -20 -277 -20 -229 C -20 -207 -15 -185 -7 -163 C 0 -141 12 -119 26 -99 C 40 -78 56 -58 75 -40 C 93 -21 113 -4 134 10 L 261 10 C 221 -18 190 -50 169 -86 C 148 -121 138 -156 138 -190 C 138 -216 144 -237 157 -254 C 169 -270 192 -279 224 -279 C 250 -279 277 -273 303 -263 C 329 -252 353 -240 377 -227 L 433 -303 C 414 -315 395 -327 376 -338 C 357 -348 337 -358 316 -366 C 295 -374 273 -380 249 -384 C 225 -388 200 -391 173 -391 Z" unicode="į" />
<glyph horiz-adv-x="547" d="M 152 1516 L 393 1516 L 393 0 L 152 0 L 152 1516 Z M 148 1827 L 398 1827 L 398 1606 L 148 1606 L 148 1827 Z" unicode="İ" />
<glyph horiz-adv-x="489" d="M 127 1085 L 360 1085 L 360 0 L 127 0 L 127 1085 Z" unicode="ı" />
<glyph horiz-adv-x="1393" d="M 152 1516 L 393 1516 L 393 0 L 152 0 L 152 1516 Z M 884 -19 C 816 -19 749 -8 685 11 C 621 31 563 60 512 98 L 614 274 C 651 248 691 228 735 212 C 779 196 820 188 860 188 C 910 188 950 203 980 233 C 1010 263 1026 311 1026 379 L 1026 1520 L 1267 1520 L 1267 364 C 1267 242 1234 147 1169 81 C 1103 14 1008 -19 884 -19 Z" unicode="Ĳ" />
<glyph horiz-adv-x="977" d="M 127 1483 L 362 1483 L 362 1264 L 127 1264 L 127 1483 Z M 127 1085 L 360 1085 L 360 0 L 127 0 L 127 1085 Z M 614 1483 L 849 1483 L 849 1264 L 614 1264 L 614 1483 Z M 573 -412 C 565 -412 554 -411 542 -411 C 530 -411 517 -410 505 -409 C 493 -408 481 -407 471 -406 C 461 -405 454 -404 452 -403 L 452 -227 C 458 -229 468 -230 482 -231 C 496 -232 508 -233 518 -233 C 550 -233 574 -223 590 -204 C 606 -184 614 -154 614 -113 L 614 1085 L 847 1085 L 847 -135 C 847 -177 843 -216 835 -250 C 827 -284 812 -313 792 -337 C 771 -361 743 -379 708 -392 C 672 -405 627 -412 573 -412 Z" unicode="ĳ" />
<glyph horiz-adv-x="909" d="M 583 1942 L 741 1942 L 966 1610 L 827 1610 L 661 1774 L 495 1610 L 358 1610 L 583 1942 Z M 401 -23 C 333 -23 266 -12 202 7 C 138 27 80 56 29 94 L 131 270 C 168 244 208 224 252 208 C 296 192 337 184 377 184 C 427 184 467 199 497 229 C 527 259 543 307 543 375 L 543 1516 L 784 1516 L 784 360 C 784 238 751 143 686 77 C 620 10 525 -23 401 -23 Z" unicode="Ĵ" />
<glyph horiz-adv-x="489" d="M 86 -412 C 78 -412 67 -411 55 -411 C 43 -411 30 -410 18 -410 C 6 -409 -5 -408 -15 -408 C -25 -407 -32 -406 -35 -406 L -35 -233 C -29 -234 -18 -235 -4 -237 C 9 -239 21 -240 31 -240 C 96 -240 129 -199 129 -119 L 129 1085 L 360 1085 L 360 -135 C 360 -178 356 -217 348 -251 C 340 -285 325 -314 305 -338 C 284 -362 256 -380 221 -393 C 185 -405 140 -412 86 -412 Z M 168 1528 L 326 1528 L 551 1196 L 412 1196 L 246 1360 L 80 1196 L -57 1196 L 168 1528 Z" unicode="ĵ" />
<glyph horiz-adv-x="1202" d="M 571 -317 L 491 -317 L 491 -80 L 710 -80 L 710 -293 L 606 -524 L 504 -524 L 571 -317 Z M 141 1516 L 381 1516 L 381 788 C 387 799 395 814 406 832 C 417 850 429 869 442 890 C 455 910 469 931 483 953 C 497 974 511 994 524 1014 L 862 1516 L 1120 1516 L 707 924 L 1178 0 L 918 0 L 553 719 L 381 483 L 381 0 L 141 0 L 141 1516 Z" unicode="Ķ" />
<glyph horiz-adv-x="981" d="M 461 -317 L 381 -317 L 381 -80 L 600 -80 L 600 -293 L 496 -524 L 394 -524 L 461 -317 Z M 117 1516 L 348 1516 L 348 588 C 353 598 360 611 369 626 C 378 641 388 657 400 674 C 411 691 423 709 436 727 C 448 745 461 762 473 780 L 682 1085 L 920 1085 L 631 686 L 950 0 L 713 0 L 485 496 L 348 311 L 348 0 L 117 0 L 117 1516 Z" unicode="ķ" />
<glyph horiz-adv-x="981" d="M 119 1085 L 348 1085 L 348 588 C 353 598 360 611 369 626 C 378 641 388 657 400 674 C 411 691 423 709 436 727 C 448 745 461 762 473 780 L 684 1085 L 920 1085 L 631 686 L 950 0 L 713 0 L 485 498 L 348 311 L 348 0 L 119 0 L 119 1085 Z" unicode="ĸ" />
<glyph horiz-adv-x="1020" d="M 354 1938 L 597 1938 L 347 1608 L 188 1608 L 354 1938 Z M 141 1516 L 383 1516 L 383 217 L 967 217 L 967 0 L 141 0 L 141 1516 Z" unicode="Ĺ" />
<glyph horiz-adv-x="489" d="M 319 1938 L 562 1938 L 312 1608 L 153 1608 L 319 1938 Z M 127 1516 L 360 1516 L 360 0 L 127 0 L 127 1516 Z" unicode="ĺ" />
<glyph horiz-adv-x="1020" d="M 479 -317 L 399 -317 L 399 -80 L 618 -80 L 618 -293 L 514 -524 L 412 -524 L 479 -317 Z M 141 1516 L 383 1516 L 383 217 L 967 217 L 967 0 L 141 0 L 141 1516 Z" unicode="Ļ" />
<glyph horiz-adv-x="489" d="M 216 -317 L 136 -317 L 136 -80 L 355 -80 L 355 -293 L 251 -524 L 149 -524 L 216 -317 Z M 127 1516 L 360 1516 L 360 0 L 127 0 L 127 1516 Z" unicode="ļ" />
<glyph horiz-adv-x="1020" d="M 627 1276 L 547 1276 L 547 1513 L 766 1513 L 766 1300 L 662 1069 L 560 1069 L 627 1276 Z M 141 1516 L 383 1516 L 383 217 L 967 217 L 967 0 L 141 0 L 141 1516 Z" unicode="Ľ" />
<glyph horiz-adv-x="489" d="M 516 1380 L 442 1380 L 442 1604 L 645 1604 L 645 1403 L 549 1186 L 453 1186 L 516 1380 Z M 127 1516 L 360 1516 L 360 0 L 127 0 L 127 1516 Z" unicode="ľ" />
<glyph horiz-adv-x="1065" d="M 682 942 L 911 942 L 911 721 L 682 721 L 682 942 Z M 141 1516 L 383 1516 L 383 217 L 967 217 L 967 0 L 141 0 L 141 1516 Z" unicode="Ŀ" />
<glyph horiz-adv-x="741" d="M 502 762 L 731 762 L 731 541 L 502 541 L 502 762 Z M 127 1516 L 360 1516 L 360 0 L 127 0 L 127 1516 Z" unicode="ŀ" />
<glyph horiz-adv-x="1020" d="M 141 633 L 23 586 L 23 776 L 141 825 L 141 1516 L 383 1516 L 383 907 L 606 1006 L 606 811 L 383 717 L 383 217 L 967 217 L 967 0 L 141 0 L 141 633 Z" unicode="Ł" />
<glyph horiz-adv-x="573" d="M 170 860 L 43 805 L 43 989 L 170 1044 L 170 1516 L 403 1516 L 403 1120 L 528 1176 L 528 991 L 403 936 L 403 0 L 170 0 L 170 860 Z" unicode="ł" />
<glyph horiz-adv-x="1309" d="M 717 1938 L 960 1938 L 710 1608 L 551 1608 L 717 1938 Z M 141 1516 L 401 1516 L 813 711 C 825 686 837 663 847 643 C 857 623 867 603 877 583 C 887 563 897 542 907 520 C 917 498 929 474 942 446 L 946 446 L 946 1516 L 1165 1516 L 1165 0 L 942 0 L 492 856 C 479 880 468 901 458 921 C 448 940 438 959 429 978 C 419 997 409 1017 399 1038 C 389 1059 377 1084 365 1112 L 360 1112 L 360 0 L 141 0 L 141 1516 Z" unicode="Ń" />
<glyph horiz-adv-x="1059" d="M 592 1528 L 835 1528 L 585 1198 L 426 1198 L 592 1528 Z M 117 1085 L 350 1085 L 350 944 C 366 963 385 982 408 1002 C 431 1022 457 1039 486 1055 C 514 1071 545 1083 579 1093 C 612 1103 647 1108 684 1108 C 767 1108 832 1082 879 1031 C 926 980 950 904 950 803 L 950 0 L 717 0 L 717 750 C 717 803 707 842 688 868 C 669 894 637 907 592 907 C 569 907 546 902 523 894 C 499 885 477 874 455 862 C 433 849 413 835 395 820 C 377 805 362 792 350 780 L 350 0 L 117 0 L 117 1085 Z" unicode="ń" />
<glyph horiz-adv-x="1309" d="M 625 -317 L 545 -317 L 545 -80 L 764 -80 L 764 -293 L 660 -524 L 558 -524 L 625 -317 Z M 141 1516 L 401 1516 L 813 711 C 825 686 837 663 847 643 C 857 623 867 603 877 583 C 887 563 897 542 907 520 C 917 498 929 474 942 446 L 946 446 L 946 1516 L 1165 1516 L 1165 0 L 942 0 L 492 856 C 479 880 468 901 458 921 C 448 940 438 959 429 978 C 419 997 409 1017 399 1038 C 389 1059 377 1084 365 1112 L 360 1112 L 360 0 L 141 0 L 141 1516 Z" unicode="Ņ" />
<glyph horiz-adv-x="1059" d="M 500 -317 L 420 -317 L 420 -80 L 639 -80 L 639 -293 L 535 -524 L 433 -524 L 500 -317 Z M 117 1085 L 350 1085 L 350 944 C 366 963 385 982 408 1002 C 431 1022 457 1039 486 1055 C 514 1071 545 1083 579 1093 C 612 1103 647 1108 684 1108 C 767 1108 832 1082 879 1031 C 926 980 950 904 950 803 L 950 0 L 717 0 L 717 750 C 717 803 707 842 688 868 C 669 894 637 907 592 907 C 569 907 546 902 523 894 C 499 885 477 874 455 862 C 433 849 413 835 395 820 C 377 805 362 792 350 780 L 350 0 L 117 0 L 117 1085 Z" unicode="ņ" />
<glyph horiz-adv-x="1309" d="M 350 1942 L 489 1942 L 655 1778 L 821 1942 L 958 1942 L 733 1610 L 573 1610 L 350 1942 Z M 141 1516 L 401 1516 L 813 711 C 825 686 837 663 847 643 C 857 623 867 603 877 583 C 887 563 897 542 907 520 C 917 498 929 474 942 446 L 946 446 L 946 1516 L 1165 1516 L 1165 0 L 942 0 L 492 856 C 479 880 468 901 458 921 C 448 940 438 959 429 978 C 419 997 409 1017 399 1038 C 389 1059 377 1084 365 1112 L 360 1112 L 360 0 L 141 0 L 141 1516 Z" unicode="Ň" />
<glyph horiz-adv-x="1059" d="M 225 1532 L 364 1532 L 530 1368 L 696 1532 L 833 1532 L 608 1200 L 448 1200 L 225 1532 Z M 117 1085 L 350 1085 L 350 944 C 366 963 385 982 408 1002 C 431 1022 457 1039 486 1055 C 514 1071 545 1083 579 1093 C 612 1103 647 1108 684 1108 C 767 1108 832 1082 879 1031 C 926 980 950 904 950 803 L 950 0 L 717 0 L 717 750 C 717 803 707 842 688 868 C 669 894 637 907 592 907 C 569 907 546 902 523 894 C 499 885 477 874 455 862 C 433 849 413 835 395 820 C 377 805 362 792 350 780 L 350 0 L 117 0 L 117 1085 Z" unicode="ň" />
<glyph horiz-adv-x="1309" d="M 141 1516 L 401 1516 L 815 711 C 821 699 830 682 842 660 C 854 637 866 613 879 587 C 891 561 903 536 915 512 C 927 487 936 467 942 453 L 946 453 L 946 1516 L 1165 1516 L 1165 -31 C 1165 -151 1134 -245 1074 -312 C 1014 -378 924 -412 805 -412 C 737 -412 670 -401 606 -381 C 542 -361 484 -332 432 -295 L 535 -121 C 571 -145 611 -165 655 -181 C 699 -197 740 -205 780 -205 C 830 -205 871 -191 901 -164 C 931 -137 946 -97 946 -45 L 946 0 L 492 858 C 478 881 467 902 457 921 C 447 940 437 959 428 978 C 418 997 409 1017 399 1038 C 389 1059 377 1084 365 1112 L 360 1112 L 360 0 L 141 0 L 141 1516 Z" unicode="Ŋ" />
<glyph horiz-adv-x="1059" d="M 117 1085 L 350 1085 L 350 944 C 366 963 385 982 408 1002 C 431 1022 457 1039 486 1055 C 514 1071 545 1083 579 1093 C 612 1103 647 1108 684 1108 C 767 1108 832 1082 879 1031 C 926 980 950 904 950 803 L 950 -135 C 950 -178 946 -217 938 -251 C 930 -285 915 -314 895 -338 C 874 -362 846 -380 811 -393 C 775 -405 730 -412 676 -412 C 668 -412 657 -411 645 -411 C 633 -411 620 -410 608 -410 C 596 -409 585 -408 575 -408 C 565 -407 559 -406 557 -406 L 557 -233 C 559 -233 563 -234 568 -235 C 573 -236 579 -237 585 -238 C 591 -238 598 -239 604 -239 C 610 -239 616 -240 621 -240 C 686 -240 719 -199 719 -119 L 719 750 C 719 803 709 842 689 868 C 669 894 637 907 592 907 C 569 907 546 902 523 894 C 499 885 477 874 455 862 C 433 849 413 835 395 820 C 377 805 362 792 350 780 L 350 0 L 117 0 L 117 1085 Z" unicode="ŋ" />
<glyph horiz-adv-x="1309" d="M 383 1784 L 923 1784 L 923 1604 L 383 1604 L 383 1784 Z M 655 -29 C 574 -29 499 -12 429 20 C 359 52 298 101 246 167 C 194 232 154 314 124 412 C 94 510 80 626 80 758 C 80 889 94 1004 124 1102 C 154 1200 194 1282 246 1348 C 298 1413 359 1462 429 1495 C 499 1527 574 1544 655 1544 C 735 1544 810 1527 880 1495 C 950 1462 1010 1413 1062 1348 C 1114 1282 1154 1200 1184 1102 C 1214 1004 1229 889 1229 758 C 1229 626 1214 510 1184 412 C 1154 314 1114 232 1062 167 C 1010 101 950 52 880 20 C 810 -12 735 -29 655 -29 Z M 655 190 C 760 190 841 238 899 335 C 956 431 985 572 985 758 C 985 942 956 1081 898 1177 C 840 1273 759 1321 655 1321 C 549 1321 467 1273 409 1177 C 351 1081 322 942 322 758 C 322 572 351 431 409 335 C 467 238 549 190 655 190 Z" unicode="Ō" />
<glyph horiz-adv-x="1040" d="M 248 1374 L 788 1374 L 788 1194 L 248 1194 L 248 1374 Z M 520 -23 C 458 -23 400 -11 346 11 C 291 33 243 68 201 115 C 159 161 126 220 102 291 C 78 362 66 446 66 543 C 66 641 78 725 102 796 C 126 867 159 926 201 972 C 242 1018 290 1052 345 1074 C 400 1096 458 1108 520 1108 C 580 1108 638 1096 693 1074 C 748 1052 796 1018 838 972 C 879 926 912 867 936 796 C 960 725 973 641 973 543 C 973 446 960 362 936 291 C 912 220 879 161 838 115 C 796 68 748 33 693 11 C 638 -11 580 -23 520 -23 Z M 520 168 C 595 168 650 200 686 265 C 721 329 739 422 739 543 C 739 597 734 647 726 693 C 718 738 705 777 688 809 C 670 841 648 866 620 884 C 592 902 558 911 520 911 C 445 911 389 879 353 815 C 317 751 299 661 299 543 C 299 487 303 437 311 391 C 319 345 331 305 349 272 C 367 239 390 213 418 195 C 446 177 480 168 520 168 Z" unicode="ō" />
<glyph horiz-adv-x="1309" d="M 655 -29 C 574 -29 499 -12 429 20 C 359 52 298 101 246 167 C 194 232 154 314 124 412 C 94 510 80 626 80 758 C 80 889 94 1004 124 1102 C 154 1200 194 1282 246 1348 C 298 1413 359 1462 429 1495 C 499 1527 574 1544 655 1544 C 735 1544 810 1527 880 1495 C 950 1462 1010 1413 1062 1348 C 1114 1282 1154 1200 1184 1102 C 1214 1004 1229 889 1229 758 C 1229 626 1214 510 1184 412 C 1154 314 1114 232 1062 167 C 1010 101 950 52 880 20 C 810 -12 735 -29 655 -29 Z M 655 190 C 760 190 841 238 899 335 C 956 431 985 572 985 758 C 985 942 956 1081 898 1177 C 840 1273 759 1321 655 1321 C 549 1321 467 1273 409 1177 C 351 1081 322 942 322 758 C 322 572 351 431 409 335 C 467 238 549 190 655 190 Z M 655 1600 C 607 1600 566 1608 530 1625 C 494 1641 465 1665 441 1696 C 417 1726 398 1763 385 1806 C 372 1849 364 1897 362 1950 L 499 1950 C 503 1914 509 1883 518 1859 C 527 1834 538 1814 552 1799 C 565 1783 580 1772 598 1765 C 615 1758 634 1755 655 1755 C 675 1755 694 1758 711 1765 C 728 1772 743 1783 757 1799 C 770 1814 781 1834 790 1859 C 798 1883 805 1914 809 1950 L 946 1950 C 943 1897 935 1849 923 1806 C 910 1763 892 1726 868 1696 C 844 1665 814 1641 779 1625 C 743 1608 702 1600 655 1600 Z" unicode="Ŏ" />
<glyph horiz-adv-x="1040" d="M 520 -23 C 458 -23 400 -11 346 11 C 291 33 243 68 201 115 C 159 161 126 220 102 291 C 78 362 66 446 66 543 C 66 641 78 725 102 796 C 126 867 159 926 201 972 C 242 1018 290 1052 345 1074 C 400 1096 458 1108 520 1108 C 580 1108 638 1096 693 1074 C 748 1052 796 1018 838 972 C 879 926 912 867 936 796 C 960 725 973 641 973 543 C 973 446 960 362 936 291 C 912 220 879 161 838 115 C 796 68 748 33 693 11 C 638 -11 580 -23 520 -23 Z M 520 168 C 595 168 650 200 686 265 C 721 329 739 422 739 543 C 739 597 734 647 726 693 C 718 738 705 777 688 809 C 670 841 648 866 620 884 C 592 902 558 911 520 911 C 445 911 389 879 353 815 C 317 751 299 661 299 543 C 299 487 303 437 311 391 C 319 345 331 305 349 272 C 367 239 390 213 418 195 C 446 177 480 168 520 168 Z M 522 1186 C 474 1186 433 1194 397 1211 C 361 1227 332 1251 308 1282 C 284 1312 265 1349 252 1392 C 239 1435 231 1483 229 1536 L 366 1536 C 370 1500 376 1469 385 1445 C 394 1420 405 1400 419 1385 C 432 1369 447 1358 465 1351 C 482 1344 501 1341 522 1341 C 542 1341 561 1344 578 1351 C 595 1358 610 1369 624 1385 C 637 1400 648 1420 657 1445 C 665 1469 672 1500 676 1536 L 813 1536 C 810 1483 802 1435 790 1392 C 777 1349 759 1312 735 1282 C 711 1251 681 1227 646 1211 C 610 1194 569 1186 522 1186 Z" unicode="ŏ" />
<glyph horiz-adv-x="1309" d="M 891 1938 L 1138 1938 L 872 1608 L 712 1608 L 891 1938 Z M 555 1938 L 803 1938 L 545 1608 L 383 1608 L 555 1938 Z M 655 -29 C 574 -29 499 -12 429 20 C 359 52 298 101 246 167 C 194 232 154 314 124 412 C 94 510 80 626 80 758 C 80 889 94 1004 124 1102 C 154 1200 194 1282 246 1348 C 298 1413 359 1462 429 1495 C 499 1527 574 1544 655 1544 C 735 1544 810 1527 880 1495 C 950 1462 1010 1413 1062 1348 C 1114 1282 1154 1200 1184 1102 C 1214 1004 1229 889 1229 758 C 1229 626 1214 510 1184 412 C 1154 314 1114 232 1062 167 C 1010 101 950 52 880 20 C 810 -12 735 -29 655 -29 Z M 655 190 C 760 190 841 238 899 335 C 956 431 985 572 985 758 C 985 942 956 1081 898 1177 C 840 1273 759 1321 655 1321 C 549 1321 467 1273 409 1177 C 351 1081 322 942 322 758 C 322 572 351 431 409 335 C 467 238 549 190 655 190 Z" unicode="Ő" />
<glyph horiz-adv-x="1040" d="M 756 1528 L 1003 1528 L 737 1198 L 577 1198 L 756 1528 Z M 420 1528 L 668 1528 L 410 1198 L 248 1198 L 420 1528 Z M 520 -23 C 458 -23 400 -11 346 11 C 291 33 243 68 201 115 C 159 161 126 220 102 291 C 78 362 66 446 66 543 C 66 641 78 725 102 796 C 126 867 159 926 201 972 C 242 1018 290 1052 345 1074 C 400 1096 458 1108 520 1108 C 580 1108 638 1096 693 1074 C 748 1052 796 1018 838 972 C 879 926 912 867 936 796 C 960 725 973 641 973 543 C 973 446 960 362 936 291 C 912 220 879 161 838 115 C 796 68 748 33 693 11 C 638 -11 580 -23 520 -23 Z M 520 168 C 595 168 650 200 686 265 C 721 329 739 422 739 543 C 739 597 734 647 726 693 C 718 738 705 777 688 809 C 670 841 648 866 620 884 C 592 902 558 911 520 911 C 445 911 389 879 353 815 C 317 751 299 661 299 543 C 299 487 303 437 311 391 C 319 345 331 305 349 272 C 367 239 390 213 418 195 C 446 177 480 168 520 168 Z" unicode="ő" />
<glyph horiz-adv-x="1903" d="M 1008 1516 L 1804 1516 L 1804 1292 L 1225 1292 L 1225 901 L 1647 901 L 1647 688 L 1225 688 L 1225 217 L 1837 217 L 1837 0 L 1008 0 L 1008 147 C 986 115 963 87 937 65 C 911 43 883 25 853 11 C 823 -3 791 -13 758 -19 C 724 -25 690 -29 655 -29 C 574 -29 499 -12 429 20 C 359 52 298 101 246 167 C 194 232 154 314 124 412 C 94 510 80 626 80 758 C 80 889 94 1004 124 1102 C 154 1200 194 1282 246 1348 C 298 1413 359 1462 429 1495 C 499 1527 574 1544 655 1544 C 726 1544 792 1530 853 1503 C 914 1476 966 1434 1008 1378 L 1008 1516 Z M 655 190 C 760 190 841 238 899 335 C 956 431 985 572 985 758 C 985 942 956 1081 898 1177 C 840 1273 759 1321 655 1321 C 549 1321 467 1273 409 1177 C 351 1081 322 942 322 758 C 322 572 351 431 409 335 C 467 238 549 190 655 190 Z" unicode="Œ" />
<glyph horiz-adv-x="1653" d="M 850 934 C 891 994 940 1038 997 1066 C 1053 1094 1113 1108 1176 1108 C 1236 1108 1292 1096 1343 1074 C 1393 1051 1437 1016 1473 970 C 1509 923 1538 864 1558 792 C 1578 720 1589 635 1589 537 L 1589 473 L 963 473 C 968 369 990 293 1030 243 C 1070 193 1124 168 1192 168 C 1220 168 1246 171 1269 178 C 1292 184 1313 194 1333 207 C 1353 219 1371 235 1388 253 C 1405 271 1422 291 1440 315 L 1587 209 C 1566 176 1542 145 1515 117 C 1487 89 1457 64 1423 44 C 1389 23 1351 7 1311 -5 C 1270 -17 1226 -23 1180 -23 C 1110 -23 1047 -8 991 19 C 935 47 887 90 848 147 C 808 90 760 47 704 19 C 648 -8 586 -23 520 -23 C 458 -23 400 -11 346 11 C 291 33 243 68 201 115 C 159 161 126 220 102 291 C 78 362 66 446 66 543 C 66 641 78 725 102 796 C 126 867 159 926 201 972 C 242 1018 290 1052 345 1074 C 400 1096 458 1108 520 1108 C 588 1108 650 1093 707 1065 C 764 1036 812 992 850 934 Z M 1372 637 C 1366 727 1348 796 1317 843 C 1285 889 1238 913 1176 913 C 1150 913 1125 908 1102 898 C 1078 888 1057 873 1038 851 C 1019 829 1003 800 991 765 C 978 730 969 687 965 637 L 1372 637 Z M 520 168 C 595 168 650 200 686 265 C 721 329 739 422 739 543 C 739 597 734 647 726 693 C 718 738 705 777 688 809 C 670 841 648 866 620 884 C 592 902 558 911 520 911 C 445 911 389 879 353 815 C 317 751 299 661 299 543 C 299 487 303 437 311 391 C 319 345 331 305 349 272 C 367 239 390 213 418 195 C 446 177 480 168 520 168 Z" unicode="œ" />
<glyph horiz-adv-x="1192" d="M 658 1938 L 901 1938 L 651 1608 L 492 1608 L 658 1938 Z M 141 1516 L 592 1516 C 668 1516 736 1507 796 1489 C 856 1471 908 1443 950 1405 C 992 1367 1024 1320 1046 1262 C 1068 1204 1079 1136 1079 1057 C 1079 1000 1072 949 1059 904 C 1046 858 1028 818 1005 784 C 981 750 954 721 922 698 C 890 674 855 657 817 645 L 1108 0 L 860 0 L 590 592 L 377 592 L 377 0 L 141 0 L 141 1516 Z M 582 797 C 626 797 664 801 698 810 C 731 818 759 833 781 853 C 803 873 819 899 831 932 C 842 964 848 1005 848 1053 C 848 1098 842 1136 831 1167 C 820 1198 804 1223 782 1242 C 760 1260 732 1274 699 1282 C 665 1290 626 1294 582 1294 L 377 1294 L 377 797 L 582 797 Z" unicode="Ŕ" />
<glyph horiz-adv-x="731" d="M 429 1528 L 672 1528 L 422 1198 L 263 1198 L 429 1528 Z M 117 1085 L 350 1085 L 350 918 L 354 918 C 366 940 382 962 402 985 C 422 1007 445 1028 472 1046 C 499 1064 530 1078 564 1090 C 598 1102 636 1108 678 1108 L 698 1108 L 692 893 C 688 893 681 893 670 894 C 658 894 648 895 639 895 C 607 895 576 890 548 882 C 519 873 492 861 468 846 C 444 830 422 812 402 791 C 382 770 364 747 350 723 L 350 0 L 117 0 L 117 1085 Z" unicode="ŕ" />
<glyph horiz-adv-x="1192" d="M 565 -317 L 485 -317 L 485 -80 L 704 -80 L 704 -293 L 600 -524 L 498 -524 L 565 -317 Z M 141 1516 L 592 1516 C 668 1516 736 1507 796 1489 C 856 1471 908 1443 950 1405 C 992 1367 1024 1320 1046 1262 C 1068 1204 1079 1136 1079 1057 C 1079 1000 1072 949 1059 904 C 1046 858 1028 818 1005 784 C 981 750 954 721 922 698 C 890 674 855 657 817 645 L 1108 0 L 860 0 L 590 592 L 377 592 L 377 0 L 141 0 L 141 1516 Z M 582 797 C 626 797 664 801 698 810 C 731 818 759 833 781 853 C 803 873 819 899 831 932 C 842 964 848 1005 848 1053 C 848 1098 842 1136 831 1167 C 820 1198 804 1223 782 1242 C 760 1260 732 1274 699 1282 C 665 1290 626 1294 582 1294 L 377 1294 L 377 797 L 582 797 Z" unicode="Ŗ" />
<glyph horiz-adv-x="731" d="M 208 -317 L 128 -317 L 128 -80 L 347 -80 L 347 -293 L 243 -524 L 141 -524 L 208 -317 Z M 117 1085 L 350 1085 L 350 918 L 354 918 C 366 940 382 962 402 985 C 422 1007 445 1028 472 1046 C 499 1064 530 1078 564 1090 C 598 1102 636 1108 678 1108 L 698 1108 L 692 893 C 688 893 681 893 670 894 C 658 894 648 895 639 895 C 607 895 576 890 548 882 C 519 873 492 861 468 846 C 444 830 422 812 402 791 C 382 770 364 747 350 723 L 350 0 L 117 0 L 117 1085 Z" unicode="ŗ" />
<glyph horiz-adv-x="1192" d="M 291 1942 L 430 1942 L 596 1778 L 762 1942 L 899 1942 L 674 1610 L 514 1610 L 291 1942 Z M 141 1516 L 592 1516 C 668 1516 736 1507 796 1489 C 856 1471 908 1443 950 1405 C 992 1367 1024 1320 1046 1262 C 1068 1204 1079 1136 1079 1057 C 1079 1000 1072 949 1059 904 C 1046 858 1028 818 1005 784 C 981 750 954 721 922 698 C 890 674 855 657 817 645 L 1108 0 L 860 0 L 590 592 L 377 592 L 377 0 L 141 0 L 141 1516 Z M 582 797 C 626 797 664 801 698 810 C 731 818 759 833 781 853 C 803 873 819 899 831 932 C 842 964 848 1005 848 1053 C 848 1098 842 1136 831 1167 C 820 1198 804 1223 782 1242 C 760 1260 732 1274 699 1282 C 665 1290 626 1294 582 1294 L 377 1294 L 377 797 L 582 797 Z" unicode="Ř" />
<glyph horiz-adv-x="731" d="M 62 1532 L 201 1532 L 367 1368 L 533 1532 L 670 1532 L 445 1200 L 285 1200 L 62 1532 Z M 117 1085 L 350 1085 L 350 918 L 354 918 C 366 940 382 962 402 985 C 422 1007 445 1028 472 1046 C 499 1064 530 1078 564 1090 C 598 1102 636 1108 678 1108 L 698 1108 L 692 893 C 688 893 681 893 670 894 C 658 894 648 895 639 895 C 607 895 576 890 548 882 C 519 873 492 861 468 846 C 444 830 422 812 402 791 C 382 770 364 747 350 723 L 350 0 L 117 0 L 117 1085 Z" unicode="ř" />
<glyph horiz-adv-x="1161" d="M 643 1938 L 886 1938 L 636 1608 L 477 1608 L 643 1938 Z M 598 -27 C 529 -27 467 -18 412 0 C 357 18 308 43 264 75 C 220 107 181 145 148 190 C 114 234 85 284 61 338 L 264 438 C 280 402 300 368 322 337 C 344 306 368 279 396 257 C 424 234 454 216 488 203 C 521 190 558 184 598 184 C 675 184 735 201 778 235 C 820 269 842 318 842 381 C 842 419 834 452 818 480 C 802 508 780 533 754 555 C 727 577 696 597 661 615 C 626 633 589 650 551 668 C 518 682 485 698 451 714 C 417 730 384 747 353 766 C 321 785 292 806 264 830 C 236 854 212 881 192 911 C 171 941 155 976 143 1014 C 131 1052 125 1096 125 1145 C 125 1204 136 1258 158 1307 C 180 1356 212 1398 252 1433 C 292 1468 339 1495 393 1515 C 447 1534 507 1544 571 1544 C 633 1544 690 1535 740 1519 C 790 1502 834 1479 874 1450 C 914 1420 948 1385 978 1345 C 1008 1305 1033 1261 1055 1214 L 852 1110 C 837 1142 821 1171 803 1198 C 785 1225 764 1248 742 1268 C 719 1288 693 1303 665 1314 C 636 1325 603 1331 567 1331 C 504 1331 454 1315 417 1284 C 380 1252 362 1209 362 1155 C 362 1118 369 1086 385 1058 C 400 1030 420 1006 446 984 C 472 962 501 941 535 923 C 569 905 604 887 641 870 C 674 855 708 839 742 823 C 776 807 810 789 842 770 C 874 750 905 729 933 705 C 961 681 986 654 1008 624 C 1029 593 1046 558 1058 520 C 1070 481 1077 437 1077 389 C 1077 333 1066 279 1045 229 C 1023 179 992 135 952 97 C 911 59 861 28 801 6 C 741 -15 674 -27 598 -27 Z" unicode="Ś" />
<glyph horiz-adv-x="922" d="M 526 1528 L 769 1528 L 519 1198 L 360 1198 L 526 1528 Z M 461 -23 C 411 -23 364 -18 321 -8 C 278 2 238 16 201 35 C 164 53 131 75 101 101 C 71 127 44 156 20 188 L 164 309 C 204 259 250 222 303 196 C 356 170 410 158 465 158 C 520 158 563 168 595 188 C 627 208 643 239 643 281 C 643 310 635 334 619 354 C 603 374 582 391 556 405 C 530 419 500 431 467 442 C 433 453 399 465 364 478 C 329 490 295 505 262 521 C 228 537 199 558 173 582 C 147 606 126 636 110 671 C 94 706 86 749 86 799 C 86 847 95 891 115 929 C 134 967 160 1000 194 1027 C 227 1053 266 1073 312 1087 C 358 1101 407 1108 459 1108 C 497 1108 534 1103 571 1095 C 607 1087 642 1075 675 1059 C 707 1043 738 1023 766 1001 C 794 978 820 952 842 924 L 702 797 C 687 814 670 830 652 846 C 634 861 614 874 594 886 C 573 898 551 907 528 914 C 505 920 481 924 457 924 C 407 924 369 914 344 894 C 319 874 307 847 307 811 C 307 781 315 757 331 738 C 347 719 368 703 394 689 C 420 675 449 662 482 651 C 515 640 549 628 584 616 C 619 604 653 590 686 574 C 719 558 749 537 775 513 C 801 488 822 458 838 423 C 854 388 862 345 862 295 C 862 244 851 199 830 159 C 808 119 779 86 743 59 C 706 32 663 12 615 -2 C 566 -16 515 -23 461 -23 Z" unicode="ś" />
<glyph horiz-adv-x="1161" d="M 489 1942 L 647 1942 L 872 1610 L 733 1610 L 567 1774 L 401 1610 L 264 1610 L 489 1942 Z M 598 -27 C 529 -27 467 -18 412 0 C 357 18 308 43 264 75 C 220 107 181 145 148 190 C 114 234 85 284 61 338 L 264 438 C 280 402 300 368 322 337 C 344 306 368 279 396 257 C 424 234 454 216 488 203 C 521 190 558 184 598 184 C 675 184 735 201 778 235 C 820 269 842 318 842 381 C 842 419 834 452 818 480 C 802 508 780 533 754 555 C 727 577 696 597 661 615 C 626 633 589 650 551 668 C 518 682 485 698 451 714 C 417 730 384 747 353 766 C 321 785 292 806 264 830 C 236 854 212 881 192 911 C 171 941 155 976 143 1014 C 131 1052 125 1096 125 1145 C 125 1204 136 1258 158 1307 C 180 1356 212 1398 252 1433 C 292 1468 339 1495 393 1515 C 447 1534 507 1544 571 1544 C 633 1544 690 1535 740 1519 C 790 1502 834 1479 874 1450 C 914 1420 948 1385 978 1345 C 1008 1305 1033 1261 1055 1214 L 852 1110 C 837 1142 821 1171 803 1198 C 785 1225 764 1248 742 1268 C 719 1288 693 1303 665 1314 C 636 1325 603 1331 567 1331 C 504 1331 454 1315 417 1284 C 380 1252 362 1209 362 1155 C 362 1118 369 1086 385 1058 C 400 1030 420 1006 446 984 C 472 962 501 941 535 923 C 569 905 604 887 641 870 C 674 855 708 839 742 823 C 776 807 810 789 842 770 C 874 750 905 729 933 705 C 961 681 986 654 1008 624 C 1029 593 1046 558 1058 520 C 1070 481 1077 437 1077 389 C 1077 333 1066 279 1045 229 C 1023 179 992 135 952 97 C 911 59 861 28 801 6 C 741 -15 674 -27 598 -27 Z" unicode="Ŝ" />
<glyph horiz-adv-x="922" d="M 365 1528 L 523 1528 L 748 1196 L 609 1196 L 443 1360 L 277 1196 L 140 1196 L 365 1528 Z M 461 -23 C 411 -23 364 -18 321 -8 C 278 2 238 16 201 35 C 164 53 131 75 101 101 C 71 127 44 156 20 188 L 164 309 C 204 259 250 222 303 196 C 356 170 410 158 465 158 C 520 158 563 168 595 188 C 627 208 643 239 643 281 C 643 310 635 334 619 354 C 603 374 582 391 556 405 C 530 419 500 431 467 442 C 433 453 399 465 364 478 C 329 490 295 505 262 521 C 228 537 199 558 173 582 C 147 606 126 636 110 671 C 94 706 86 749 86 799 C 86 847 95 891 115 929 C 134 967 160 1000 194 1027 C 227 1053 266 1073 312 1087 C 358 1101 407 1108 459 1108 C 497 1108 534 1103 571 1095 C 607 1087 642 1075 675 1059 C 707 1043 738 1023 766 1001 C 794 978 820 952 842 924 L 702 797 C 687 814 670 830 652 846 C 634 861 614 874 594 886 C 573 898 551 907 528 914 C 505 920 481 924 457 924 C 407 924 369 914 344 894 C 319 874 307 847 307 811 C 307 781 315 757 331 738 C 347 719 368 703 394 689 C 420 675 449 662 482 651 C 515 640 549 628 584 616 C 619 604 653 590 686 574 C 719 558 749 537 775 513 C 801 488 822 458 838 423 C 854 388 862 345 862 295 C 862 244 851 199 830 159 C 808 119 779 86 743 59 C 706 32 663 12 615 -2 C 566 -16 515 -23 461 -23 Z" unicode="ŝ" />
<glyph horiz-adv-x="1161" d="M 598 -27 C 529 -27 467 -18 412 0 C 357 18 308 43 264 75 C 220 107 181 145 148 190 C 114 234 85 284 61 338 L 264 438 C 280 402 300 368 322 337 C 344 306 368 279 396 257 C 424 234 454 216 488 203 C 521 190 558 184 598 184 C 675 184 735 201 778 235 C 820 269 842 318 842 381 C 842 419 834 452 818 480 C 802 508 780 533 754 555 C 727 577 696 597 661 615 C 626 633 589 650 551 668 C 518 682 485 698 451 714 C 417 730 384 747 353 766 C 321 785 292 806 264 830 C 236 854 212 881 192 911 C 171 941 155 976 143 1014 C 131 1052 125 1096 125 1145 C 125 1204 136 1258 158 1307 C 180 1356 212 1398 252 1433 C 292 1468 339 1495 393 1515 C 447 1534 507 1544 571 1544 C 633 1544 690 1535 740 1519 C 790 1502 834 1479 874 1450 C 914 1420 948 1385 978 1345 C 1008 1305 1033 1261 1055 1214 L 852 1110 C 837 1142 821 1171 803 1198 C 785 1225 764 1248 742 1268 C 719 1288 693 1303 665 1314 C 636 1325 603 1331 567 1331 C 504 1331 454 1315 417 1284 C 380 1252 362 1209 362 1155 C 362 1118 369 1086 385 1058 C 400 1030 420 1006 446 984 C 472 962 501 941 535 923 C 569 905 604 887 641 870 C 674 855 708 839 742 823 C 776 807 810 789 842 770 C 874 750 905 729 933 705 C 961 681 986 654 1008 624 C 1029 593 1046 558 1058 520 C 1070 481 1077 437 1077 389 C 1077 333 1066 279 1045 229 C 1023 179 992 135 952 97 C 911 59 861 28 801 6 C 741 -15 674 -27 598 -27 Z M 589 -422 C 539 -422 492 -415 448 -402 C 404 -388 366 -371 333 -350 L 389 -256 C 414 -273 444 -287 478 -297 C 512 -307 547 -313 581 -313 C 616 -313 643 -306 663 -293 C 682 -280 692 -261 692 -236 C 692 -194 670 -174 626 -174 C 609 -174 594 -177 580 -184 C 566 -190 552 -199 540 -211 L 466 -178 L 522 12 L 632 12 L 600 -106 C 612 -96 627 -89 645 -84 C 663 -78 683 -76 706 -76 C 723 -76 740 -78 757 -84 C 773 -90 788 -98 801 -110 C 813 -122 823 -137 831 -155 C 839 -173 843 -194 843 -219 C 843 -249 836 -277 823 -302 C 810 -327 792 -348 770 -366 C 747 -384 720 -397 689 -407 C 658 -417 625 -422 589 -422 Z" unicode="Ş" />
</font>
</defs>
</svg>
